<svg xmlns="http://www.w3.org/2000/svg" viewBox="0 0 64.07 53.39"><defs><style>.cls-1{fill:#fff;}</style></defs><title>Twitter</title><g id="Layer_2" data-name="Layer 2"><g id="Layer_1-2" data-name="Layer 1"><path id="Twitter" class="cls-1" d="M62.3,1a25.89,25.89,0,0,1-8.35,3.27A13,13,0,0,0,44.36,0,13.31,13.31,0,0,0,31.22,13.48a13.75,13.75,0,0,0,.34,3.07A37,37,0,0,1,4.46,2.46,13.72,13.72,0,0,0,2.68,9.24,13.57,13.57,0,0,0,8.53,20.46a12.9,12.9,0,0,1-6-1.68v.17A13.4,13.4,0,0,0,13.12,32.16a12.53,12.53,0,0,1-3.46.47,12.77,12.77,0,0,1-2.47-.24,13.19,13.19,0,0,0,12.28,9.36A26,26,0,0,1,3.14,47.53,26.31,26.31,0,0,1,0,47.34a36.6,36.6,0,0,0,20.15,6.05c24.18,0,37.4-20.54,37.4-38.35,0-.59,0-1.17,0-1.75a27,27,0,0,0,6.55-7,25.68,25.68,0,0,1-7.55,2.12A13.45,13.45,0,0,0,62.3,1Z"/></g></g></svg>