<svg xmlns="http://www.w3.org/2000/svg" viewBox="0 0 58.73 53.39"><defs><style>.cls-1{fill:#fff;}</style></defs><title>Asset 13</title><g id="Layer_2" data-name="Layer 2"><g id="Layer_1-2" data-name="Layer 1"><g id="LinkedIn"><rect class="cls-1" x="1.48" y="17.12" width="11.45" height="36.27"/><path class="cls-1" d="M44.2,16.77c-6.56,0-10.67,3.55-11.43,6V17.12H19.92c.17,3,0,36.27,0,36.27H32.78V33.76a8.26,8.26,0,0,1,.28-3,6.55,6.55,0,0,1,6.2-4.44c4.46,0,6.5,3.35,6.5,8.27V53.39h13V33.22C58.73,22,52.34,16.77,44.2,16.77Z"/><path class="cls-1" d="M7,0C2.77,0,0,2.71,0,6.3s2.69,6.29,6.83,6.29h.08c4.3,0,7-2.78,7-6.3S11.22,0,7,0Z"/></g></g></g></svg>