<svg xmlns="http://www.w3.org/2000/svg" viewBox="0 0 984.1687 861.8003"><defs><style>.cls-1{fill:none;stroke:#f26d73;stroke-miterlimit:10;stroke-width:2px;}</style></defs><title>Asset 1</title><g id="Layer_2" data-name="Layer 2"><g id="Layer_1-2" data-name="Layer 1"><path class="cls-1" d="M823.81,842.6876l87.721-151.9464a36.2239,36.2239,0,0,0,0-36.223L883.8194,606.52,737.02,860.8h55.4193A36.2239,36.2239,0,0,0,823.81,842.6876Z"/><path class="cls-1" d="M957.3756,842.6874l20.9406-36.2729a36.2239,36.2239,0,0,0,0-36.2225l-27.71-47.9958L870.5851,860.8h55.4191A36.2239,36.2239,0,0,0,957.3756,842.6874Z"/><path class="cls-1" d="M246.0412,860.8,99.2374,606.5366l-27.701,47.9807a36.2239,36.2239,0,0,0,0,36.224l87.73,151.9475A36.2239,36.2239,0,0,0,190.6371,860.8Z"/><path class="cls-1" d="M33.556,720.3021,5.8533,768.2832a36.2239,36.2239,0,0,0,0,36.2238l22.043,38.181A36.2239,36.2239,0,0,0,59.2669,860.8H114.67Z"/><path class="cls-1" d="M646.7355,860.8H658.87a36.2239,36.2239,0,0,0,31.3709-18.1121L844.7478,575.0718a36.2239,36.2239,0,0,0,0-36.2237l-27.7111-47.9972L625.0918,823.3142Z"/><path class="cls-1" d="M379.6026,860.8,187.6517,528.331H144.3885l-6.0718,10.5171a36.2239,36.2239,0,0,0,0,36.2235L292.828,842.6886A36.2239,36.2239,0,0,0,324.1987,860.8Z"/><path class="cls-1" d="M596.481,773.7557,777.969,459.4045a36.2239,36.2239,0,0,0,0-36.224L750.258,375.1854,558.3172,707.6547Z"/><path class="cls-1" d="M244.8995,528.331l181.494,314.3574A36.2239,36.2239,0,0,0,457.7643,860.8H513.17L321.2171,528.331Z"/><path class="cls-1" d="M454.7826,528.33H378.4649L559.947,842.6865a36.2239,36.2239,0,0,0,31.3713,18.1128h55.4172Z"/><path class="cls-1" d="M579.2567,115.2253H403.8107A36.2239,36.2239,0,0,0,372.44,133.3377l-27.703,47.9845H638.3322L610.6273,133.337A36.2239,36.2239,0,0,0,579.2567,115.2253Z"/><path class="cls-1" d="M513.309,1H469.7584a36.2239,36.2239,0,0,0-31.3711,18.1124l-27.703,47.9845h161.7L544.68,19.1117A36.2239,36.2239,0,0,0,513.309,1Z"/><path class="cls-1" d="M683.4712,259.5077l-6.0632-10.5013a36.2239,36.2239,0,0,0-31.3705-18.1115H337.028a36.2239,36.2239,0,0,0-31.3711,18.1124l-27.703,47.9845H661.8316Z"/><path class="cls-1" d="M633.2087,346.5726H270.2413A36.2239,36.2239,0,0,0,238.87,364.6849l-27.703,47.9845H595.0529Z"/><path class="cls-1" d="M172.0953,480.344,144.3885,528.33H528.2823L566.44,462.2331H203.4655A36.2239,36.2239,0,0,0,172.0953,480.344Z"/><path class="cls-1" d="M683.4712,259.5087,491.5344,591.9862l38.16,66.0969L711.1825,343.73a36.2239,36.2239,0,0,0,0-36.2235Z"/></g></g></svg>