<svg xmlns="http://www.w3.org/2000/svg" xmlns:xlink="http://www.w3.org/1999/xlink" viewBox="0 0 500.44 150.21"><defs><style>.cls-1{fill:url(#linear-gradient);}.cls-2{fill:url(#linear-gradient-2);}.cls-3{fill:url(#linear-gradient-3);}.cls-4{fill:url(#linear-gradient-4);}.cls-5{fill:url(#linear-gradient-5);}.cls-6{fill:url(#linear-gradient-6);}.cls-7{fill:url(#linear-gradient-7);}.cls-8{fill:url(#linear-gradient-8);}.cls-9{fill:url(#linear-gradient-9);}.cls-10{fill:url(#linear-gradient-10);}.cls-11{fill:url(#linear-gradient-11);}.cls-12{fill:url(#linear-gradient-12);}.cls-13{fill:url(#linear-gradient-13);}.cls-14{fill:url(#linear-gradient-14);}.cls-15{fill:url(#linear-gradient-15);}.cls-16{fill:#404041;}</style><linearGradient id="linear-gradient" x1="171.84" y1="146.97" x2="96.02" y2="108.16" gradientTransform="matrix(1, 0, 0, -1, 0, 262.21)" gradientUnits="userSpaceOnUse"><stop offset="0" stop-color="#68d7e3"/><stop offset="1" stop-color="#007aff"/></linearGradient><linearGradient id="linear-gradient-2" x1="179.56" y1="131.83" x2="103.99" y2="93.15" xlink:href="#linear-gradient"/><linearGradient id="linear-gradient-3" x1="23.35" y1="110.82" x2="44.32" y2="210.32" xlink:href="#linear-gradient"/><linearGradient id="linear-gradient-4" x1="8.85" y1="113.78" x2="29.59" y2="212.19" xlink:href="#linear-gradient"/><linearGradient id="linear-gradient-5" x1="164.12" y1="162.07" x2="88.23" y2="123.22" xlink:href="#linear-gradient"/><linearGradient id="linear-gradient-6" x1="38.08" y1="107.76" x2="59.12" y2="207.61" xlink:href="#linear-gradient"/><linearGradient id="linear-gradient-7" x1="154.45" y1="180.97" x2="78.55" y2="142.13" xlink:href="#linear-gradient"/><linearGradient id="linear-gradient-8" x1="58.13" y1="103.59" x2="79.17" y2="203.44" xlink:href="#linear-gradient"/><linearGradient id="linear-gradient-9" x1="80.49" y1="98.94" x2="101.53" y2="198.78" xlink:href="#linear-gradient"/><linearGradient id="linear-gradient-10" x1="53.92" y1="244.92" x2="140.52" y2="217.86" xlink:href="#linear-gradient"/><linearGradient id="linear-gradient-11" x1="59.61" y1="263.13" x2="146.21" y2="236.07" xlink:href="#linear-gradient"/><linearGradient id="linear-gradient-12" x1="48.18" y1="226.53" x2="134.78" y2="199.47" xlink:href="#linear-gradient"/><linearGradient id="linear-gradient-13" x1="41.77" y1="206.01" x2="128.36" y2="178.95" xlink:href="#linear-gradient"/><linearGradient id="linear-gradient-14" x1="34.98" y1="184.29" x2="121.57" y2="157.22" xlink:href="#linear-gradient"/><linearGradient id="linear-gradient-15" x1="143.82" y1="201.71" x2="67.93" y2="162.87" xlink:href="#linear-gradient"/></defs><title>company_logo</title><g id="Layer_2" data-name="Layer 2"><g id="Layer_1-2" data-name="Layer 1"><g id="Layer_2-2" data-name="Layer 2"><g id="Layer_1-2-2" data-name="Layer 1-2"><path class="cls-1" d="M143.73,147,159,120.46a6.33,6.33,0,0,0,0-6.33l-4.84-8.38-25.64,44.42h9.68A6.33,6.33,0,0,0,143.73,147Z"/><path class="cls-2" d="M167.06,147l3.66-6.34a6.33,6.33,0,0,0,0-6.33L165.88,126l-14,24.21h9.68A6.33,6.33,0,0,0,167.06,147Z"/><path class="cls-3" d="M42.8,150.19,17.16,105.77l-4.84,8.38a6.33,6.33,0,0,0,0,6.33L27.65,147a6.33,6.33,0,0,0,5.48,3.16Z"/><path class="cls-4" d="M5.69,125.65.85,134a6.33,6.33,0,0,0,0,6.33L4.7,147a6.33,6.33,0,0,0,5.48,3.16h9.68Z"/><path class="cls-5" d="M112.8,150.19h2.12A6.33,6.33,0,0,0,120.4,147l27-46.75a6.33,6.33,0,0,0,0-6.33l-4.84-8.38L109,143.64Z"/><path class="cls-6" d="M66.13,150.19,32.6,92.11H25L24,94a6.33,6.33,0,0,0,0,6.33L51,147a6.33,6.33,0,0,0,5.48,3.16Z"/><path class="cls-7" d="M104,135l31.7-54.91a6.33,6.33,0,0,0,0-6.33l-4.84-8.38L97.35,123.44Z"/><path class="cls-8" d="M42.6,92.11,74.31,147a6.33,6.33,0,0,0,5.48,3.16h9.68L55.94,92.11Z"/><path class="cls-9" d="M79.27,92.11H65.94L97.64,147a6.33,6.33,0,0,0,5.48,3.16h9.68Z"/><path class="cls-10" d="M101,20H70.36a6.33,6.33,0,0,0-5.48,3.16L60,31.5h51.29l-4.84-8.38A6.33,6.33,0,0,0,101,20Z"/><path class="cls-11" d="M89.49,0H81.88A6.33,6.33,0,0,0,76.4,3.16l-4.84,8.38H99.81L95,3.16A6.33,6.33,0,0,0,89.49,0Z"/><path class="cls-12" d="M119.21,45.16l-1.06-1.83a6.33,6.33,0,0,0-5.48-3.16h-54a6.33,6.33,0,0,0-5.48,3.16L48.38,51.7h67.06Z"/><path class="cls-13" d="M110.43,60.36H47a6.33,6.33,0,0,0-5.48,3.16L36.68,71.9h67.06Z"/><path class="cls-14" d="M29.89,83.73,25,92.11H92.11l6.67-11.55H35.37A6.33,6.33,0,0,0,29.89,83.73Z"/><path class="cls-15" d="M119.21,45.16,85.69,103.23l6.67,11.55,31.7-54.91a6.33,6.33,0,0,0,0-6.33Z"/><path class="cls-16" d="M248.48,36.4c21.78,0,38,14.38,38,39s-16.47,39-38.25,39h-31v-78Zm-18.86,67.32h18.76c15.11,0,25.74-9.69,25.74-28.35S263.7,47,248.48,47H229.62Z"/><path class="cls-16" d="M314,42.34a7.34,7.34,0,0,1-7.39,7.29h0a7.3,7.3,0,1,1,7.4-7.31Zm-13.23,72V60.89h11.67v53.46Z"/><path class="cls-16" d="M369.28,68.39v-7.5h11V117c0,15.32-10.42,24.91-26.26,24.91s-24.49-8-26.57-19.59l11.67-.42c1,6.25,6.77,10.11,14.59,10.11,8.86,0,14.91-4.9,14.91-14.17V108c-2.92,4.17-9,7.4-17,7.4-14.9,0-25.74-10.63-25.74-27.72S336.77,60,351.67,60C360,60,366.36,63.5,369.28,68.39ZM337.81,87.67c0,11.36,6.67,17.72,15.74,17.72,8.75,0,15.11-5.73,15.11-16.26V86.32c0-10.63-6.36-16.26-15.11-16.26C344.48,70.06,337.81,76.31,337.81,87.67Z"/><path class="cls-16" d="M410.22,42.34a7.34,7.34,0,0,1-7.39,7.29h0a7.3,7.3,0,1,1,7.4-7.31Zm-13.23,72V60.89h11.67v53.46Z"/><path class="cls-16" d="M438.52,47.34V69.12h30.22V80.07H438.52v34.29h-12.4v-78h49v11Z"/><path class="cls-16" d="M500.44,42.34A7.34,7.34,0,0,1,493,49.63h0a7.32,7.32,0,1,1,7.4-7.39S500.44,42.31,500.44,42.34Zm-13.23,72V60.89h11.67v53.46Z"/></g></g></g></g></svg>