<?xml version="1.0" encoding="utf-8"?>
<!-- Generator: Adobe Illustrator 21.1.0, SVG Export Plug-In . SVG Version: 6.00 Build 0)  -->
<!DOCTYPE svg PUBLIC "-//W3C//DTD SVG 1.1//EN" "http://www.w3.org/Graphics/SVG/1.1/DTD/svg11.dtd">
<svg version="1.1" id="Layer_1" xmlns="http://www.w3.org/2000/svg" xmlns:xlink="http://www.w3.org/1999/xlink" x="0px" y="0px"
	 viewBox="0 0 150 150" style="enable-background:new 0 0 150 150;" xml:space="preserve">
<style type="text/css">
	.st0{fill:#FFFFFF;stroke:rgb(64, 64, 64);stroke-width:4;stroke-linecap:round;stroke-linejoin:round;stroke-miterlimit:10;}
	.st1{fill:none;stroke:rgb(64, 64, 64);stroke-width:4;stroke-linecap:round;stroke-linejoin:round;stroke-miterlimit:10;}
	.st2{fill:rgb(64, 64, 64);}
	.st3{fill:none;stroke:rgb(64, 64, 64);stroke-width:1.5;stroke-linecap:round;stroke-linejoin:round;stroke-miterlimit:10;}
	.st4{fill:none;stroke:rgb(64, 64, 64);stroke-width:2;stroke-linecap:round;stroke-linejoin:round;stroke-miterlimit:10;}
	.st5{fill:rgb(64, 64, 64);stroke:rgb(64, 64, 64);stroke-width:4;stroke-linecap:round;stroke-linejoin:round;stroke-miterlimit:10;}
	.st6{fill:none;stroke:rgb(64, 64, 64);stroke-width:4;stroke-linecap:round;stroke-linejoin:round;}
	.st7{fill:none;stroke:rgb(64, 64, 64);stroke-width:4;stroke-linecap:round;stroke-linejoin:round;stroke-dasharray:5.087364e-02,10.1747;}
	
		.st8{fill:none;stroke:rgb(64, 64, 64);stroke-width:4;stroke-linecap:round;stroke-linejoin:round;stroke-miterlimit:10;stroke-dasharray:5.000000e-02,10;}
	.st9{fill:none;stroke:rgb(64, 64, 64);stroke-width:4;stroke-linecap:round;stroke-linejoin:round;stroke-dasharray:5.565219e-02,11.1304;}
</style>
<g>
	<path class="st2" d="M75.5,67.9H54.4c0,0,0,0,0,0h-9.1c-1.9,0-3.6,0.7-5,1.9l-11,9.5c-0.6,0.5-0.9,1.4-0.6,2.2s1,1.3,1.9,1.3h18.9
		c0,0,0,0,0,0c0,0,0,0,0,0h36.9c0.8,0,1.4-0.4,1.8-1.1c0.3-0.7,0.3-1.5-0.2-2.1L81.6,71C80.2,69.1,77.9,67.9,75.5,67.9z M42.8,72.8
		c0.7-0.6,1.5-0.9,2.4-0.9h6l-3.1,6.9H35.9L42.8,72.8z M52.6,78.8l3.1-6.9h19.9c1.1,0,2.2,0.5,2.9,1.5l4,5.4H52.6z"/>
	<path class="st2" d="M117.9,87.2c14.3,0,25.9-11.6,25.9-25.9c0-14.3-11.6-25.9-25.9-25.9c-14.3,0-25.9,11.6-25.9,25.9
		c0,1.3,0.1,2.7,0.3,4C94.3,78,105.1,87.2,117.9,87.2z M117.9,39.5c12,0,21.9,9.8,21.9,21.9s-9.8,21.9-21.9,21.9
		c-10.7,0-20-7.9-21.6-18.5c-0.2-1.1-0.3-2.3-0.3-3.4C96.1,49.3,105.9,39.5,117.9,39.5z"/>
	<path class="st2" d="M122.7,69.4h-14.6c-1.1,0-2,0.9-2,2s0.9,2,2,2h7.8v3.5c0,1.1,0.9,2,2,2s2-0.9,2-2v-3.5h2.9c3.8,0,7-3.1,7-7
		s-3.1-7-7-7h-9.6c-1.6,0-3-1.3-3-3v-0.2c0-1.6,1.3-3,3-3h14.6c1.1,0,2-0.9,2-2s-0.9-2-2-2h-7.8v-3.5c0-1.1-0.9-2-2-2s-2,0.9-2,2
		v3.5h-2.8c-3.8,0-7,3.1-7,7v0.2c0,3.8,3.1,7,7,7h9.6c1.6,0,3,1.3,3,3C125.7,68,124.4,69.4,122.7,69.4z"/>
	<path class="st2" d="M133.2,86.6c-0.8-0.7-2.1-0.7-2.8,0.1c-0.8,0.8-0.7,2.1,0.1,2.8c1.2,1.1,1.8,2.3,1.9,3.6l0,0.4
		c0.1,3.3-1.1,6.3-3.4,8.7c-1.1,1.1-2.3,2-3.7,2.6c0.2-0.9,0.3-1.8,0.3-2.7c0-6.9-5.6-12.5-12.5-12.5s-12.5,5.6-12.5,12.5
		c0,1.2,0.2,2.4,0.5,3.5l-59.9-0.7c0.3-0.9,0.4-1.9,0.4-2.8c0-5.9-4.8-10.7-10.7-10.7S20.2,96.1,20.2,102c0,0.1,0,0.2,0,0.3
		l-3.1-0.6c-3.9-0.8-6.8-4.2-6.8-8.2v-8.1c0-2.5,2-4.6,4.4-4.8l10.3-0.7c0.4,0,0.8-0.2,1.1-0.5l13.5-11.2c1.6-1.4,3.7-2.1,5.8-2.1
		h30.4c2.7,0,5.3,1.2,7,3.3l10,11.8c0.7,0.8,2,0.9,2.8,0.2c0.8-0.7,0.9-2,0.2-2.8l-10-11.8c-2.5-3-6.2-4.7-10.1-4.7H45.4
		c-3,0-6,1.1-8.4,3L24,76l-9.6,0.6c-4.6,0.3-8.2,4.1-8.2,8.7v8.1c0,5.9,4.2,11,10,12.2l4.9,1c1.7,3.7,5.4,6.2,9.7,6.2
		c3.3,0,6.3-1.5,8.3-3.9l64,0.7c2.3,3,5.9,5,10,5c4.1,0,7.7-2,10-5c3.3-0.5,6.4-2.1,8.8-4.5c3-3.1,4.6-7.2,4.5-11.6l0-0.4
		C136.2,90.6,135.2,88.4,133.2,86.6z M30.9,108.8c-3.7,0-6.7-3-6.7-6.7s3-6.7,6.7-6.7s6.7,3,6.7,6.7S34.6,108.8,30.9,108.8z
		 M113.1,110.5c-4.7,0-8.5-3.8-8.5-8.5s3.8-8.5,8.5-8.5s8.5,3.8,8.5,8.5S117.8,110.5,113.1,110.5z"/>
</g>
</svg>
