<?xml version="1.0" encoding="utf-8"?>
<!-- Generator: Adobe Illustrator 21.1.0, SVG Export Plug-In . SVG Version: 6.00 Build 0)  -->
<svg version="1.1" id="Layer_1" xmlns="http://www.w3.org/2000/svg" xmlns:xlink="http://www.w3.org/1999/xlink" x="0px" y="0px"
	 viewBox="0 0 150 300" style="enable-background:new 0 0 150 300;" xml:space="preserve">
<style type="text/css">
	.st0{fill:rgb(64, 64, 64);}
	.st1{fill:#FFFFFF;}
</style>
<title>Artboard 2 copy 22</title>
<path class="st0" d="M50.9,108.9v15.2c0,1.1-0.9,2-2,2H27c-1.1,0-2-0.9-2-2V59.9c0-1.1,0.9-2,2-2h10.9c1.1,0,2,0.9,2,2s-0.9,2-2,2
	H29v60.1h17.9v-13.2c0-1.1,0.9-2,2-2S50.9,107.8,50.9,108.9z M82.8,113.6c-1.1,0-2,0.9-2,2v6.5H62.9v-6.8c0-1.1-0.9-2-2-2
	s-2,0.9-2,2v8.8c0,1.1,0.9,2,2,2h21.9c1.1,0,2-0.9,2-2v-8.5C84.8,114.5,83.9,113.6,82.8,113.6C82.8,113.6,82.8,113.6,82.8,113.6z
	 M60.9,43.6c1.1,0,2-0.9,2-2V22.9h17.9v18.6c0,1.1,0.9,2,2,2s2-0.9,2-2V20.9c0-1.1-0.9-2-2-2H60.9c-1.1,0-2,0.9-2,2v20.6
	C58.9,42.7,59.8,43.6,60.9,43.6z M99.4,122.1h-2.7v-4c0-1.1-0.9-2-2-2s-2,0.9-2,2v6c0,1.1,0.9,2,2,2h4.7c1.1,0,2-0.9,2-2
	S100.5,122.1,99.4,122.1z M94.8,50.9c1.1,0,2-0.9,2-2V38.4h17.9v66.3c0,1.1,0.9,2,2,2s2-0.9,2-2V36.4c0-1.1-0.9-2-2-2H94.8
	c-1.1,0-2,0.9-2,2v12.5C92.8,50,93.6,50.9,94.8,50.9z M87.2,63.2c8.4,8.4,8.4,22.1,0,30.6c-4,4-9.5,6.3-15.2,6.3l0,0
	c-11.9,0-21.6-9.7-21.6-21.6c0-11.9,9.7-21.6,21.6-21.6C77.6,56.8,83.1,59.1,87.2,63.2z M89.5,78.4c0-9.7-7.9-17.6-17.6-17.6
	c-9.7,0-17.6,7.9-17.6,17.6c0,9.7,7.9,17.6,17.6,17.6c4.7,0,9.2-1.9,12.5-5.2C87.6,87.6,89.5,83.1,89.5,78.4z M122.5,129.1
	c-3.3,3.3-8.7,3.3-12,0L88,106.6c-15.5,8.9-35.4,3.5-44.3-12s-3.5-35.4,12-44.3s35.4-3.5,44.3,12c5.7,10,5.7,22.3,0,32.3l22.5,22.5
	C125.8,120.4,125.8,125.8,122.5,129.1L122.5,129.1z M119.7,119.9L96.1,96.3c-0.7-0.7-0.8-1.7-0.3-2.5c7.2-11.3,5.6-26-3.8-35.5
	c-11.1-11.1-29.1-11.1-40.2,0c-0.4,0.4-0.8,0.9-1.2,1.3c-10.4,11.8-9.2,29.8,2.6,40.1c9.5,8.4,23.4,9.4,34.1,2.6
	c0.8-0.5,1.8-0.4,2.5,0.3l23.6,23.6c1.8,1.7,4.7,1.6,6.3-0.3C121.3,124.3,121.3,121.6,119.7,119.9L119.7,119.9z"/>
<path class="st1" d="M50.9,258.9v15.2c0,1.1-0.9,2-2,2H27c-1.1,0-2-0.9-2-2v-64.1c0-1.1,0.9-2,2-2h10.9c1.1,0,2,0.9,2,2s-0.9,2-2,2
	H29v60.1h17.9v-13.2c0-1.1,0.9-2,2-2S50.9,257.8,50.9,258.9z M82.8,263.6c-1.1,0-2,0.9-2,2v6.5H62.9v-6.8c0-1.1-0.9-2-2-2
	s-2,0.9-2,2v8.8c0,1.1,0.9,2,2,2h21.9c1.1,0,2-0.9,2-2v-8.5C84.8,264.5,83.9,263.6,82.8,263.6C82.8,263.6,82.8,263.6,82.8,263.6z
	 M60.9,193.6c1.1,0,2-0.9,2-2v-18.6h17.9v18.6c0,1.1,0.9,2,2,2s2-0.9,2-2v-20.6c0-1.1-0.9-2-2-2H60.9c-1.1,0-2,0.9-2,2v20.6
	C58.9,192.7,59.8,193.6,60.9,193.6z M99.4,272.1h-2.7v-4c0-1.1-0.9-2-2-2s-2,0.9-2,2v6c0,1.1,0.9,2,2,2h4.7c1.1,0,2-0.9,2-2
	C101.4,273,100.5,272.1,99.4,272.1z M94.8,200.9c1.1,0,2-0.9,2-2v-10.5h17.9v66.3c0,1.1,0.9,2,2,2s2-0.9,2-2v-68.3c0-1.1-0.9-2-2-2
	H94.8c-1.1,0-2,0.9-2,2v12.5C92.8,200,93.6,200.9,94.8,200.9z M87.2,213.2c8.4,8.4,8.4,22.1,0,30.6c-4,4-9.5,6.3-15.2,6.3l0,0
	c-11.9,0-21.6-9.7-21.6-21.6c0-11.9,9.7-21.6,21.6-21.6C77.6,206.8,83.1,209.1,87.2,213.2z M89.5,228.5c0-9.7-7.9-17.6-17.6-17.6
	c-9.7,0-17.6,7.9-17.6,17.6c0,9.7,7.9,17.6,17.6,17.6c4.7,0,9.2-1.9,12.5-5.2C87.6,237.6,89.5,233.1,89.5,228.5z M122.5,279.1
	c-3.3,3.3-8.7,3.3-12,0L88,256.6c-15.5,8.9-35.4,3.5-44.3-12s-3.5-35.4,12-44.3c15.5-8.9,35.4-3.5,44.3,12c5.7,10,5.7,22.3,0,32.3
	l22.5,22.5C125.8,270.4,125.8,275.8,122.5,279.1L122.5,279.1z M119.7,269.9l-23.6-23.6c-0.7-0.7-0.8-1.7-0.3-2.5
	c7.2-11.3,5.6-26-3.8-35.5c-11.1-11.1-29.1-11.1-40.2,0c-0.4,0.4-0.8,0.9-1.2,1.3c-10.4,11.8-9.2,29.8,2.6,40.1
	c9.5,8.4,23.4,9.4,34.1,2.6c0.8-0.5,1.8-0.4,2.5,0.3l23.6,23.6c1.8,1.7,4.7,1.6,6.3-0.3C121.3,274.3,121.3,271.6,119.7,269.9
	L119.7,269.9z"/>
</svg>
