<?xml version="1.0" encoding="utf-8"?>
<!-- Generator: Adobe Illustrator 21.1.0, SVG Export Plug-In . SVG Version: 6.00 Build 0)  -->
<!DOCTYPE svg PUBLIC "-//W3C//DTD SVG 1.1//EN" "http://www.w3.org/Graphics/SVG/1.1/DTD/svg11.dtd">
<svg version="1.1" id="Layer_1" xmlns="http://www.w3.org/2000/svg" xmlns:xlink="http://www.w3.org/1999/xlink" x="0px" y="0px"
	 viewBox="0 0 150 150" style="enable-background:new 0 0 150 150;" xml:space="preserve">
<style type="text/css">
	.st0{fill:#FFFFFF;stroke:rgb(64, 64, 64);stroke-width:4;stroke-linecap:round;stroke-linejoin:round;stroke-miterlimit:10;}
	.st1{fill:none;stroke:rgb(64, 64, 64);stroke-width:4;stroke-linecap:round;stroke-linejoin:round;stroke-miterlimit:10;}
	.st2{fill:rgb(64, 64, 64);}
	.st3{fill:none;stroke:rgb(64, 64, 64);stroke-width:1.5;stroke-linecap:round;stroke-linejoin:round;stroke-miterlimit:10;}
	.st4{fill:none;stroke:rgb(64, 64, 64);stroke-width:2;stroke-linecap:round;stroke-linejoin:round;stroke-miterlimit:10;}
	.st5{fill:rgb(64, 64, 64);stroke:rgb(64, 64, 64);stroke-width:4;stroke-linecap:round;stroke-linejoin:round;stroke-miterlimit:10;}
	.st6{fill:none;stroke:rgb(64, 64, 64);stroke-width:4;stroke-linecap:round;stroke-linejoin:round;}
	.st7{fill:none;stroke:rgb(64, 64, 64);stroke-width:4;stroke-linecap:round;stroke-linejoin:round;stroke-dasharray:5.087364e-02,10.1747;}
	
		.st8{fill:none;stroke:rgb(64, 64, 64);stroke-width:4;stroke-linecap:round;stroke-linejoin:round;stroke-miterlimit:10;stroke-dasharray:5.000000e-02,10;}
	.st9{fill:none;stroke:rgb(64, 64, 64);stroke-width:4;stroke-linecap:round;stroke-linejoin:round;stroke-dasharray:5.565219e-02,11.1304;}
</style>
<g>
	<path class="st2" d="M28.5,96.3c-2.5,0-4.5-2-4.5-4.5V44.4c0-2.5,2-4.5,4.5-4.5h79.1c2.5,0,4.5,2,4.5,4.5c0,1.1,0.9,2,2,2
		s2-0.9,2-2c0-4.7-3.8-8.5-8.5-8.5H28.5c-4.7,0-8.5,3.8-8.5,8.5v47.4c0,4.7,3.8,8.5,8.5,8.5c1.1,0,2-0.9,2-2S29.6,96.3,28.5,96.3z"
		/>
	<path class="st2" d="M121.5,49.7H42.4c-4.7,0-8.5,3.8-8.5,8.5v47.4c0,4.7,3.8,8.5,8.5,8.5h79.1c4.7,0,8.5-3.8,8.5-8.5V58.2
		C130,53.5,126.2,49.7,121.5,49.7z M37.8,67.4H126v6.5H37.8V67.4z M42.4,53.7h79.1c2.5,0,4.5,2,4.5,4.5v5.1H37.8v-5.1
		C37.8,55.7,39.9,53.7,42.4,53.7z M121.5,110.2H42.4c-2.5,0-4.5-2-4.5-4.5V77.9H126v27.7C126,108.1,124,110.2,121.5,110.2z"/>
	<path class="st2" d="M49.7,92.1L49.7,92.1c-1.1,0-2,0.9-2,2s0.9,2,2,2s2-0.9,2-2S50.8,92.1,49.7,92.1z"/>
	<path class="st2" d="M60.9,92.1L60.9,92.1c-1.2,0-2,0.9-2,2s0.9,2,2,2s2-0.9,2-2S62,92.1,60.9,92.1z"/>
	<path class="st2" d="M72.1,92.1L72.1,92.1c-1.1,0-2,0.9-2,2s0.9,2,2,2s2-0.9,2-2S73.2,92.1,72.1,92.1z"/>
	<path class="st2" d="M109.8,85.7c-4.7,0-8.5,3.8-8.5,8.5c0,4.7,3.8,8.5,8.5,8.5s8.5-3.8,8.5-8.5C118.2,89.5,114.4,85.7,109.8,85.7z
		 M109.8,98.6c-2.5,0-4.5-2-4.5-4.5s2-4.5,4.5-4.5s4.5,2,4.5,4.5S112.2,98.6,109.8,98.6z"/>
</g>
</svg>
