<?xml version="1.0" encoding="utf-8"?>
<!-- Generator: Adobe Illustrator 21.1.0, SVG Export Plug-In . SVG Version: 6.00 Build 0)  -->
<!DOCTYPE svg PUBLIC "-//W3C//DTD SVG 1.1//EN" "http://www.w3.org/Graphics/SVG/1.1/DTD/svg11.dtd">
<svg version="1.1" id="Layer_1" xmlns="http://www.w3.org/2000/svg" xmlns:xlink="http://www.w3.org/1999/xlink" x="0px" y="0px"
	 viewBox="0 0 150 150" style="enable-background:new 0 0 150 150;" xml:space="preserve">
<style type="text/css">
	.st0{fill:#FFFFFF;stroke:rgb(64, 64, 64);stroke-width:4;stroke-linecap:round;stroke-linejoin:round;stroke-miterlimit:10;}
	.st1{fill:none;stroke:rgb(64, 64, 64);stroke-width:4;stroke-linecap:round;stroke-linejoin:round;stroke-miterlimit:10;}
	.st2{fill:rgb(64, 64, 64);}
	.st3{fill:none;stroke:rgb(64, 64, 64);stroke-width:1.5;stroke-linecap:round;stroke-linejoin:round;stroke-miterlimit:10;}
	.st4{fill:none;stroke:rgb(64, 64, 64);stroke-width:2;stroke-linecap:round;stroke-linejoin:round;stroke-miterlimit:10;}
	.st5{fill:rgb(64, 64, 64);stroke:rgb(64, 64, 64);stroke-width:4;stroke-linecap:round;stroke-linejoin:round;stroke-miterlimit:10;}
	.st6{fill:none;stroke:rgb(64, 64, 64);stroke-width:4;stroke-linecap:round;stroke-linejoin:round;}
	.st7{fill:none;stroke:rgb(64, 64, 64);stroke-width:4;stroke-linecap:round;stroke-linejoin:round;stroke-dasharray:5.087364e-02,10.1747;}
	
		.st8{fill:none;stroke:rgb(64, 64, 64);stroke-width:4;stroke-linecap:round;stroke-linejoin:round;stroke-miterlimit:10;stroke-dasharray:5.000000e-02,10;}
	.st9{fill:none;stroke:rgb(64, 64, 64);stroke-width:4;stroke-linecap:round;stroke-linejoin:round;stroke-dasharray:5.565219e-02,11.1304;}
</style>
<g>
	<path class="st2" d="M132,53.3H27c-1.1,0-2,0.9-2,2v47.9c0,1.1,0.9,2,2,2H132c1.1,0,2-0.9,2-2V55.3C134,54.2,133.1,53.3,132,53.3z
		 M130,101.2H29V57.3H130V101.2z"/>
	<path class="st2" d="M125,46.8c0-1.1-0.9-2-2-2H18c-1.1,0-2,0.9-2,2v47.9c0,1.1,0.9,2,2,2s2-0.9,2-2V48.8H123
		C124.1,48.8,125,47.9,125,46.8z"/>
	<path class="st2" d="M82.4,83.3h-8.8c-1.1,0-2,0.9-2,2s0.9,2,2,2h3.9v1.3c0,1.1,0.9,2,2,2s2-0.9,2-2v-1.3h0.9c2.8,0,5-2.2,5-5
		s-2.2-5-5-5h-5.8c-0.5,0-1-0.4-1-1v-0.1c0-0.5,0.4-1,1-1h8.8c1.1,0,2-0.9,2-2s-0.9-2-2-2h-3.9v-1.3c0-1.1-0.9-2-2-2s-2,0.9-2,2v1.3
		h-0.9c-2.8,0-5,2.2-5,5v0.1c0,2.8,2.2,5,5,5h5.8c0.5,0,1,0.4,1,1S83,83.3,82.4,83.3z"/>
	<path class="st2" d="M33.5,69.2c0.5,0,1-0.2,1.4-0.6l5.3-5.3c0.8-0.8,0.8-2,0-2.8s-2-0.8-2.8,0l-5.3,5.3c-0.8,0.8-0.8,2,0,2.8
		C32.5,69,33,69.2,33.5,69.2z"/>
	<path class="st2" d="M124.1,68.6c0.4,0.4,0.9,0.6,1.4,0.6s1-0.2,1.4-0.6c0.8-0.8,0.8-2,0-2.8l-5.3-5.3c-0.8-0.8-2-0.8-2.8,0
		s-0.8,2,0,2.8L124.1,68.6z"/>
	<path class="st2" d="M37.3,98c0.4,0.4,0.9,0.6,1.4,0.6s1-0.2,1.4-0.6c0.8-0.8,0.8-2,0-2.8l-5.3-5.3c-0.8-0.8-2-0.8-2.8,0
		s-0.8,2,0,2.8L37.3,98z"/>
	<path class="st2" d="M119.7,98.5c0.5,0,1-0.2,1.4-0.6l5.3-5.3c0.8-0.8,0.8-2,0-2.8s-2-0.8-2.8,0l-5.3,5.3c-0.8,0.8-0.8,2,0,2.8
		C118.7,98.3,119.2,98.5,119.7,98.5z"/>
	<path class="st2" d="M79.5,98.6c10.7,0,19.3-8.7,19.3-19.3S90.2,60,79.5,60s-19.3,8.7-19.3,19.3S68.9,98.6,79.5,98.6z M79.5,64
		c8.5,0,15.3,6.9,15.3,15.3S88,94.6,79.5,94.6s-15.3-6.9-15.3-15.3S71.1,64,79.5,64z"/>
</g>
</svg>
