<?xml version="1.0" encoding="utf-8"?>
<!-- Generator: Adobe Illustrator 21.1.0, SVG Export Plug-In . SVG Version: 6.00 Build 0)  -->
<svg version="1.1" id="Layer_1" xmlns="http://www.w3.org/2000/svg" xmlns:xlink="http://www.w3.org/1999/xlink" x="0px" y="0px"
	 viewBox="0 0 150 300" style="enable-background:new 0 0 150 300;" xml:space="preserve">
<style type="text/css">
	.st0{fill:rgb(64, 64, 64);}
	.st1{fill:#FFFFFF;}
</style>
<g>
	<path class="st0" d="M75,25.8c-27.1,0-49.2,22.1-49.2,49.2s22.1,49.2,49.2,49.2s49.2-22.1,49.2-49.2S102.1,25.8,75,25.8z M75,120.2
		c-24.9,0-45.2-20.3-45.2-45.2S50.1,29.8,75,29.8s45.2,20.3,45.2,45.2S99.9,120.2,75,120.2z"/>
	<path class="st0" d="M65.5,57.1h28.9c1.1,0,2-0.9,2-2s-0.9-2-2-2H76.9v-8.9c0-1.1-0.9-2-2-2s-2,0.9-2,2v8.9h-7.5
		c-6.5,0-11.8,5.3-11.8,11.8v0.5c0,6.5,5.3,11.8,11.8,11.8h19.1c4.3,0,7.8,3.5,7.8,7.8s-3.5,7.8-7.8,7.8H55.6c-1.1,0-2,0.9-2,2
		s0.9,2,2,2h17.3v8.9c0,1.1,0.9,2,2,2s2-0.9,2-2v-8.9h7.6c6.5,0,11.8-5.3,11.8-11.8S91,73.2,84.5,73.2h-19c-4.3,0-7.8-3.5-7.8-7.8
		v-0.5C57.6,60.6,61.1,57.1,65.5,57.1z"/>
</g>
<g>
	<path class="st1" d="M75,175.8c-27.1,0-49.2,22.1-49.2,49.2s22.1,49.2,49.2,49.2s49.2-22.1,49.2-49.2S102.1,175.8,75,175.8z
		 M75,270.2c-24.9,0-45.2-20.3-45.2-45.2s20.3-45.2,45.2-45.2s45.2,20.3,45.2,45.2S99.9,270.2,75,270.2z"/>
	<path class="st1" d="M65.5,207.1h28.9c1.1,0,2-0.9,2-2c0-1.1-0.9-2-2-2H76.9v-8.9c0-1.1-0.9-2-2-2s-2,0.9-2,2v8.9h-7.5
		c-6.5,0-11.8,5.3-11.8,11.8v0.5c0,6.5,5.3,11.8,11.8,11.8h19.1c4.3,0,7.8,3.5,7.8,7.8s-3.5,7.8-7.8,7.8H55.6c-1.1,0-2,0.9-2,2
		c0,1.1,0.9,2,2,2h17.3v8.9c0,1.1,0.9,2,2,2s2-0.9,2-2v-8.9h7.6c6.5,0,11.8-5.3,11.8-11.8s-5.3-11.8-11.8-11.8h-19
		c-4.3,0-7.8-3.5-7.8-7.8v-0.5C57.6,210.6,61.1,207.1,65.5,207.1z"/>
</g>
</svg>
