<?xml version="1.0" encoding="utf-8"?>
<!-- Generator: Adobe Illustrator 21.1.0, SVG Export Plug-In . SVG Version: 6.00 Build 0)  -->
<!DOCTYPE svg PUBLIC "-//W3C//DTD SVG 1.1//EN" "http://www.w3.org/Graphics/SVG/1.1/DTD/svg11.dtd">
<svg version="1.1" id="Layer_1" xmlns="http://www.w3.org/2000/svg" xmlns:xlink="http://www.w3.org/1999/xlink" x="0px" y="0px"
	 viewBox="0 0 150 150" style="enable-background:new 0 0 150 150;" xml:space="preserve">
<style type="text/css">
	.st0{fill:#FFFFFF;stroke:rgb(64, 64, 64);stroke-width:4;stroke-linecap:round;stroke-linejoin:round;stroke-miterlimit:10;}
	.st1{fill:none;stroke:rgb(64, 64, 64);stroke-width:4;stroke-linecap:round;stroke-linejoin:round;stroke-miterlimit:10;}
	.st2{fill:rgb(64, 64, 64);}
	.st3{fill:none;stroke:rgb(64, 64, 64);stroke-width:1.5;stroke-linecap:round;stroke-linejoin:round;stroke-miterlimit:10;}
	.st4{fill:none;stroke:rgb(64, 64, 64);stroke-width:2;stroke-linecap:round;stroke-linejoin:round;stroke-miterlimit:10;}
	.st5{fill:rgb(64, 64, 64);stroke:rgb(64, 64, 64);stroke-width:4;stroke-linecap:round;stroke-linejoin:round;stroke-miterlimit:10;}
	.st6{fill:none;stroke:rgb(64, 64, 64);stroke-width:4;stroke-linecap:round;stroke-linejoin:round;}
	.st7{fill:none;stroke:rgb(64, 64, 64);stroke-width:4;stroke-linecap:round;stroke-linejoin:round;stroke-dasharray:5.087364e-02,10.1747;}
	
		.st8{fill:none;stroke:rgb(64, 64, 64);stroke-width:4;stroke-linecap:round;stroke-linejoin:round;stroke-miterlimit:10;stroke-dasharray:5.000000e-02,10;}
	.st9{fill:none;stroke:rgb(64, 64, 64);stroke-width:4;stroke-linecap:round;stroke-linejoin:round;stroke-dasharray:5.565219e-02,11.1304;}
</style>
<g>
	<path class="st2" d="M132.3,74.1l-47-47c-0.8-0.8-2-0.8-2.8,0L63.4,46.2c-0.8,0.8-0.8,2,0,2.8s2,0.8,2.8,0l17.7-17.7l45.6,45.6
		c0.4,0.4,0.9,0.6,1.4,0.6s1-0.2,1.4-0.6C133.1,76.1,133.1,74.9,132.3,74.1z"/>
	<path class="st2" d="M117.7,71.7c-1.1,0-2,0.9-2,2v46.9H50.1c-1.1,0-2,0.9-2,2s0.9,2,2,2h67.6c1.1,0,2-0.9,2-2V73.7
		C119.7,72.6,118.8,71.7,117.7,71.7z"/>
	<path class="st2" d="M101,37.1c1.1,0,2-0.9,2-2v-5.6h7.2v16.9c0,1.1,0.9,2,2,2s2-0.9,2-2V27.5c0-1.1-0.9-2-2-2H101
		c-1.1,0-2,0.9-2,2v7.6C99,36.2,99.9,37.1,101,37.1z"/>
	<path class="st2" d="M83.1,83.7c0-18.2-14.8-33-33-33s-33,14.8-33,33s14.8,33,33,33S83.1,101.9,83.1,83.7z M21.1,83.7
		c0-16,13-29,29-29s29,13,29,29s-13,29-29,29S21.1,99.7,21.1,83.7z"/>
	<path class="st2" d="M52,104v-5.2h4.3c4.7,0,8.5-3.8,8.5-8.5s-3.8-8.5-8.5-8.5H43.8c-2.5,0-4.5-2-4.5-4.5v-0.3c0-2.5,2-4.5,4.5-4.5
		h19c1.1,0,2-0.9,2-2s-0.9-2-2-2H52v-5.2c0-1.1-0.9-2-2-2s-2,0.9-2,2v5.2h-4.2c-4.7,0-8.5,3.8-8.5,8.5v0.3c0,4.7,3.8,8.5,8.5,8.5
		h12.5c2.5,0,4.5,2,4.5,4.5c0,2.5-2,4.5-4.5,4.5h-19c-1.1,0-2,0.9-2,2s0.9,2,2,2H48v5.2c0,1.1,0.9,2,2,2S52,105.1,52,104z"/>
</g>
</svg>
