<?xml version="1.0" encoding="utf-8"?>
<!-- Generator: Adobe Illustrator 21.1.0, SVG Export Plug-In . SVG Version: 6.00 Build 0)  -->
<!DOCTYPE svg PUBLIC "-//W3C//DTD SVG 1.1//EN" "http://www.w3.org/Graphics/SVG/1.1/DTD/svg11.dtd">
<svg version="1.1" id="Layer_1" xmlns="http://www.w3.org/2000/svg" xmlns:xlink="http://www.w3.org/1999/xlink" x="0px" y="0px"
	 viewBox="0 0 150 150" style="enable-background:new 0 0 150 150;" xml:space="preserve">
<style type="text/css">
	.st0{fill:#FFFFFF;stroke:#414042;stroke-width:4;stroke-linecap:round;stroke-linejoin:round;stroke-miterlimit:10;}
	.st1{fill:none;stroke:#414042;stroke-width:4;stroke-linecap:round;stroke-linejoin:round;stroke-miterlimit:10;}
	.st2{fill:#414042;}
	.st3{fill:none;stroke:#414042;stroke-width:1.5;stroke-linecap:round;stroke-linejoin:round;stroke-miterlimit:10;}
	.st4{fill:none;stroke:#414042;stroke-width:2;stroke-linecap:round;stroke-linejoin:round;stroke-miterlimit:10;}
	.st5{fill:#414042;stroke:#414042;stroke-width:4;stroke-linecap:round;stroke-linejoin:round;stroke-miterlimit:10;}
	.st6{fill:none;stroke:#414042;stroke-width:4;stroke-linecap:round;stroke-linejoin:round;}
	.st7{fill:none;stroke:#414042;stroke-width:4;stroke-linecap:round;stroke-linejoin:round;stroke-dasharray:5.087364e-02,10.1747;}
	
		.st8{fill:none;stroke:#414042;stroke-width:4;stroke-linecap:round;stroke-linejoin:round;stroke-miterlimit:10;stroke-dasharray:5.000000e-02,10;}
	.st9{fill:none;stroke:#414042;stroke-width:4;stroke-linecap:round;stroke-linejoin:round;stroke-dasharray:5.565219e-02,11.1304;}
</style>
<g>
	<path class="st2" d="M125.4,74.1l-49-49c-0.8-0.8-2.1-0.8-2.8,0l-49,49c-0.8,0.8-0.8,2,0,2.8c0.4,0.4,0.9,0.6,1.4,0.6
		s1-0.2,1.4-0.6L75,29.3l47.6,47.6c0.8,0.8,2,0.8,2.8,0S126.2,74.9,125.4,74.1z"/>
	<path class="st2" d="M110.3,71.6c-1.1,0-2,0.9-2,2v49H87.8V86.5c0-1.1-0.9-2-2-2H64.2c-1.1,0-2,0.9-2,2v36.1H41.7v-49
		c0-1.1-0.9-2-2-2s-2,0.9-2,2v51c0,1.1,0.9,2,2,2h70.5c1.1,0,2-0.9,2-2v-51C112.3,72.5,111.4,71.6,110.3,71.6z M66.2,88.5h17.5v34.1
		H66.2V88.5z"/>
	<path class="st2" d="M92.8,35.4c1.1,0,2-0.9,2-2v-6h7.7v17.7c0,1.1,0.9,2,2,2s2-0.9,2-2V25.4c0-1.1-0.9-2-2-2H92.8
		c-1.1,0-2,0.9-2,2v8C90.8,34.5,91.7,35.4,92.8,35.4z"/>
</g>
</svg>
