<?xml version="1.0" encoding="utf-8"?>
<!-- Generator: Adobe Illustrator 21.1.0, SVG Export Plug-In . SVG Version: 6.00 Build 0)  -->
<svg version="1.1" id="Layer_1" xmlns="http://www.w3.org/2000/svg" xmlns:xlink="http://www.w3.org/1999/xlink" x="0px" y="0px"
	 viewBox="0 0 150 300" style="enable-background:new 0 0 150 300;" xml:space="preserve">
<style type="text/css">
	.st0{fill:rgb(64, 64, 64);}
	.st1{fill:#FFFFFF;}
</style>
<title>Artboard 2 copy 18</title>
<g>
	<path class="st0" d="M37.8,110.9h-3V27.8h59.2v2.7c0,1.1,0.9,2,2,2s2-0.9,2-2v-4.7c0-1.1-0.9-2-2-2H32.8c-1.1,0-2,0.9-2,2v87.1
		c0,1.1,0.9,2,2,2h5c1.1,0,2-0.9,2-2S39,110.9,37.8,110.9L37.8,110.9z"/>
	<path class="st0" d="M107.3,86.5c-1.1,0-2,0.9-2,2v33.7H46.2V39.1h59.2v12.2c0,1.1,0.9,2,2,2s2-0.9,2-2V37.1c0-1.1-0.9-2-2-2H44.2
		c-1.1,0-2,0.9-2,2v87.1c0,1.1,0.9,2,2,2h63.2c1.1,0,2-0.9,2-2V88.5C109.3,87.4,108.4,86.5,107.3,86.5z"/>
	<path class="st0" d="M117.1,59.6c-2.9-2.9-7.5-2.9-10.4,0l-1.1,1.1c-2.9-1.8-6.6-1.4-9,1L82.8,75.5c-0.8,0.8-0.8,2,0,2.8
		s2,0.8,2.8,0l13.8-13.8c0.8-0.8,2-1.1,3.2-0.8L67.2,99c-0.2,0.2-0.4,0.5-0.5,0.8L63.2,111c-0.3,1.1,0.2,2.2,1.3,2.5
		c0.4,0.1,0.8,0.1,1.2,0l11.2-3.6c0.3-0.1,0.6-0.3,0.8-0.5l39.4-39.5C119.8,67.1,119.8,62.5,117.1,59.6z M114.2,62.4
		c1.3,1.3,1.3,3.4,0,4.7l0,0l-1,1l-4.7-4.7l1-1C110.8,61.1,112.8,61.1,114.2,62.4L114.2,62.4L114.2,62.4z M75.2,106.3l-7,2.3l2.3-7
		l35.3-35.3l4.7,4.7L75.2,106.3z"/>
</g>
<g>
	<path class="st1" d="M37.8,260.9h-3v-83.1h59.2v2.7c0,1.1,0.9,2,2,2s2-0.9,2-2v-4.7c0-1.1-0.9-2-2-2H32.8c-1.1,0-2,0.9-2,2v87.1
		c0,1.1,0.9,2,2,2h5c1.1,0,2-0.9,2-2S39,260.9,37.8,260.9L37.8,260.9z"/>
	<path class="st1" d="M107.3,236.5c-1.1,0-2,0.9-2,2v33.7H46.2v-83.1h59.2v12.2c0,1.1,0.9,2,2,2s2-0.9,2-2v-14.2c0-1.1-0.9-2-2-2
		H44.2c-1.1,0-2,0.9-2,2v87.1c0,1.1,0.9,2,2,2h63.2c1.1,0,2-0.9,2-2v-35.7C109.3,237.4,108.4,236.5,107.3,236.5z"/>
	<path class="st1" d="M117.1,209.6c-2.9-2.9-7.5-2.9-10.4,0l-1.1,1.1c-2.9-1.8-6.6-1.4-9,1l-13.8,13.8c-0.8,0.8-0.8,2,0,2.8
		s2,0.8,2.8,0l13.8-13.8c0.8-0.8,2-1.1,3.2-0.8L67.2,249c-0.2,0.2-0.4,0.5-0.5,0.8L63.2,261c-0.3,1.1,0.2,2.2,1.3,2.5
		c0.4,0.1,0.8,0.1,1.2,0l11.2-3.6c0.3-0.1,0.6-0.3,0.8-0.5l39.4-39.5C119.8,217.1,119.8,212.5,117.1,209.6z M114.2,212.4
		c1.3,1.3,1.3,3.4,0,4.7l0,0l-1,1l-4.7-4.7l1-1C110.8,211.1,112.8,211.1,114.2,212.4L114.2,212.4L114.2,212.4z M75.2,256.3l-7,2.3
		l2.3-7l35.3-35.3l4.7,4.7L75.2,256.3z"/>
</g>
</svg>
