<?xml version="1.0" encoding="utf-8"?>
<!-- Generator: Adobe Illustrator 21.1.0, SVG Export Plug-In . SVG Version: 6.00 Build 0)  -->
<!DOCTYPE svg PUBLIC "-//W3C//DTD SVG 1.1//EN" "http://www.w3.org/Graphics/SVG/1.1/DTD/svg11.dtd">
<svg version="1.1" id="Layer_1" xmlns="http://www.w3.org/2000/svg" xmlns:xlink="http://www.w3.org/1999/xlink" x="0px" y="0px"
	 viewBox="0 0 150 150" style="enable-background:new 0 0 150 150;" xml:space="preserve">
<style type="text/css">
	.st0{fill:#FFFFFF;stroke:rgb(64, 64, 64);stroke-width:4;stroke-linecap:round;stroke-linejoin:round;stroke-miterlimit:10;}
	.st1{fill:none;stroke:rgb(64, 64, 64);stroke-width:4;stroke-linecap:round;stroke-linejoin:round;stroke-miterlimit:10;}
	.st2{fill:rgb(64, 64, 64);}
	.st3{fill:none;stroke:rgb(64, 64, 64);stroke-width:1.5;stroke-linecap:round;stroke-linejoin:round;stroke-miterlimit:10;}
	.st4{fill:none;stroke:rgb(64, 64, 64);stroke-width:2;stroke-linecap:round;stroke-linejoin:round;stroke-miterlimit:10;}
	.st5{fill:rgb(64, 64, 64);stroke:rgb(64, 64, 64);stroke-width:4;stroke-linecap:round;stroke-linejoin:round;stroke-miterlimit:10;}
	.st6{fill:none;stroke:rgb(64, 64, 64);stroke-width:4;stroke-linecap:round;stroke-linejoin:round;}
	.st7{fill:none;stroke:rgb(64, 64, 64);stroke-width:4;stroke-linecap:round;stroke-linejoin:round;stroke-dasharray:5.087364e-02,10.1747;}
	
		.st8{fill:none;stroke:rgb(64, 64, 64);stroke-width:4;stroke-linecap:round;stroke-linejoin:round;stroke-miterlimit:10;stroke-dasharray:5.000000e-02,10;}
	.st9{fill:none;stroke:rgb(64, 64, 64);stroke-width:4;stroke-linecap:round;stroke-linejoin:round;stroke-dasharray:5.565219e-02,11.1304;}
</style>
<path class="st2" d="M78.1,83.3c1.5,0,3-0.1,4.5-0.4c1.4,0.2,2.9,0.4,4.4,0.4c15.6,0,28.3-12.7,28.3-28.3S102.6,26.8,87,26.8
	c-1.5,0-3,0.1-4.5,0.4c-1.5-0.2-3-0.4-4.5-0.4c-15.6,0-28.3,12.7-28.3,28.3S62.5,83.3,78.1,83.3z M111.3,55.1
	c0,10.9-7.2,20.1-17,23.1c7.3-5.1,12.1-13.6,12.1-23.1c0-9.6-4.8-18-12.1-23.2C104.1,35,111.3,44.2,111.3,55.1z M78.1,30.8
	c13.4,0,24.3,10.9,24.3,24.3S91.5,79.3,78.1,79.3S53.8,68.4,53.8,55.1S64.7,30.8,78.1,30.8z M85,59.7c0-1.4-1.1-2.5-2.5-2.5h-8.8
	c-3.6,0-6.5-2.9-6.5-6.5v-0.2c0-3.6,2.9-6.5,6.5-6.5h2.4v-3c0-1.1,0.9-2,2-2s2,0.9,2,2v3h7c1.1,0,2,0.9,2,2s-0.9,2-2,2H73.7
	c-1.4,0-2.5,1.1-2.5,2.5v0.2c0,1.4,1.1,2.5,2.5,2.5h8.8c3.6,0,6.5,2.9,6.5,6.5s-2.9,6.5-6.5,6.5h-2.4v3c0,1.1-0.9,2-2,2s-2-0.9-2-2
	v-3h-6.9c-1.1,0-2-0.9-2-2s0.9-2,2-2h13.3C83.9,62.2,85,61.1,85,59.7z M132.7,98.9c-1.2-3.5-4.8-5.7-8.5-5l-40.4,7.7l-3.1-1.2
	c0.1-0.3,0.2-0.7,0.3-1.1c0.4-1.9,0-3.9-1.1-5.6s-2.8-2.7-4.8-3l-33.9-5.5c-0.1,0-0.1,0-0.2,0c0,0-0.1,0-0.1,0c-0.2,0-0.4,0-0.6,0.1
	c0,0,0,0,0,0l-22,6.6c-1,0.3-1.6,1.2-1.4,2.2l3.7,22.8c0.1,0.5,0.4,1,0.8,1.3c0.4,0.3,1,0.4,1.5,0.3l17.9-3.7l37.4,8.1
	c0.1,0,0.3,0,0.4,0c0.2,0,0.4,0,0.6-0.1l48.5-14.7c1.9-0.6,3.5-1.9,4.4-3.7C133.2,102.9,133.3,100.9,132.7,98.9z M128.7,102.9
	c-0.4,0.8-1.2,1.4-2.1,1.7l-48,14.6l-37.3-8.1c-0.1,0-0.3,0-0.4,0c-0.1,0-0.3,0-0.4,0l-16.3,3.3l-3.1-19.1l19.7-5.9l1.4,0.5L42,89.5
	l32.5,5.3c0.9,0.1,1.6,0.6,2.1,1.4c0.5,0.7,0.7,1.6,0.5,2.5c-0.3,1.6-1.8,2.7-3.4,2.6l-25.8-1.8c-1.1-0.1-2.1,0.8-2.1,1.9
	c-0.1,1.1,0.8,2.1,1.9,2.1l25.8,1.8c0.2,0,0.3,0,0.5,0c1.6,0,3-0.5,4.2-1.4l4.7,1.8c0.3,0.1,0.7,0.2,1.1,0.1l41-7.8
	c1.7-0.3,3.4,0.7,3.9,2.3C129.2,101.1,129.1,102,128.7,102.9z"/>
</svg>
