<?xml version="1.0" encoding="utf-8"?>
<!-- Generator: Adobe Illustrator 21.1.0, SVG Export Plug-In . SVG Version: 6.00 Build 0)  -->
<!DOCTYPE svg PUBLIC "-//W3C//DTD SVG 1.1//EN" "http://www.w3.org/Graphics/SVG/1.1/DTD/svg11.dtd">
<svg version="1.1" id="Layer_1" xmlns="http://www.w3.org/2000/svg" xmlns:xlink="http://www.w3.org/1999/xlink" x="0px" y="0px"
	 viewBox="0 0 150 150" style="enable-background:new 0 0 150 150;" xml:space="preserve">
<style type="text/css">
	.st0{fill:#FFFFFF;stroke:rgb(64, 64, 64);stroke-width:4;stroke-linecap:round;stroke-linejoin:round;stroke-miterlimit:10;}
	.st1{fill:none;stroke:rgb(64, 64, 64);stroke-width:4;stroke-linecap:round;stroke-linejoin:round;stroke-miterlimit:10;}
	.st2{fill:rgb(64, 64, 64);}
	.st3{fill:none;stroke:rgb(64, 64, 64);stroke-width:1.5;stroke-linecap:round;stroke-linejoin:round;stroke-miterlimit:10;}
	.st4{fill:none;stroke:rgb(64, 64, 64);stroke-width:2;stroke-linecap:round;stroke-linejoin:round;stroke-miterlimit:10;}
	.st5{fill:rgb(64, 64, 64);stroke:rgb(64, 64, 64);stroke-width:4;stroke-linecap:round;stroke-linejoin:round;stroke-miterlimit:10;}
	.st6{fill:none;stroke:rgb(64, 64, 64);stroke-width:4;stroke-linecap:round;stroke-linejoin:round;}
	.st7{fill:none;stroke:rgb(64, 64, 64);stroke-width:4;stroke-linecap:round;stroke-linejoin:round;stroke-dasharray:5.087364e-02,10.1747;}
	
		.st8{fill:none;stroke:rgb(64, 64, 64);stroke-width:4;stroke-linecap:round;stroke-linejoin:round;stroke-miterlimit:10;stroke-dasharray:5.000000e-02,10;}
	.st9{fill:none;stroke:rgb(64, 64, 64);stroke-width:4;stroke-linecap:round;stroke-linejoin:round;stroke-dasharray:5.565219e-02,11.1304;}
</style>
<g>
	<path class="st2" d="M44.7,49.2c0.2,0,0.5,0,0.7-0.1l48.7-19.6l7.1,17.7c0.4,1,1.6,1.5,2.6,1.1c1-0.4,1.5-1.6,1.1-2.6l-7.9-19.6
		c-0.4-1-1.6-1.5-2.6-1.1L44,45.4c-1,0.4-1.5,1.6-1.1,2.6C43.2,48.8,43.9,49.2,44.7,49.2z"/>
	<path class="st2" d="M123,75.1h-4.9V58.6c0-4-3.2-7.2-7.2-7.2H32.2c-4,0-7.2,3.2-7.2,7.2v59.4c0,4,3.2,7.2,7.2,7.2h78.7
		c4,0,7.2-3.2,7.2-7.2v-16.6h4.9c1.1,0,2-0.9,2-2V77.1C125,76,124.1,75.1,123,75.1z M114.1,117.9c0,1.8-1.4,3.2-3.2,3.2H32.2
		c-1.8,0-3.2-1.4-3.2-3.2V58.6c0-1.8,1.4-3.2,3.2-3.2h78.7c1.8,0,3.2,1.4,3.2,3.2v16.6h-29c-6.3,0-11.5,5.1-11.5,11.5v3.3
		c0,6.3,5.1,11.5,11.5,11.5h29V117.9z M121,97.4H85.1c-4.1,0-7.5-3.4-7.5-7.5v-3.3c0-4.1,3.4-7.5,7.5-7.5H121V97.4z"/>
	<path class="st2" d="M87.4,90.2c1.1,0,2-0.9,2-2s-0.9-2-2-2h0c-1.1,0-2,0.9-2,2S86.3,90.2,87.4,90.2z"/>
</g>
</svg>
