<svg xmlns="http://www.w3.org/2000/svg" xmlns:xlink="http://www.w3.org/1999/xlink" viewBox="0 0 163.12 103.41"><defs><style>.cls-1{isolation:isolate;}.cls-2{fill:url(#linear-gradient);}.cls-3{opacity:0.5;fill:url(#linear-gradient-2);}.cls-4{fill:url(#linear-gradient-3);}.cls-5{fill:url(#linear-gradient-4);}.cls-10,.cls-11,.cls-6,.cls-7{fill:none;stroke-miterlimit:10;}.cls-6{stroke:url(#linear-gradient-5);}.cls-7{stroke:url(#linear-gradient-6);}.cls-8{fill:url(#linear-gradient-7);}.cls-9{fill:url(#linear-gradient-8);}.cls-10{stroke:url(#linear-gradient-9);}.cls-11{stroke:url(#linear-gradient-10);}.cls-12{fill:url(#linear-gradient-11);}.cls-13{fill:url(#linear-gradient-12);}.cls-14{opacity:0.35;mix-blend-mode:color-burn;fill:url(#linear-gradient-13);}.cls-15{fill:url(#linear-gradient-14);}.cls-16{fill:url(#linear-gradient-15);}</style><linearGradient id="linear-gradient" x1="35.51" y1="-36.04" x2="102.51" y2="91.63" gradientUnits="userSpaceOnUse"><stop offset="0" stop-color="#fff33b"/><stop offset="0.04" stop-color="#fee72e"/><stop offset="0.12" stop-color="#fed51b"/><stop offset="0.2" stop-color="#fdca10"/><stop offset="0.28" stop-color="#fdc70c"/><stop offset="0.37" stop-color="#fab61c"/><stop offset="0.53" stop-color="#f59a35"/><stop offset="0.62" stop-color="#f3903f"/><stop offset="0.84" stop-color="#ed683c"/><stop offset="0.94" stop-color="#ea4b3b"/><stop offset="1" stop-color="#e93e3a"/></linearGradient><linearGradient id="linear-gradient-2" x1="137.78" y1="-11.28" x2="77.2" y2="106.06" xlink:href="#linear-gradient"/><linearGradient id="linear-gradient-3" x1="-3.95" y1="-6.03" x2="69.49" y2="30.86" gradientUnits="userSpaceOnUse"><stop offset="0.1" stop-color="#6f7173"/><stop offset="0.62" stop-color="#737577"/><stop offset="0.72" stop-color="#626264"/><stop offset="0.92" stop-color="#353234"/><stop offset="1" stop-color="#231f20"/></linearGradient><linearGradient id="linear-gradient-4" x1="22.65" y1="23.59" x2="34.83" y2="68.38" gradientUnits="userSpaceOnUse"><stop offset="0.1" stop-color="#6f7173"/><stop offset="0.12" stop-color="#787a7c"/><stop offset="0.24" stop-color="#b2b3b4"/><stop offset="0.35" stop-color="#dcdcdd"/><stop offset="0.43" stop-color="#f5f6f6"/><stop offset="0.48" stop-color="#fff"/><stop offset="0.54" stop-color="#ececec"/><stop offset="0.67" stop-color="#bcbbbb"/><stop offset="0.84" stop-color="#706d6e"/><stop offset="1" stop-color="#231f20"/></linearGradient><linearGradient id="linear-gradient-5" x1="-223.5" y1="318.72" x2="-217.13" y2="342.16" gradientTransform="translate(359.6 262.66) rotate(90)" xlink:href="#linear-gradient-4"/><linearGradient id="linear-gradient-6" x1="-211.05" y1="318.72" x2="-204.68" y2="342.16" gradientTransform="translate(359.6 262.66) rotate(90)" xlink:href="#linear-gradient-4"/><linearGradient id="linear-gradient-7" x1="12.05" y1="47.53" x2="25.88" y2="49.53" xlink:href="#linear-gradient-4"/><linearGradient id="linear-gradient-8" x1="-212.11" y1="322.88" x2="-201.77" y2="328.71" gradientTransform="translate(359.6 262.66) rotate(90)" xlink:href="#linear-gradient-4"/><linearGradient id="linear-gradient-9" x1="20.74" y1="37.08" x2="26.42" y2="57.94" xlink:href="#linear-gradient-4"/><linearGradient id="linear-gradient-10" x1="31.08" y1="37.08" x2="36.75" y2="57.94" xlink:href="#linear-gradient-4"/><linearGradient id="linear-gradient-11" x1="75.68" y1="57.1" x2="75.67" y2="85.41" xlink:href="#linear-gradient-4"/><linearGradient id="linear-gradient-12" x1="54.4" y1="73.09" x2="54.35" y2="98.46" xlink:href="#linear-gradient-4"/><linearGradient id="linear-gradient-13" x1="65.04" y1="39.66" x2="158.8" y2="79.83" gradientUnits="userSpaceOnUse"><stop offset="0.1" stop-color="#6f7173"/><stop offset="0.12" stop-color="#787a7c"/><stop offset="0.29" stop-color="#b2b3b4"/><stop offset="0.44" stop-color="#dcdcdd"/><stop offset="0.55" stop-color="#f5f6f6"/><stop offset="0.62" stop-color="#fff"/><stop offset="0.66" stop-color="#ececec"/><stop offset="0.75" stop-color="#bcbbbb"/><stop offset="0.88" stop-color="#706d6e"/><stop offset="1" stop-color="#231f20"/></linearGradient><linearGradient id="linear-gradient-14" x1="140.92" y1="54.3" x2="140.8" y2="115.76" xlink:href="#linear-gradient-4"/><linearGradient id="linear-gradient-15" x1="125.87" y1="85.01" x2="152.45" y2="91.36" xlink:href="#linear-gradient-3"/></defs><title>Card-Standard</title><g class="cls-1"><g id="Layer_1" data-name="Layer 1"><rect class="cls-2" x="0.77" y="0.8" width="161.59" height="101.82" rx="5.68" ry="5.68"/><path class="cls-3" d="M156.67,102.62H6.45A5.68,5.68,0,0,1,.77,96.94s43.83-37.47,88-64.14c32.88-19.86,67.93-32,67.93-32a5.68,5.68,0,0,1,5.68,5.68V96.94A5.68,5.68,0,0,1,156.67,102.62Z"/><path class="cls-4" d="M25.44,18.92l-1.78.1a1.88,1.88,0,0,0-2.11-1.78c-1.34,0-2,.71-2,1.65,0,1.1.85,1.35,2.44,1.72,2.31.56,3.77,1.22,3.77,3.17,0,2.27-1.8,3.25-4,3.25-2.41,0-4.21-1.19-4.28-3.34l1.78-.1a2.24,2.24,0,0,0,2.5,1.93c1.27,0,2.19-.47,2.19-1.62s-1-1.4-2.64-1.8c-2-.49-3.59-1-3.59-3.15,0-1.74,1.25-3.22,3.81-3.22C23.77,15.72,25.36,16.9,25.44,18.92Zm6.14,6.52v1.47a6.2,6.2,0,0,1-1.1.09A2.22,2.22,0,0,1,28,24.56v-3.8h-1.4V19.33H28V16.77h1.66l0,2.56h1.91v1.43H29.64v3.46a1.14,1.14,0,0,0,1.25,1.3A3.87,3.87,0,0,0,31.58,25.44Zm7.35-3.25v4.7H37.26v-.68a2.91,2.91,0,0,1-2,.82c-1.5,0-2.52-.8-2.52-2.21,0-1.62,1.22-2.19,2.77-2.28l1.8-.1v-.22c0-1-.41-1.58-1.34-1.58a1.23,1.23,0,0,0-1.35,1.28l-1.66-.06a2.8,2.8,0,0,1,3-2.67A2.71,2.71,0,0,1,38.93,22.19ZM35.7,23.82c-.78,0-1.34.29-1.34,1s.47.85,1.13.85A1.57,1.57,0,0,0,37.28,24v-.27ZM48,22.34v4.55H46.29V22.56a1.62,1.62,0,0,0-1.65-1.83,1.73,1.73,0,0,0-1.75,1.84v4.31H41.24V19.33H42.8v1A2.39,2.39,0,0,1,45,19.2,2.86,2.86,0,0,1,48,22.34Zm8,4.55v-1A2.81,2.81,0,0,1,53.44,27a3.59,3.59,0,0,1-3.64-3.92,3.58,3.58,0,0,1,3.64-3.92,2.88,2.88,0,0,1,2.4,1v-4.8h1.65V26.89Zm-4.45-3.77A2.21,2.21,0,0,0,53.7,25.6a2.06,2.06,0,0,0,2.14-2.3v-.4a2.07,2.07,0,0,0-2.14-2.3A2.22,2.22,0,0,0,51.48,23.12Zm14.15-.93v4.7H64v-.68a2.91,2.91,0,0,1-2,.82c-1.5,0-2.52-.8-2.52-2.21,0-1.62,1.22-2.19,2.77-2.28l1.8-.1v-.22c0-1-.41-1.58-1.34-1.58a1.22,1.22,0,0,0-1.35,1.28l-1.66-.06a2.8,2.8,0,0,1,3-2.67A2.71,2.71,0,0,1,65.63,22.19Zm-3.22,1.63c-.78,0-1.34.29-1.34,1s.47.85,1.13.85A1.57,1.57,0,0,0,64,24v-.27Zm9.29-3a1.92,1.92,0,0,0-2.11,1.93v4.11H67.95V19.33h1.6v1.06a2.2,2.2,0,0,1,2.15-1.15Zm7.1,6v-1A2.81,2.81,0,0,1,76.31,27a3.59,3.59,0,0,1-3.64-3.92,3.58,3.58,0,0,1,3.64-3.92,2.88,2.88,0,0,1,2.4,1v-4.8h1.65V26.89Zm-4.45-3.77a2.21,2.21,0,0,0,2.22,2.49,2.06,2.06,0,0,0,2.14-2.3v-.4a2.07,2.07,0,0,0-2.14-2.3A2.22,2.22,0,0,0,74.35,23.12Z"/><rect class="cls-5" x="16.7" y="36.44" width="24.9" height="22.13" rx="2.76" ry="2.76"/><line class="cls-6" x1="41.61" y1="42.34" x2="16.7" y2="42.34"/><line class="cls-7" x1="41.61" y1="54.79" x2="16.7" y2="54.79"/><rect class="cls-8" x="16.7" y="48.2" width="6.88" height="1"/><rect class="cls-9" x="33.91" y="48.2" width="7.69" height="1"/><line class="cls-10" x1="23.58" y1="36.44" x2="23.58" y2="58.58"/><line class="cls-11" x1="33.91" y1="36.44" x2="33.91" y2="58.58"/><path class="cls-12" d="M20.1,72.72h.78a.73.73,0,0,1,.47.12.61.61,0,0,1,0,.79.72.72,0,0,1-.47.12H18a.72.72,0,0,1-.47-.12.62.62,0,0,1,0-.79.73.73,0,0,1,.47-.12h.9V68.66l-.54.14-.21,0h-.12a.38.38,0,0,1-.31-.13.53.53,0,0,1-.11-.36.38.38,0,0,1,.12-.28.82.82,0,0,1,.37-.18l1.19-.33.25-.06.16,0a.33.33,0,0,1,.27.11.6.6,0,0,1,.08.36Zm3.63-4v1.11a5,5,0,0,1,.57-.13,2.87,2.87,0,0,1,.48,0,1.83,1.83,0,0,1,1.4.57,2.11,2.11,0,0,1,.53,1.5,2,2,0,0,1-.66,1.6,2.88,2.88,0,0,1-1.9.55,3.63,3.63,0,0,1-1.36-.2.63.63,0,0,1-.46-.58.55.55,0,0,1,.16-.4.53.53,0,0,1,.39-.17,2.82,2.82,0,0,1,.6.14,2.84,2.84,0,0,0,.8.14,1.18,1.18,0,0,0,.84-.28,1,1,0,0,0,.3-.8,1.11,1.11,0,0,0-.28-.8,1,1,0,0,0-.76-.3,1.8,1.8,0,0,0-.73.2,1.76,1.76,0,0,1-.58.2.46.46,0,0,1-.39-.15.88.88,0,0,1-.12-.52V68.06a.5.5,0,0,1,.07-.33.34.34,0,0,1,.24-.07H26a.58.58,0,0,1,.42.12.6.6,0,0,1,.12.43.44.44,0,0,1-.54.53Zm5.37,3.92h1.69v0a.47.47,0,0,1,.13-.37.56.56,0,0,1,.39-.12.44.44,0,0,1,.33.12.46.46,0,0,1,.12.33v.06l0,.75a.45.45,0,0,1-.07.28.31.31,0,0,1-.21.06H28a.68.68,0,0,1-.43-.12.41.41,0,0,1-.15-.34.76.76,0,0,1,.09-.36,1.54,1.54,0,0,1,.3-.37l2-1.89a2.36,2.36,0,0,0,.47-.62,1.35,1.35,0,0,0,.16-.62.88.88,0,0,0-.21-.65.86.86,0,0,0-.64-.21,1.24,1.24,0,0,0-.45.07.68.68,0,0,0-.3.21,1.52,1.52,0,0,0-.14.21q-.23.38-.51.38a.43.43,0,0,1-.36-.16.76.76,0,0,1-.12-.47,1.15,1.15,0,0,1,.08-.48A.88.88,0,0,1,28,68a2.84,2.84,0,0,1,.79-.37,3.23,3.23,0,0,1,.9-.12,2.05,2.05,0,0,1,1.45.49,1.71,1.71,0,0,1,.53,1.32,2.19,2.19,0,0,1-.28,1.06,3.77,3.77,0,0,1-.86,1Zm6.69-2.22a1.54,1.54,0,0,1,.82.55,1.62,1.62,0,0,1,.27,1,1.79,1.79,0,0,1-.61,1.43,2.45,2.45,0,0,1-1.66.53,3.11,3.11,0,0,1-1.4-.28q-.55-.28-.55-.68a.51.51,0,0,1,.15-.38.56.56,0,0,1,.4-.15,2.35,2.35,0,0,1,.61.22,2.2,2.2,0,0,0,.87.22.85.85,0,0,0,.94-.94,1,1,0,0,0-.21-.69,1.18,1.18,0,0,0-.78-.23.59.59,0,0,1-.41-.12.56.56,0,0,1-.1-.39.42.42,0,0,1,.41-.44h.09a1.13,1.13,0,0,0,.67-.25.86.86,0,0,0,.15-.57.73.73,0,0,0-.19-.53.7.7,0,0,0-.52-.19,1.8,1.8,0,0,0-.8.22,1.74,1.74,0,0,1-.61.22.39.39,0,0,1-.3-.12.44.44,0,0,1-.11-.31q0-.41.57-.7a3,3,0,0,1,1.4-.29,2,2,0,0,1,1.34.43,1.45,1.45,0,0,1,.5,1.15,1.35,1.35,0,0,1-.23.8A1.71,1.71,0,0,1,35.79,70.44Zm15.27-1.7v1.11a5,5,0,0,1,.57-.13,2.87,2.87,0,0,1,.48,0,1.83,1.83,0,0,1,1.4.57,2.11,2.11,0,0,1,.53,1.5,2,2,0,0,1-.66,1.6,2.88,2.88,0,0,1-1.9.55,3.63,3.63,0,0,1-1.36-.2.63.63,0,0,1-.46-.58.55.55,0,0,1,.16-.4.53.53,0,0,1,.39-.17,2.82,2.82,0,0,1,.6.14,2.84,2.84,0,0,0,.8.14,1.18,1.18,0,0,0,.84-.28,1,1,0,0,0,.3-.8,1.11,1.11,0,0,0-.28-.8,1,1,0,0,0-.76-.3,1.8,1.8,0,0,0-.73.2,1.76,1.76,0,0,1-.58.2.46.46,0,0,1-.39-.15.88.88,0,0,1-.12-.52V68.06a.5.5,0,0,1,.07-.33.34.34,0,0,1,.24-.07h3.16a.58.58,0,0,1,.42.12.6.6,0,0,1,.12.43.44.44,0,0,1-.54.53Zm5.13,1.59a1.6,1.6,0,0,1,.56-.41,1.74,1.74,0,0,1,.7-.14,1.69,1.69,0,0,1,1.31.59,2.11,2.11,0,0,1,.53,1.46,2,2,0,0,1-.6,1.49,2.19,2.19,0,0,1-1.58.57,1.94,1.94,0,0,1-1.61-.74,3.22,3.22,0,0,1-.59-2,3.69,3.69,0,0,1,.91-2.6,3.12,3.12,0,0,1,2.41-1,2.23,2.23,0,0,1,.72.08.28.28,0,0,1,.22.27q0,.44-.68.48l-.45,0a1.86,1.86,0,0,0-1.2.55A2.92,2.92,0,0,0,56.19,70.34Zm1.87,1.58a1.14,1.14,0,0,0-.26-.77.84.84,0,0,0-.67-.3.86.86,0,0,0-.66.29,1.05,1.05,0,0,0-.27.73,1.12,1.12,0,0,0,.27.78.89.89,0,0,0,.7.3.81.81,0,0,0,.64-.29A1.1,1.1,0,0,0,58.07,71.92Zm6-3.74-1.56,5.43a.33.33,0,0,1-.1.17.31.31,0,0,1-.18,0h-.89a.17.17,0,0,1-.12,0,.13.13,0,0,1,0-.1.64.64,0,0,1,0-.09v-.06l1.73-4.78H60.82l0,.09a.39.39,0,0,1-.15.26.46.46,0,0,1-.3.1.42.42,0,0,1-.3-.09.37.37,0,0,1-.1-.28.46.46,0,0,1,0-.06.58.58,0,0,0,0-.06l.09-.75a.3.3,0,0,1,.1-.21.34.34,0,0,1,.23-.07h3.41a.27.27,0,0,1,.2.06.26.26,0,0,1,.06.19Zm4.28,2.45a1.79,1.79,0,0,1,.84.58,1.44,1.44,0,0,1,.29.9,1.59,1.59,0,0,1-.62,1.3,2.83,2.83,0,0,1-3.22,0A1.57,1.57,0,0,1,65,72.13a1.46,1.46,0,0,1,.29-.91,1.8,1.8,0,0,1,.84-.59,2,2,0,0,1-.8-.58,1.33,1.33,0,0,1-.27-.83,1.5,1.5,0,0,1,.6-1.22,2.75,2.75,0,0,1,3.11,0,1.5,1.5,0,0,1,.61,1.22,1.33,1.33,0,0,1-.27.83A1.9,1.9,0,0,1,68.32,70.63Zm-1.1.53a1,1,0,0,0-.71.25.91.91,0,0,0,0,1.3,1,1,0,0,0,.71.25,1,1,0,0,0,.72-.25.91.91,0,0,0,0-1.3A1,1,0,0,0,67.22,71.16Zm0-2.74a1,1,0,0,0-.67.24.83.83,0,0,0,0,1.21,1.07,1.07,0,0,0,1.34,0,.85.85,0,0,0,0-1.22A1,1,0,0,0,67.22,68.42Zm17.91,2.65a1.57,1.57,0,0,1-.56.41,1.72,1.72,0,0,1-.7.14A1.68,1.68,0,0,1,82.56,71,2.11,2.11,0,0,1,82,69.58a2,2,0,0,1,.59-1.49,2.19,2.19,0,0,1,1.57-.57,2,2,0,0,1,1.61.74,3.21,3.21,0,0,1,.59,2,3.69,3.69,0,0,1-.91,2.61,3.12,3.12,0,0,1-2.4,1,2.19,2.19,0,0,1-.72-.08.29.29,0,0,1-.22-.27q0-.44.68-.47l.47,0a1.89,1.89,0,0,0,1.2-.56A2.93,2.93,0,0,0,85.13,71.07Zm0-1.53a1.13,1.13,0,0,0-.27-.79.9.9,0,0,0-.7-.3.8.8,0,0,0-.64.29,1.11,1.11,0,0,0-.25.75,1.15,1.15,0,0,0,.26.78.84.84,0,0,0,.66.3.86.86,0,0,0,.67-.29A1.05,1.05,0,0,0,85.11,69.55Zm5.23,1.53a1.57,1.57,0,0,1-.56.41,1.72,1.72,0,0,1-.7.14A1.68,1.68,0,0,1,87.77,71a2.11,2.11,0,0,1-.53-1.46,2,2,0,0,1,.59-1.49,2.19,2.19,0,0,1,1.57-.57,2,2,0,0,1,1.61.74,3.21,3.21,0,0,1,.59,2,3.69,3.69,0,0,1-.91,2.61,3.12,3.12,0,0,1-2.4,1,2.19,2.19,0,0,1-.72-.08.29.29,0,0,1-.22-.27q0-.44.68-.47l.47,0a1.89,1.89,0,0,0,1.2-.56A2.93,2.93,0,0,0,90.34,71.07Zm0-1.53a1.13,1.13,0,0,0-.27-.79.9.9,0,0,0-.7-.3.8.8,0,0,0-.64.29,1.11,1.11,0,0,0-.25.75,1.15,1.15,0,0,0,.26.78.84.84,0,0,0,.66.3.86.86,0,0,0,.67-.29A1.05,1.05,0,0,0,90.32,69.55Zm6.07-1.36-1.56,5.43a.33.33,0,0,1-.1.17.31.31,0,0,1-.18,0h-.89a.17.17,0,0,1-.12,0,.13.13,0,0,1,0-.1.64.64,0,0,1,0-.09v-.06l1.73-4.78H93.16l0,.09a.39.39,0,0,1-.15.26.46.46,0,0,1-.3.1.42.42,0,0,1-.3-.09.37.37,0,0,1-.1-.28.46.46,0,0,1,0-.06.58.58,0,0,0,0-.06l.09-.75a.3.3,0,0,1,.1-.21.34.34,0,0,1,.23-.07h3.41a.27.27,0,0,1,.2.06.26.26,0,0,1,.06.19Zm4.28,2.45a1.79,1.79,0,0,1,.84.58,1.44,1.44,0,0,1,.29.9,1.59,1.59,0,0,1-.62,1.3,2.83,2.83,0,0,1-3.22,0,1.57,1.57,0,0,1-.62-1.28,1.46,1.46,0,0,1,.29-.91,1.8,1.8,0,0,1,.84-.59,2,2,0,0,1-.8-.58,1.33,1.33,0,0,1-.27-.83A1.5,1.5,0,0,1,98,68a2.75,2.75,0,0,1,3.11,0,1.5,1.5,0,0,1,.61,1.22,1.33,1.33,0,0,1-.27.83A1.9,1.9,0,0,1,100.67,70.63Zm-1.1.53a1,1,0,0,0-.71.25.91.91,0,0,0,0,1.3,1,1,0,0,0,.71.25,1,1,0,0,0,.72-.25.91.91,0,0,0,0-1.3A1,1,0,0,0,99.57,71.16Zm0-2.74a1,1,0,0,0-.67.24.83.83,0,0,0,0,1.21,1.07,1.07,0,0,0,1.34,0,.85.85,0,0,0,0-1.22A1,1,0,0,0,99.57,68.42Zm17.91,2a1.54,1.54,0,0,1,.82.55,1.62,1.62,0,0,1,.27,1,1.79,1.79,0,0,1-.61,1.43,2.45,2.45,0,0,1-1.66.53,3.11,3.11,0,0,1-1.4-.28q-.55-.28-.55-.68a.51.51,0,0,1,.15-.38.56.56,0,0,1,.4-.15,2.35,2.35,0,0,1,.61.22,2.2,2.2,0,0,0,.87.22.85.85,0,0,0,.94-.94,1,1,0,0,0-.21-.69,1.18,1.18,0,0,0-.78-.23.59.59,0,0,1-.41-.12.56.56,0,0,1-.1-.39.42.42,0,0,1,.41-.44h.09a1.13,1.13,0,0,0,.67-.25.86.86,0,0,0,.15-.57.73.73,0,0,0-.19-.53.7.7,0,0,0-.52-.19,1.8,1.8,0,0,0-.8.22,1.74,1.74,0,0,1-.61.22.39.39,0,0,1-.3-.12.44.44,0,0,1-.11-.31q0-.41.57-.7a3,3,0,0,1,1.4-.29,2,2,0,0,1,1.34.43,1.45,1.45,0,0,1,.5,1.15,1.35,1.35,0,0,1-.23.8A1.71,1.71,0,0,1,117.47,70.44Zm4.75,2.28H123a.73.73,0,0,1,.47.12.61.61,0,0,1,0,.79.72.72,0,0,1-.47.12h-2.84a.72.72,0,0,1-.47-.12.62.62,0,0,1,0-.79.73.73,0,0,1,.47-.12h.9V68.66l-.54.14-.21,0h-.12a.38.38,0,0,1-.31-.13.53.53,0,0,1-.11-.36.38.38,0,0,1,.12-.28.82.82,0,0,1,.37-.18l1.19-.33.25-.06.16,0a.33.33,0,0,1,.27.11.6.6,0,0,1,.08.36Zm5.07,0h.78a.73.73,0,0,1,.47.12.61.61,0,0,1,0,.79.72.72,0,0,1-.47.12h-2.84a.72.72,0,0,1-.47-.12.62.62,0,0,1,0-.79.73.73,0,0,1,.47-.12h.9V68.66l-.54.14-.21,0h-.12a.38.38,0,0,1-.31-.13.53.53,0,0,1-.11-.36.38.38,0,0,1,.12-.28.82.82,0,0,1,.37-.18l1.19-.33.25-.06.16,0a.33.33,0,0,1,.27.11.6.6,0,0,1,.08.36Zm3.63-4v1.11a5,5,0,0,1,.57-.13,2.87,2.87,0,0,1,.48,0,1.83,1.83,0,0,1,1.4.57,2.11,2.11,0,0,1,.53,1.5,2,2,0,0,1-.66,1.6,2.88,2.88,0,0,1-1.9.55,3.63,3.63,0,0,1-1.36-.2.63.63,0,0,1-.46-.58.55.55,0,0,1,.16-.4.53.53,0,0,1,.39-.17,2.82,2.82,0,0,1,.6.14,2.84,2.84,0,0,0,.8.14,1.18,1.18,0,0,0,.84-.28,1,1,0,0,0,.3-.8,1.11,1.11,0,0,0-.28-.8,1,1,0,0,0-.76-.3,1.8,1.8,0,0,0-.73.2,1.76,1.76,0,0,1-.58.2.46.46,0,0,1-.39-.15.88.88,0,0,1-.12-.52V68.06a.5.5,0,0,1,.07-.33.34.34,0,0,1,.24-.07h3.16a.58.58,0,0,1,.42.12.6.6,0,0,1,.12.43.44.44,0,0,1-.54.53Z"/><path class="cls-13" d="M20.93,86.07v2.12a2.94,2.94,0,0,1-.06.72,1.05,1.05,0,0,1-.21.4,1.15,1.15,0,0,1-.52.34,2.5,2.5,0,0,1-.81.11,3,3,0,0,1-.64-.07,2.78,2.78,0,0,1-.59-.2.38.38,0,0,1-.21-.19,1.12,1.12,0,0,1,0-.39v-.76a.81.81,0,0,1,.09-.44.35.35,0,0,1,.31-.13q.32,0,.35.49a1.17,1.17,0,0,0,0,.13,1,1,0,0,0,.19.59.63.63,0,0,0,.48.16.67.67,0,0,0,.57-.22A1.45,1.45,0,0,0,20,87.9V86.07h-.6a.51.51,0,0,1-.35-.1.52.52,0,0,1,0-.62.52.52,0,0,1,.35-.09h1.82a.52.52,0,0,1,.35.09.52.52,0,0,1,0,.62.51.51,0,0,1-.35.1Zm2.84-.94a1.83,1.83,0,0,1,1.44.65,2.74,2.74,0,0,1,0,3.33,1.93,1.93,0,0,1-2.89,0,2.72,2.72,0,0,1,0-3.33A1.83,1.83,0,0,1,23.78,85.13Zm0,.86a.83.83,0,0,0-.72.39,2.32,2.32,0,0,0,0,2.15.86.86,0,0,0,1.44,0,2.32,2.32,0,0,0,0-2.15A.83.83,0,0,0,23.78,86Zm3.63.08v.85h1.17v-.85h-.06a.4.4,0,0,1-.29-.1.42.42,0,0,1-.1-.3.41.41,0,0,1,.11-.31.51.51,0,0,1,.35-.1h.92a.49.49,0,0,1,.34.1.42.42,0,0,1,.1.31.43.43,0,0,1-.1.3.38.38,0,0,1-.29.1h-.06v2.76h.06a.39.39,0,0,1,.29.1.41.41,0,0,1,.1.3.42.42,0,0,1-.1.31.51.51,0,0,1-.35.1h-.92a.51.51,0,0,1-.35-.09.41.41,0,0,1-.1-.32.41.41,0,0,1,.1-.3.4.4,0,0,1,.29-.1h.06V87.74H27.4v1.09h.06a.4.4,0,0,1,.29.1.4.4,0,0,1,.1.3.41.41,0,0,1-.1.31.51.51,0,0,1-.35.1h-.92a.51.51,0,0,1-.35-.09.52.52,0,0,1,0-.62.39.39,0,0,1,.29-.1h.06V86.07h-.06a.38.38,0,0,1-.29-.1.43.43,0,0,1-.1-.3.42.42,0,0,1,.1-.31.49.49,0,0,1,.34-.1h.92a.51.51,0,0,1,.35.1.4.4,0,0,1,.11.31.42.42,0,0,1-.1.3.39.39,0,0,1-.29.1Zm5.69,2v-2h-.2a.48.48,0,0,1-.34-.1.41.41,0,0,1-.1-.31.42.42,0,0,1,.1-.31.48.48,0,0,1,.34-.1h1a.48.48,0,0,1,.33.1.42.42,0,0,1,.1.31.43.43,0,0,1-.1.3.36.36,0,0,1-.28.11h-.06v3.36a.42.42,0,0,1,0,.22s-.08,0-.16,0h-.36a.55.55,0,0,1-.24,0,.3.3,0,0,1-.12-.13l-1.48-2.71v2h.21a.48.48,0,0,1,.33.09.4.4,0,0,1,.1.31.42.42,0,0,1-.1.31.47.47,0,0,1-.33.1h-1a.48.48,0,0,1-.33-.1.42.42,0,0,1-.1-.31.42.42,0,0,1,.1-.3.37.37,0,0,1,.29-.1h.06V86.07h-.06a.37.37,0,0,1-.28-.11.42.42,0,0,1-.1-.3.41.41,0,0,1,.11-.31.48.48,0,0,1,.33-.1h.58a.5.5,0,0,1,.29.06.73.73,0,0,1,.17.23Zm8.46-2.77a.37.37,0,0,1,.12-.16.38.38,0,0,1,.21,0q.21,0,.27.08a.62.62,0,0,1,.07.32v.75a.44.44,0,0,1-.08.31.38.38,0,0,1-.28.09.4.4,0,0,1-.38-.28l0-.07a.8.8,0,0,0-.3-.35.93.93,0,0,0-1,0,.48.48,0,0,0-.2.39q0,.34.91.54l.24.05a2,2,0,0,1,1,.47,1.2,1.2,0,0,1,.31.87A1.29,1.29,0,0,1,42,89.39a2,2,0,0,1-1.28.37,3.38,3.38,0,0,1-.58,0,2.59,2.59,0,0,1-.49-.14.36.36,0,0,1-.13.14.42.42,0,0,1-.21,0,.44.44,0,0,1-.31-.09.45.45,0,0,1-.09-.31v-.91A.51.51,0,0,1,39,88.1a.4.4,0,0,1,.31-.1q.23,0,.39.35l.06.13a1,1,0,0,0,.39.43,1.21,1.21,0,0,0,.61.14.82.82,0,0,0,.51-.14.47.47,0,0,0,.18-.4q0-.4-.82-.6l-.39-.1a2.08,2.08,0,0,1-1-.47,1.08,1.08,0,0,1-.27-.78,1.31,1.31,0,0,1,.46-1,1.73,1.73,0,0,1,1.19-.4,2.18,2.18,0,0,1,.48.05A2.42,2.42,0,0,1,41.55,85.33ZM45,87.75l.68-2.1a.62.62,0,0,1,.18-.3.46.46,0,0,1,.3-.09h.56a.51.51,0,0,1,.35.1.41.41,0,0,1,.11.31.42.42,0,0,1-.1.3.39.39,0,0,1-.29.1h-.06l.1,2.76h.06a.38.38,0,0,1,.29.1.52.52,0,0,1,0,.61.49.49,0,0,1-.34.1H46a.5.5,0,0,1-.34-.09.52.52,0,0,1,0-.62.38.38,0,0,1,.29-.1H46l0-2.26-.52,1.68a.53.53,0,0,1-.16.27.46.46,0,0,1-.29.08.47.47,0,0,1-.29-.08.51.51,0,0,1-.17-.27L44,86.57l0,2.26H44a.39.39,0,0,1,.29.1.52.52,0,0,1,0,.61.5.5,0,0,1-.34.1h-.81a.5.5,0,0,1-.34-.1.52.52,0,0,1,0-.61.39.39,0,0,1,.29-.1h.06l.1-2.76h-.06a.39.39,0,0,1-.29-.1.42.42,0,0,1-.1-.3.41.41,0,0,1,.1-.31.51.51,0,0,1,.35-.1h.56a.45.45,0,0,1,.3.09.66.66,0,0,1,.18.3Zm4.65-1.68v2.76h.6a.52.52,0,0,1,.35.09.39.39,0,0,1,.1.31.41.41,0,0,1-.11.31.5.5,0,0,1-.35.1H48.09a.51.51,0,0,1-.35-.1.41.41,0,0,1-.1-.31.39.39,0,0,1,.1-.31.52.52,0,0,1,.35-.09h.6V86.07h-.6a.51.51,0,0,1-.35-.1.41.41,0,0,1-.1-.31.4.4,0,0,1,.1-.31.52.52,0,0,1,.35-.09h2.12a.52.52,0,0,1,.35.09.53.53,0,0,1,0,.62.51.51,0,0,1-.35.1Zm4.79,0h-.75v2.76h.6a.5.5,0,0,1,.34.1.41.41,0,0,1,.1.31.42.42,0,0,1-.1.31.5.5,0,0,1-.34.1H52.13a.49.49,0,0,1-.34-.1.53.53,0,0,1,0-.63.49.49,0,0,1,.34-.09h.6V86.06H52l0,.75v.09a.39.39,0,0,1-.09.28.34.34,0,0,1-.26.1.37.37,0,0,1-.29-.11.5.5,0,0,1-.09-.34v0l0-1.11c0-.22,0-.35.09-.4a.51.51,0,0,1,.31-.07h3.07a.51.51,0,0,1,.31.07c.05,0,.08.18.09.4l0,1.11v0a.51.51,0,0,1-.09.34.36.36,0,0,1-.29.1.34.34,0,0,1-.28-.1.62.62,0,0,1-.09-.37Zm2.46,0v.85H58v-.85H58a.4.4,0,0,1-.29-.1.42.42,0,0,1-.1-.3.41.41,0,0,1,.11-.31.51.51,0,0,1,.35-.1h.92a.49.49,0,0,1,.34.1.42.42,0,0,1,.1.31.43.43,0,0,1-.1.3.38.38,0,0,1-.29.1h-.06v2.76H59a.39.39,0,0,1,.29.1.41.41,0,0,1,.1.3.42.42,0,0,1-.1.31.51.51,0,0,1-.35.1H58a.51.51,0,0,1-.35-.09.41.41,0,0,1-.1-.32.41.41,0,0,1,.1-.3.4.4,0,0,1,.29-.1H58V87.74H56.85v1.09h.06a.4.4,0,0,1,.29.1.4.4,0,0,1,.1.3.41.41,0,0,1-.1.31.51.51,0,0,1-.35.1h-.92a.51.51,0,0,1-.35-.09.52.52,0,0,1,0-.62.39.39,0,0,1,.29-.1h.06V86.07h-.06a.38.38,0,0,1-.29-.1.43.43,0,0,1-.1-.3.42.42,0,0,1,.1-.31.49.49,0,0,1,.34-.1h.92a.51.51,0,0,1,.35.1.4.4,0,0,1,.11.31.42.42,0,0,1-.1.3.39.39,0,0,1-.29.1Zm17.92,2.79h.58a.52.52,0,0,1,.35.09.49.49,0,0,1,0,.6.52.52,0,0,1-.35.09h-2.1a.52.52,0,0,1-.35-.09.49.49,0,0,1,0-.6.52.52,0,0,1,.35-.09h.66V85.73l-.4.11-.15,0h-.09a.28.28,0,0,1-.23-.1.42.42,0,0,1-.08-.27.3.3,0,0,1,.09-.22.59.59,0,0,1,.27-.14l.88-.25.18,0h.12a.24.24,0,0,1,.2.08.47.47,0,0,1,.06.27Zm3.27-4a1.53,1.53,0,0,1,1.3.66,3.59,3.59,0,0,1,0,3.59,1.53,1.53,0,0,1-1.3.66,1.51,1.51,0,0,1-1.29-.66,3.63,3.63,0,0,1,0-3.6A1.51,1.51,0,0,1,78,84.85Zm0,.83a.66.66,0,0,0-.6.43,2.65,2.65,0,0,0-.22,1.19,2.71,2.71,0,0,0,.22,1.2.63.63,0,0,0,1.2,0,2.68,2.68,0,0,0,.22-1.2,2.64,2.64,0,0,0-.22-1.19A.67.67,0,0,0,78,85.68ZM83.15,85l-2.09,4.65a1.1,1.1,0,0,1-.18.3.26.26,0,0,1-.19.09A.44.44,0,0,1,80.4,90a.34.34,0,0,1-.13-.27,1,1,0,0,1,.1-.33v0l2.09-4.64a1.13,1.13,0,0,1,.18-.31.26.26,0,0,1,.19-.09.44.44,0,0,1,.29.11.33.33,0,0,1,.13.27.49.49,0,0,1,0,.14A1.62,1.62,0,0,1,83.15,85ZM85,88.81h1.25v0a.37.37,0,0,1,.1-.28.41.41,0,0,1,.29-.09.32.32,0,0,1,.24.09.36.36,0,0,1,.09.26v0l0,.57a.35.35,0,0,1-.05.21.22.22,0,0,1-.16,0H84.15a.49.49,0,0,1-.32-.09.32.32,0,0,1-.11-.26.6.6,0,0,1,.07-.28,1.19,1.19,0,0,1,.22-.29l1.45-1.46a1.81,1.81,0,0,0,.35-.47,1.07,1.07,0,0,0,.12-.47.7.7,0,0,0-.16-.5.62.62,0,0,0-.47-.16.89.89,0,0,0-.33.06.51.51,0,0,0-.22.16l-.1.16q-.17.29-.38.29a.31.31,0,0,1-.27-.12.6.6,0,0,1-.09-.36.91.91,0,0,1,.06-.37.68.68,0,0,1,.23-.24,2.07,2.07,0,0,1,.59-.29,2.3,2.3,0,0,1,.67-.09,1.48,1.48,0,0,1,1.07.38,1.34,1.34,0,0,1,.4,1,1.74,1.74,0,0,1-.2.82,2.89,2.89,0,0,1-.64.78Zm3.94,0h1.25v0a.37.37,0,0,1,.1-.28.41.41,0,0,1,.29-.09.32.32,0,0,1,.24.09.36.36,0,0,1,.09.26v0l0,.57a.35.35,0,0,1-.05.21.22.22,0,0,1-.16,0H88.09a.49.49,0,0,1-.32-.09.32.32,0,0,1-.11-.26.6.6,0,0,1,.07-.28,1.19,1.19,0,0,1,.22-.29l1.45-1.46a1.81,1.81,0,0,0,.35-.47,1.07,1.07,0,0,0,.12-.47.7.7,0,0,0-.16-.5.62.62,0,0,0-.47-.16.89.89,0,0,0-.33.06.51.51,0,0,0-.22.16l-.1.16q-.17.29-.38.29a.31.31,0,0,1-.27-.12.6.6,0,0,1-.09-.36.91.91,0,0,1,.06-.37.68.68,0,0,1,.23-.24,2.07,2.07,0,0,1,.59-.29,2.3,2.3,0,0,1,.67-.09,1.48,1.48,0,0,1,1.07.38,1.34,1.34,0,0,1,.4,1,1.74,1.74,0,0,1-.2.82,2.89,2.89,0,0,1-.64.78Z"/><polygon class="cls-14" points="93.11 0.8 162.35 51.63 93 102.54 93.11 0.8"/><rect class="cls-15" x="125.62" y="81.38" width="30.46" height="13.92" rx="2.7" ry="2.7"/><path class="cls-16" d="M135.13,87.78l-1.12.1a1.31,1.31,0,0,0-1.38-1.13,1.74,1.74,0,0,0,0,3.45A1.3,1.3,0,0,0,134,89.09l1.13.1a2.36,2.36,0,0,1-2.47,2,2.68,2.68,0,0,1,0-5.36A2.36,2.36,0,0,1,135.13,87.78Zm4.38,3.3-.42-1h-2.16l-.43,1h-1.18l2.23-5.2h.9l2.24,5.2Zm-.8-1.88-.7-1.66-.7,1.66Zm4.54,0h-.87v1.87h-1.08v-5.2h2.23a1.7,1.7,0,0,1,.84,3.16l1.11,2h-1.21Zm.15-1a.72.72,0,1,0,0-1.43h-1v1.43Zm5-2.38a2.6,2.6,0,0,1,0,5.2h-2.14v-5.2Zm-1.07,4.29h1.08c.9,0,1.51-.56,1.51-1.68s-.6-1.68-1.51-1.68H147.3Z"/></g></g></svg>