<?xml version="1.0" encoding="utf-8"?>
<!-- Generator: Adobe Illustrator 21.1.0, SVG Export Plug-In . SVG Version: 6.00 Build 0)  -->
<svg version="1.1" id="Layer_1" xmlns="http://www.w3.org/2000/svg" xmlns:xlink="http://www.w3.org/1999/xlink" x="0px" y="0px"
	 viewBox="0 0 70 140" style="enable-background:new 0 0 70 140;" xml:space="preserve">
<style type="text/css">
	.st0{fill:rgb(64, 64, 64);}
	.st1{fill:#FFFFFF;}
</style>
<title>Artboard 10 copy 5</title>
<path class="st0" d="M35,37.3c4.6,0,8.2-3.7,8.2-8.2s-3.7-8.2-8.2-8.2c-4.6,0-8.2,3.7-8.2,8.2C26.8,33.6,30.4,37.3,35,37.3z
	 M35,22.5c3.6,0,6.6,2.9,6.6,6.6c0,3.6-2.9,6.6-6.6,6.6c-3.6,0-6.6-2.9-6.6-6.6c0,0,0,0,0,0C28.4,25.4,31.4,22.5,35,22.5L35,22.5z
	 M59.6,35c0-13.6-11-24.7-24.6-24.7S10.4,21.4,10.4,35c0,8.6,4.4,16.5,11.7,21l0.1,0.1c7.9,4.8,17.8,4.8,25.6,0l0.1-0.1
	C55.2,51.5,59.6,43.6,59.6,35L59.6,35z M12.1,35c0-12.7,10.2-23,22.9-23c12.7,0,23,10.2,23,22.9c0,7.2-3.4,14.1-9.2,18.4l1-7.2
	c0.2-1.9-0.4-3.9-1.7-5.4C46.4,39,44,38,41.6,38H28.4c-2.4,0-4.7,1.1-6.3,2.9c-1.4,1.5-2,3.5-1.8,5.5l1,7C15.5,49,12.1,42.2,12.1,35
	z M23.3,54.7c-0.1-0.3-0.2-0.7-0.3-1l-1.1-7.6c-0.2-1.5,0.3-3,1.4-4.2c1.3-1.4,3.1-2.2,5.1-2.2h13.2c2,0,3.8,0.8,5.1,2.3
	c1,1.1,1.5,2.6,1.3,4l-1,7.6c-0.1,0.4-0.2,0.8-0.3,1.1C39.5,59,30.5,59,23.3,54.7L23.3,54.7z"/>
<path class="st1" d="M35,107.3c4.6,0,8.2-3.7,8.2-8.2c0-4.6-3.7-8.2-8.2-8.2s-8.2,3.7-8.2,8.2C26.8,103.6,30.4,107.3,35,107.3z
	 M35,92.5c3.6,0,6.6,2.9,6.6,6.6c0,3.6-2.9,6.6-6.6,6.6c-3.6,0-6.6-2.9-6.6-6.6c0,0,0,0,0,0C28.4,95.4,31.4,92.5,35,92.5L35,92.5z
	 M59.6,105c0-13.6-11-24.7-24.6-24.7c-13.6,0-24.7,11-24.7,24.6c0,8.6,4.4,16.5,11.7,21l0.1,0.1c7.9,4.8,17.8,4.8,25.6,0l0.1-0.1
	C55.2,121.5,59.6,113.6,59.6,105L59.6,105z M12.1,105c0-12.7,10.2-23,22.9-23s23,10.2,23,22.9c0,7.2-3.4,14.1-9.2,18.4l1-7.2
	c0.2-1.9-0.4-3.9-1.7-5.4c-1.6-1.8-4-2.9-6.4-2.9H28.4c-2.4,0-4.7,1.1-6.3,2.9c-1.4,1.5-2,3.5-1.8,5.5l1,7
	C15.5,119,12.1,112.2,12.1,105z M23.3,124.7c-0.1-0.3-0.2-0.7-0.3-1l-1.1-7.6c-0.2-1.5,0.3-3,1.4-4.2c1.3-1.4,3.1-2.2,5.1-2.2h13.2
	c2,0,3.8,0.8,5.1,2.3c1,1.1,1.5,2.6,1.3,4l-1,7.6c-0.1,0.4-0.2,0.8-0.3,1.1C39.5,129,30.5,129,23.3,124.7L23.3,124.7z"/>
</svg>
