<svg xmlns="http://www.w3.org/2000/svg" xmlns:xlink="http://www.w3.org/1999/xlink" viewBox="0 0 163.12 103.41"><defs><style>.cls-1,.cls-10,.cls-11,.cls-6,.cls-7{fill:none;}.cls-2{isolation:isolate;}.cls-3{fill:url(#linear-gradient);}.cls-4{opacity:0.5;fill:url(#linear-gradient-2);}.cls-5{fill:url(#linear-gradient-3);}.cls-10,.cls-11,.cls-6,.cls-7{stroke-miterlimit:10;}.cls-6{stroke:url(#linear-gradient-4);}.cls-7{stroke:url(#linear-gradient-5);}.cls-8{fill:url(#linear-gradient-6);}.cls-9{fill:url(#linear-gradient-7);}.cls-10{stroke:url(#linear-gradient-8);}.cls-11{stroke:url(#linear-gradient-9);}.cls-12{fill:url(#linear-gradient-10);}.cls-13{fill:url(#linear-gradient-11);}.cls-14{opacity:0.35;mix-blend-mode:color-burn;fill:url(#linear-gradient-12);}.cls-15{fill:url(#linear-gradient-13);}.cls-16{fill:url(#linear-gradient-14);}.cls-17{fill:url(#linear-gradient-15);}.cls-18{fill:url(#linear-gradient-16);}.cls-19{clip-path:url(#clip-path);}.cls-20{fill:#6f7173;}.cls-21{fill:#707274;}.cls-22{fill:#727476;}.cls-23{fill:#737577;}.cls-24{fill:#747678;}.cls-25{fill:#767879;}.cls-26{fill:#77797b;}.cls-27{fill:#787a7c;}.cls-28{fill:#7a7b7d;}.cls-29{fill:#7b7d7f;}.cls-30{fill:#7c7e80;}.cls-31{fill:#7e7f81;}.cls-32{fill:#7f8182;}.cls-33{fill:#808284;}.cls-34{fill:#818385;}.cls-35{fill:#838486;}.cls-36{fill:#848687;}.cls-37{fill:#858789;}.cls-38{fill:#87888a;}.cls-39{fill:#888a8b;}.cls-40{fill:#898b8c;}.cls-41{fill:#8a8c8e;}.cls-42{fill:#8c8d8f;}.cls-43{fill:#8d8f90;}.cls-44{fill:#8e9091;}.cls-45{fill:#909193;}.cls-46{fill:#919294;}.cls-47{fill:#929495;}.cls-48{fill:#939596;}.cls-49{fill:#959697;}.cls-50{fill:#969799;}.cls-51{fill:#97989a;}.cls-52{fill:#989a9b;}.cls-53{fill:#999b9c;}.cls-54{fill:#9b9c9d;}.cls-55{fill:#9c9d9f;}.cls-56{fill:#9d9fa0;}.cls-57{fill:#9ea0a1;}.cls-58{fill:#a0a1a2;}.cls-59{fill:#a1a2a3;}.cls-60{fill:#a2a3a5;}.cls-61{fill:#a3a4a6;}.cls-62{fill:#a4a6a7;}.cls-63{fill:#a6a7a8;}.cls-64{fill:#a7a8a9;}.cls-65{fill:#a8a9aa;}.cls-66{fill:#a9aaac;}.cls-67{fill:#aaacad;}.cls-68{fill:#abadae;}.cls-69{fill:#adaeaf;}.cls-70{fill:#aeafb0;}.cls-71{fill:#afb0b1;}.cls-72{fill:#b0b1b2;}.cls-73{fill:#b1b2b3;}.cls-74{fill:#b2b4b5;}.cls-75{fill:#b4b5b6;}.cls-76{fill:#b5b6b7;}.cls-77{fill:#b6b7b8;}.cls-78{fill:#b7b8b9;}.cls-79{fill:#b8b9ba;}.cls-80{fill:#b9babb;}.cls-81{fill:#babbbc;}.cls-82{fill:#bbbcbd;}.cls-83{fill:#bdbebe;}.cls-84{fill:#bebfc0;}.cls-85{fill:#bfc0c1;}.cls-86{fill:#c0c1c2;}.cls-87{fill:#c1c2c3;}.cls-88{fill:#c2c3c4;}.cls-89{fill:#c3c4c5;}.cls-90{fill:#c4c5c6;}.cls-91{fill:#c5c6c7;}.cls-92{fill:#c6c7c8;}.cls-93{fill:#c7c8c9;}.cls-94{fill:#c8c9ca;}.cls-95{fill:#cacacb;}.cls-96{fill:#cbcbcc;}.cls-97{fill:#cccccd;}.cls-98{fill:#cdcdce;}.cls-99{fill:#cececf;}.cls-100{fill:#cfcfd0;}.cls-101{fill:#d0d0d1;}.cls-102{fill:#d1d1d2;}.cls-103{fill:#d2d2d3;}.cls-104{fill:#d3d3d4;}.cls-105{fill:#d4d4d5;}.cls-106{fill:#d5d5d6;}.cls-107{fill:#d6d6d7;}.cls-108{fill:#d7d7d8;}.cls-109{fill:#d8d8d9;}.cls-110{fill:#d9d9da;}.cls-111{fill:#dadadb;}.cls-112{fill:#dbdbdc;}.cls-113{fill:#dbdcdc;}.cls-114{fill:#dcdddd;}.cls-115{fill:#dddede;}.cls-116{fill:#dedfdf;}.cls-117{fill:#dfe0e0;}.cls-118{fill:#e0e1e1;}.cls-119{fill:#e1e1e2;}.cls-120{fill:#e2e2e3;}.cls-121{fill:#e3e3e4;}.cls-122{fill:#e4e4e5;}.cls-123{fill:#e5e5e5;}.cls-124{fill:#e6e6e6;}.cls-125{fill:#e6e7e7;}.cls-126{fill:#e7e8e8;}.cls-127{fill:#e8e8e9;}.cls-128{fill:#e9e9ea;}.cls-129{fill:#eaeaea;}.cls-130{fill:#ebebeb;}.cls-131{fill:#ebecec;}.cls-132{fill:#ececed;}.cls-133{fill:#ededee;}.cls-134{fill:#eee;}.cls-135{fill:#efefef;}.cls-136{fill:#eff0f0;}.cls-137{fill:#f0f0f1;}.cls-138{fill:#f1f1f1;}.cls-139{fill:#f2f2f2;}.cls-140{fill:#f2f3f3;}.cls-141{fill:#f3f3f3;}.cls-142{fill:#f4f4f4;}.cls-143{fill:#f5f5f5;}.cls-144{fill:#f6f6f6;}.cls-145{fill:#f7f7f7;}.cls-146{fill:#f8f8f8;}.cls-147{fill:#f8f9f9;}.cls-148{fill:#f9f9f9;}.cls-149{fill:#fafafa;}.cls-150{fill:#fbfbfb;}.cls-151{fill:#fcfcfc;}.cls-152{fill:#fdfdfd;}.cls-153{fill:#fefefe;}.cls-154{fill:#fff;}.cls-155{fill:#f8f7f7;}.cls-156{fill:#f5f4f4;}.cls-157{fill:#f1f0f0;}.cls-158{fill:#f0f0f0;}.cls-159{fill:#ededed;}.cls-160{fill:#edecec;}.cls-161{fill:#ecebec;}.cls-162{fill:#e9e9e9;}.cls-163{fill:#e9e8e8;}.cls-164{fill:#e8e7e7;}.cls-165{fill:#e7e6e7;}.cls-166{fill:#e4e4e4;}.cls-167{fill:#e3e3e3;}.cls-168{fill:#e3e2e2;}.cls-169{fill:#e2e1e1;}.cls-170{fill:#e1e0e0;}.cls-171{fill:#e0dfe0;}.cls-172{fill:#dfdedf;}.cls-173{fill:#dedede;}.cls-174{fill:#ddd;}.cls-175{fill:#dcdcdc;}.cls-176{fill:#dcdbdb;}.cls-177{fill:#dbdada;}.cls-178{fill:#dad9d9;}.cls-179{fill:#d9d8d8;}.cls-180{fill:#d8d7d7;}.cls-181{fill:#d7d6d6;}.cls-182{fill:#d6d5d6;}.cls-183{fill:#d5d4d5;}.cls-184{fill:#d4d4d4;}.cls-185{fill:#d3d3d3;}.cls-186{fill:#d2d2d2;}.cls-187{fill:#d2d1d1;}.cls-188{fill:#d1d0d0;}.cls-189{fill:#d0cfcf;}.cls-190{fill:#cfcece;}.cls-191{fill:#cecdcd;}.cls-192{fill:#cdcccc;}.cls-193{fill:#cccbcb;}.cls-194{fill:#cbcaca;}.cls-195{fill:#cac9c9;}.cls-196{fill:#c9c8c8;}.cls-197{fill:#c8c7c7;}.cls-198{fill:#c7c6c7;}.cls-199{fill:#c6c5c6;}.cls-200{fill:#c5c4c5;}.cls-201{fill:#c4c3c4;}.cls-202{fill:#c3c2c3;}.cls-203{fill:#c3c1c2;}.cls-204{fill:#c2c0c1;}.cls-205{fill:#c1bfc0;}.cls-206{fill:#c0bebf;}.cls-207{fill:#bfbdbe;}.cls-208{fill:#bebdbd;}.cls-209{fill:#bdbcbc;}.cls-210{fill:#bcbbbb;}.cls-211{fill:#bbbaba;}.cls-212{fill:#bab9b9;}.cls-213{fill:#b9b8b8;}.cls-214{fill:#b8b7b7;}.cls-215{fill:#b7b6b6;}.cls-216{fill:#b6b5b5;}.cls-217{fill:#b5b4b4;}.cls-218{fill:#b4b3b3;}.cls-219{fill:#b3b2b2;}.cls-220{fill:#b2b1b1;}.cls-221{fill:#b1b0b0;}.cls-222{fill:#b0afaf;}.cls-223{fill:#afaeae;}.cls-224{fill:#aeadad;}.cls-225{fill:#adabac;}.cls-226{fill:#acaaab;}.cls-227{fill:#aba9aa;}.cls-228{fill:#aaa8a9;}.cls-229{fill:#a9a7a8;}.cls-230{fill:#a8a6a7;}.cls-231{fill:#a7a5a6;}.cls-232{fill:#a6a4a5;}.cls-233{fill:#a5a3a4;}.cls-234{fill:#a4a2a3;}.cls-235{fill:#a3a1a2;}.cls-236{fill:#a2a0a1;}.cls-237{fill:#a19fa0;}.cls-238{fill:#a09e9f;}.cls-239{fill:#9f9d9e;}.cls-240{fill:#9e9c9c;}.cls-241{fill:#9d9b9b;}.cls-242{fill:#9c9a9a;}.cls-243{fill:#9b9999;}.cls-244{fill:#9a9898;}.cls-245{fill:#999797;}.cls-246{fill:#989696;}.cls-247{fill:#979595;}.cls-248{fill:#969494;}.cls-249{fill:#959393;}.cls-250{fill:#949292;}.cls-251{fill:#939191;}.cls-252{fill:#918f90;}.cls-253{fill:#908e8f;}.cls-254{fill:#8f8d8e;}.cls-255{fill:#8e8c8d;}.cls-256{fill:#8d8b8c;}.cls-257{fill:#8c8a8b;}.cls-258{fill:#8b898a;}.cls-259{fill:#8a8889;}.cls-260{fill:#898788;}.cls-261{fill:#888686;}.cls-262{fill:#878585;}.cls-263{fill:#868484;}.cls-264{fill:#858383;}.cls-265{fill:#848282;}.cls-266{fill:#838181;}.cls-267{fill:#827f80;}.cls-268{fill:#817e7f;}.cls-269{fill:#807d7e;}.cls-270{fill:#7f7c7d;}.cls-271{fill:#7e7b7c;}.cls-272{fill:#7c7a7b;}.cls-273{fill:#7b797a;}.cls-274{fill:#7a7879;}.cls-275{fill:#797777;}.cls-276{fill:#787676;}.cls-277{fill:#777575;}.cls-278{fill:#767474;}.cls-279{fill:#757273;}.cls-280{fill:#747172;}.cls-281{fill:#737071;}.cls-282{fill:#726f70;}.cls-283{fill:#716e6f;}.cls-284{fill:#706d6e;}.cls-285{fill:#6f6c6d;}.cls-286{fill:#6d6b6b;}.cls-287{fill:#6c6a6a;}.cls-288{fill:#6b6969;}.cls-289{fill:#6a6868;}.cls-290{fill:#696667;}.cls-291{fill:#686566;}.cls-292{fill:#676465;}.cls-293{fill:#666364;}.cls-294{fill:#656263;}.cls-295{fill:#646162;}.cls-296{fill:#636060;}.cls-297{fill:#625f5f;}.cls-298{fill:#605e5e;}.cls-299{fill:#5f5c5d;}.cls-300{fill:#5e5b5c;}.cls-301{fill:#5d5a5b;}.cls-302{fill:#5c595a;}.cls-303{fill:#5b5859;}.cls-304{fill:#5a5758;}.cls-305{fill:#595657;}.cls-306{fill:#585555;}.cls-307{fill:#575454;}.cls-308{fill:#555253;}.cls-309{fill:#545152;}.cls-310{fill:#535051;}.cls-311{fill:#524f50;}.cls-312{fill:#514e4f;}.cls-313{fill:#504d4e;}.cls-314{fill:#4f4c4c;}.cls-315{fill:#4e4b4b;}.cls-316{fill:#4d494a;}.cls-317{fill:#4c4849;}.cls-318{fill:#4a4748;}.cls-319{fill:#494647;}.cls-320{fill:#484546;}.cls-321{fill:#474445;}.cls-322{fill:#464343;}.cls-323{fill:#454142;}.cls-324{fill:#444041;}.cls-325{fill:#433f40;}.cls-326{fill:#413e3f;}.cls-327{fill:#403d3e;}.cls-328{fill:#3f3c3d;}.cls-329{fill:#3e3b3c;}.cls-330{fill:#3d393a;}.cls-331{fill:#3c3839;}.cls-332{fill:#3b3738;}.cls-333{fill:#3a3637;}.cls-334{fill:#393536;}.cls-335{fill:#373435;}.cls-336{fill:#363334;}.cls-337{fill:#353132;}.cls-338{fill:#343031;}.cls-339{fill:#332f30;}.cls-340{fill:#322e2f;}.cls-341{fill:#312d2e;}.cls-342{fill:#2f2c2d;}.cls-343{fill:#2e2b2c;}.cls-344{fill:#2d292a;}.cls-345{fill:#2c2829;}.cls-346{fill:#2b2728;}.cls-347{fill:#2a2627;}.cls-348{fill:#292526;}.cls-349{fill:#282425;}.cls-350{fill:#262223;}.cls-351{fill:#252122;}.cls-352{fill:#242021;}.cls-353{fill:#231f20;}.cls-354{fill:url(#linear-gradient-17);}</style><linearGradient id="linear-gradient" x1="35.51" y1="-36.08" x2="102.51" y2="91.59" gradientUnits="userSpaceOnUse"><stop offset="0" stop-color="#68d7e3"/><stop offset="1" stop-color="#007aff"/></linearGradient><linearGradient id="linear-gradient-2" x1="137.78" y1="-11.32" x2="77.2" y2="106.02" xlink:href="#linear-gradient"/><linearGradient id="linear-gradient-3" x1="22.65" y1="23.55" x2="34.83" y2="68.34" gradientUnits="userSpaceOnUse"><stop offset="0.1" stop-color="#6f7173"/><stop offset="0.12" stop-color="#787a7c"/><stop offset="0.24" stop-color="#b2b3b4"/><stop offset="0.35" stop-color="#dcdcdd"/><stop offset="0.43" stop-color="#f5f6f6"/><stop offset="0.48" stop-color="#fff"/><stop offset="0.54" stop-color="#ececec"/><stop offset="0.67" stop-color="#bcbbbb"/><stop offset="0.84" stop-color="#706d6e"/><stop offset="1" stop-color="#231f20"/></linearGradient><linearGradient id="linear-gradient-4" x1="-399.57" y1="142.69" x2="-393.2" y2="166.13" gradientTransform="translate(183.57 438.68) rotate(90)" xlink:href="#linear-gradient-3"/><linearGradient id="linear-gradient-5" x1="-387.12" y1="142.69" x2="-380.74" y2="166.13" gradientTransform="translate(183.57 438.68) rotate(90)" xlink:href="#linear-gradient-3"/><linearGradient id="linear-gradient-6" x1="12.05" y1="47.49" x2="25.88" y2="49.49" xlink:href="#linear-gradient-3"/><linearGradient id="linear-gradient-7" x1="-388.18" y1="146.85" x2="-377.84" y2="152.68" gradientTransform="translate(183.57 438.68) rotate(90)" xlink:href="#linear-gradient-3"/><linearGradient id="linear-gradient-8" x1="20.74" y1="37.04" x2="26.42" y2="57.9" xlink:href="#linear-gradient-3"/><linearGradient id="linear-gradient-9" x1="31.08" y1="37.04" x2="36.75" y2="57.9" xlink:href="#linear-gradient-3"/><linearGradient id="linear-gradient-10" x1="75.68" y1="57.06" x2="75.67" y2="85.37" xlink:href="#linear-gradient-3"/><linearGradient id="linear-gradient-11" x1="54.4" y1="73.05" x2="54.35" y2="98.42" xlink:href="#linear-gradient-3"/><linearGradient id="linear-gradient-12" x1="65.04" y1="39.62" x2="158.8" y2="79.79" gradientUnits="userSpaceOnUse"><stop offset="0.1" stop-color="#6f7173"/><stop offset="0.12" stop-color="#787a7c"/><stop offset="0.29" stop-color="#b2b3b4"/><stop offset="0.44" stop-color="#dcdcdd"/><stop offset="0.55" stop-color="#f5f6f6"/><stop offset="0.62" stop-color="#fff"/><stop offset="0.66" stop-color="#ececec"/><stop offset="0.75" stop-color="#bcbbbb"/><stop offset="0.88" stop-color="#706d6e"/><stop offset="1" stop-color="#231f20"/></linearGradient><linearGradient id="linear-gradient-13" x1="140.92" y1="54.26" x2="140.8" y2="115.72" xlink:href="#linear-gradient-3"/><linearGradient id="linear-gradient-14" x1="125.87" y1="84.97" x2="152.45" y2="91.32" gradientUnits="userSpaceOnUse"><stop offset="0.1" stop-color="#6f7173"/><stop offset="0.62" stop-color="#737577"/><stop offset="0.72" stop-color="#626264"/><stop offset="0.92" stop-color="#353234"/><stop offset="1" stop-color="#231f20"/></linearGradient><linearGradient id="linear-gradient-15" x1="41.89" y1="-19.62" x2="65.21" y2="56.92" xlink:href="#linear-gradient-3"/><linearGradient id="linear-gradient-16" x1="155.88" y1="9.68" x2="123" y2="32.63" xlink:href="#linear-gradient-3"/><clipPath id="clip-path"><polygon class="cls-1" points="149.79 17.97 144.13 16.45 148.28 12.3 149.79 17.97"/></clipPath><linearGradient id="linear-gradient-17" x1="132.84" y1="10.87" x2="145.69" y2="30.8" xlink:href="#linear-gradient-3"/></defs><title>Card-CashBack</title><g class="cls-2"><g id="Layer_1" data-name="Layer 1"><rect class="cls-3" x="0.77" y="0.76" width="161.59" height="101.82" rx="5.68" ry="5.68"/><path class="cls-4" d="M156.67,102.58H6.45A5.68,5.68,0,0,1,.77,96.9s43.83-37.47,88-64.14c32.88-19.86,67.93-32,67.93-32a5.68,5.68,0,0,1,5.68,5.68V96.9A5.68,5.68,0,0,1,156.67,102.58Z"/><rect class="cls-5" x="16.7" y="36.4" width="24.9" height="22.13" rx="2.76" ry="2.76"/><line class="cls-6" x1="41.61" y1="42.3" x2="16.7" y2="42.3"/><line class="cls-7" x1="41.61" y1="54.75" x2="16.7" y2="54.75"/><rect class="cls-8" x="16.7" y="48.16" width="6.88" height="1"/><rect class="cls-9" x="33.91" y="48.16" width="7.69" height="1"/><line class="cls-10" x1="23.58" y1="36.4" x2="23.58" y2="58.53"/><line class="cls-11" x1="33.91" y1="36.4" x2="33.91" y2="58.53"/><path class="cls-12" d="M20.1,72.68h.78a.73.73,0,0,1,.47.12.61.61,0,0,1,0,.79.72.72,0,0,1-.47.12H18a.72.72,0,0,1-.47-.12.62.62,0,0,1,0-.79.73.73,0,0,1,.47-.12h.9V68.62l-.54.14-.21,0h-.12a.38.38,0,0,1-.31-.13.53.53,0,0,1-.11-.36.38.38,0,0,1,.12-.28.82.82,0,0,1,.37-.18l1.19-.33.25-.06.16,0a.33.33,0,0,1,.27.11.6.6,0,0,1,.08.36Zm3.63-4v1.11a5,5,0,0,1,.57-.13,2.87,2.87,0,0,1,.48,0,1.83,1.83,0,0,1,1.4.57,2.11,2.11,0,0,1,.53,1.5,2,2,0,0,1-.66,1.6,2.88,2.88,0,0,1-1.9.55,3.63,3.63,0,0,1-1.36-.2.63.63,0,0,1-.46-.58.55.55,0,0,1,.16-.4.53.53,0,0,1,.39-.17,2.82,2.82,0,0,1,.6.14,2.84,2.84,0,0,0,.8.14,1.18,1.18,0,0,0,.84-.28,1,1,0,0,0,.3-.8,1.11,1.11,0,0,0-.28-.8,1,1,0,0,0-.76-.3,1.8,1.8,0,0,0-.73.2,1.76,1.76,0,0,1-.58.2.46.46,0,0,1-.39-.15.88.88,0,0,1-.12-.52V68a.5.5,0,0,1,.07-.33.34.34,0,0,1,.24-.07H26a.58.58,0,0,1,.42.12.6.6,0,0,1,.12.43.44.44,0,0,1-.54.53Zm5.37,3.92h1.69v0a.47.47,0,0,1,.13-.37.56.56,0,0,1,.39-.12.44.44,0,0,1,.33.12.46.46,0,0,1,.12.33v.06l0,.75a.45.45,0,0,1-.07.28.31.31,0,0,1-.21.06H28a.68.68,0,0,1-.43-.12.41.41,0,0,1-.15-.34.76.76,0,0,1,.09-.36,1.54,1.54,0,0,1,.3-.37l2-1.89a2.36,2.36,0,0,0,.47-.62,1.35,1.35,0,0,0,.16-.62.88.88,0,0,0-.21-.65.86.86,0,0,0-.64-.21,1.24,1.24,0,0,0-.45.07.68.68,0,0,0-.3.21,1.52,1.52,0,0,0-.14.21q-.23.38-.51.38a.43.43,0,0,1-.36-.16.76.76,0,0,1-.12-.47,1.15,1.15,0,0,1,.08-.48A.88.88,0,0,1,28,68a2.84,2.84,0,0,1,.79-.37,3.23,3.23,0,0,1,.9-.12,2.05,2.05,0,0,1,1.45.49,1.71,1.71,0,0,1,.53,1.32,2.19,2.19,0,0,1-.28,1.06,3.77,3.77,0,0,1-.86,1Zm6.69-2.22a1.54,1.54,0,0,1,.82.55,1.62,1.62,0,0,1,.27,1,1.79,1.79,0,0,1-.61,1.43,2.45,2.45,0,0,1-1.66.53,3.11,3.11,0,0,1-1.4-.28q-.55-.28-.55-.68a.51.51,0,0,1,.15-.38.56.56,0,0,1,.4-.15,2.35,2.35,0,0,1,.61.22,2.2,2.2,0,0,0,.87.22.85.85,0,0,0,.94-.94,1,1,0,0,0-.21-.69,1.18,1.18,0,0,0-.78-.23.59.59,0,0,1-.41-.12.56.56,0,0,1-.1-.39.42.42,0,0,1,.41-.44h.09a1.13,1.13,0,0,0,.67-.25.86.86,0,0,0,.15-.57.73.73,0,0,0-.19-.53.7.7,0,0,0-.52-.19,1.8,1.8,0,0,0-.8.22,1.74,1.74,0,0,1-.61.22.39.39,0,0,1-.3-.12.44.44,0,0,1-.11-.31q0-.41.57-.7a3,3,0,0,1,1.4-.29,2,2,0,0,1,1.34.43,1.45,1.45,0,0,1,.5,1.15,1.35,1.35,0,0,1-.23.8A1.71,1.71,0,0,1,35.79,70.4Zm15.27-1.7v1.11a5,5,0,0,1,.57-.13,2.87,2.87,0,0,1,.48,0,1.83,1.83,0,0,1,1.4.57,2.11,2.11,0,0,1,.53,1.5,2,2,0,0,1-.66,1.6,2.88,2.88,0,0,1-1.9.55,3.63,3.63,0,0,1-1.36-.2.63.63,0,0,1-.46-.58.55.55,0,0,1,.16-.4.53.53,0,0,1,.39-.17,2.82,2.82,0,0,1,.6.14,2.84,2.84,0,0,0,.8.14,1.18,1.18,0,0,0,.84-.28,1,1,0,0,0,.3-.8,1.11,1.11,0,0,0-.28-.8,1,1,0,0,0-.76-.3,1.8,1.8,0,0,0-.73.2,1.76,1.76,0,0,1-.58.2.46.46,0,0,1-.39-.15.88.88,0,0,1-.12-.52V68A.5.5,0,0,1,50,67.7a.34.34,0,0,1,.24-.07h3.16a.58.58,0,0,1,.42.12.6.6,0,0,1,.12.43.44.44,0,0,1-.54.53Zm5.13,1.59a1.6,1.6,0,0,1,.56-.41,1.74,1.74,0,0,1,.7-.14,1.69,1.69,0,0,1,1.31.59,2.11,2.11,0,0,1,.53,1.46,2,2,0,0,1-.6,1.49,2.19,2.19,0,0,1-1.58.57,1.94,1.94,0,0,1-1.61-.74,3.22,3.22,0,0,1-.59-2,3.69,3.69,0,0,1,.91-2.6,3.12,3.12,0,0,1,2.41-1,2.23,2.23,0,0,1,.72.08.28.28,0,0,1,.22.27q0,.44-.68.48l-.45,0a1.86,1.86,0,0,0-1.2.55A2.92,2.92,0,0,0,56.19,70.3Zm1.87,1.58a1.14,1.14,0,0,0-.26-.77.84.84,0,0,0-.67-.3.86.86,0,0,0-.66.29,1.05,1.05,0,0,0-.27.73,1.12,1.12,0,0,0,.27.78.89.89,0,0,0,.7.3.81.81,0,0,0,.64-.29A1.1,1.1,0,0,0,58.07,71.88Zm6-3.74-1.56,5.43a.33.33,0,0,1-.1.17.31.31,0,0,1-.18,0h-.89a.17.17,0,0,1-.12,0,.13.13,0,0,1,0-.1.64.64,0,0,1,0-.09v-.06l1.73-4.78H60.82l0,.09a.39.39,0,0,1-.15.26.46.46,0,0,1-.3.1.42.42,0,0,1-.3-.09.37.37,0,0,1-.1-.28.46.46,0,0,1,0-.06.58.58,0,0,0,0-.06l.09-.75a.3.3,0,0,1,.1-.21.34.34,0,0,1,.23-.07h3.41a.27.27,0,0,1,.2.06.26.26,0,0,1,.06.19Zm4.28,2.45a1.79,1.79,0,0,1,.84.58,1.44,1.44,0,0,1,.29.9,1.59,1.59,0,0,1-.62,1.3,2.83,2.83,0,0,1-3.22,0A1.57,1.57,0,0,1,65,72.09a1.46,1.46,0,0,1,.29-.91,1.8,1.8,0,0,1,.84-.59,2,2,0,0,1-.8-.58,1.33,1.33,0,0,1-.27-.83,1.5,1.5,0,0,1,.6-1.22,2.75,2.75,0,0,1,3.11,0,1.5,1.5,0,0,1,.61,1.22,1.33,1.33,0,0,1-.27.83A1.9,1.9,0,0,1,68.32,70.59Zm-1.1.53a1,1,0,0,0-.71.25.91.91,0,0,0,0,1.3,1,1,0,0,0,.71.25,1,1,0,0,0,.72-.25.91.91,0,0,0,0-1.3A1,1,0,0,0,67.22,71.12Zm0-2.74a1,1,0,0,0-.67.24.83.83,0,0,0,0,1.21,1.07,1.07,0,0,0,1.34,0,.85.85,0,0,0,0-1.22A1,1,0,0,0,67.22,68.38ZM85.13,71a1.57,1.57,0,0,1-.56.41,1.72,1.72,0,0,1-.7.14A1.68,1.68,0,0,1,82.56,71,2.11,2.11,0,0,1,82,69.54,2,2,0,0,1,82.63,68a2.19,2.19,0,0,1,1.57-.57,2,2,0,0,1,1.61.74,3.21,3.21,0,0,1,.59,2,3.69,3.69,0,0,1-.91,2.61,3.12,3.12,0,0,1-2.4,1,2.19,2.19,0,0,1-.72-.08.29.29,0,0,1-.22-.27q0-.44.68-.47l.47,0a1.89,1.89,0,0,0,1.2-.56A2.93,2.93,0,0,0,85.13,71Zm0-1.53a1.13,1.13,0,0,0-.27-.79.9.9,0,0,0-.7-.3.8.8,0,0,0-.64.29,1.11,1.11,0,0,0-.25.75,1.15,1.15,0,0,0,.26.78.84.84,0,0,0,.66.3.86.86,0,0,0,.67-.29A1.05,1.05,0,0,0,85.11,69.51ZM90.34,71a1.57,1.57,0,0,1-.56.41,1.72,1.72,0,0,1-.7.14A1.68,1.68,0,0,1,87.77,71a2.11,2.11,0,0,1-.53-1.46A2,2,0,0,1,87.84,68a2.19,2.19,0,0,1,1.57-.57,2,2,0,0,1,1.61.74,3.21,3.21,0,0,1,.59,2,3.69,3.69,0,0,1-.91,2.61,3.12,3.12,0,0,1-2.4,1,2.19,2.19,0,0,1-.72-.08.29.29,0,0,1-.22-.27q0-.44.68-.47l.47,0a1.89,1.89,0,0,0,1.2-.56A2.93,2.93,0,0,0,90.34,71Zm0-1.53a1.13,1.13,0,0,0-.27-.79.9.9,0,0,0-.7-.3.8.8,0,0,0-.64.29,1.11,1.11,0,0,0-.25.75,1.15,1.15,0,0,0,.26.78.84.84,0,0,0,.66.3.86.86,0,0,0,.67-.29A1.05,1.05,0,0,0,90.32,69.51Zm6.07-1.36-1.56,5.43a.33.33,0,0,1-.1.17.31.31,0,0,1-.18,0h-.89a.17.17,0,0,1-.12,0,.13.13,0,0,1,0-.1.64.64,0,0,1,0-.09v-.06l1.73-4.78H93.16l0,.09a.39.39,0,0,1-.15.26.46.46,0,0,1-.3.1.42.42,0,0,1-.3-.09.37.37,0,0,1-.1-.28.46.46,0,0,1,0-.06.58.58,0,0,0,0-.06l.09-.75a.3.3,0,0,1,.1-.21.34.34,0,0,1,.23-.07h3.41a.27.27,0,0,1,.2.06.26.26,0,0,1,.06.19Zm4.28,2.45a1.79,1.79,0,0,1,.84.58,1.44,1.44,0,0,1,.29.9,1.59,1.59,0,0,1-.62,1.3,2.83,2.83,0,0,1-3.22,0,1.57,1.57,0,0,1-.62-1.28,1.46,1.46,0,0,1,.29-.91,1.8,1.8,0,0,1,.84-.59,2,2,0,0,1-.8-.58,1.33,1.33,0,0,1-.27-.83A1.5,1.5,0,0,1,98,68a2.75,2.75,0,0,1,3.11,0,1.5,1.5,0,0,1,.61,1.22,1.33,1.33,0,0,1-.27.83A1.9,1.9,0,0,1,100.67,70.59Zm-1.1.53a1,1,0,0,0-.71.25.91.91,0,0,0,0,1.3,1,1,0,0,0,.71.25,1,1,0,0,0,.72-.25.91.91,0,0,0,0-1.3A1,1,0,0,0,99.57,71.12Zm0-2.74a1,1,0,0,0-.67.24.83.83,0,0,0,0,1.21,1.07,1.07,0,0,0,1.34,0,.85.85,0,0,0,0-1.22A1,1,0,0,0,99.57,68.38Zm17.91,2a1.54,1.54,0,0,1,.82.55,1.62,1.62,0,0,1,.27,1,1.79,1.79,0,0,1-.61,1.43,2.45,2.45,0,0,1-1.66.53,3.11,3.11,0,0,1-1.4-.28q-.55-.28-.55-.68a.51.51,0,0,1,.15-.38.56.56,0,0,1,.4-.15,2.35,2.35,0,0,1,.61.22,2.2,2.2,0,0,0,.87.22.85.85,0,0,0,.94-.94,1,1,0,0,0-.21-.69,1.18,1.18,0,0,0-.78-.23.59.59,0,0,1-.41-.12.56.56,0,0,1-.1-.39.42.42,0,0,1,.41-.44h.09a1.13,1.13,0,0,0,.67-.25.86.86,0,0,0,.15-.57.73.73,0,0,0-.19-.53.7.7,0,0,0-.52-.19,1.8,1.8,0,0,0-.8.22,1.74,1.74,0,0,1-.61.22.39.39,0,0,1-.3-.12.44.44,0,0,1-.11-.31q0-.41.57-.7a3,3,0,0,1,1.4-.29,2,2,0,0,1,1.34.43,1.45,1.45,0,0,1,.5,1.15,1.35,1.35,0,0,1-.23.8A1.71,1.71,0,0,1,117.47,70.4Zm4.75,2.28H123a.73.73,0,0,1,.47.12.61.61,0,0,1,0,.79.72.72,0,0,1-.47.12h-2.84a.72.72,0,0,1-.47-.12.62.62,0,0,1,0-.79.73.73,0,0,1,.47-.12h.9V68.62l-.54.14-.21,0h-.12a.38.38,0,0,1-.31-.13.53.53,0,0,1-.11-.36.38.38,0,0,1,.12-.28.82.82,0,0,1,.37-.18l1.19-.33.25-.06.16,0a.33.33,0,0,1,.27.11.6.6,0,0,1,.08.36Zm5.07,0h.78a.73.73,0,0,1,.47.12.61.61,0,0,1,0,.79.72.72,0,0,1-.47.12h-2.84a.72.72,0,0,1-.47-.12.62.62,0,0,1,0-.79.73.73,0,0,1,.47-.12h.9V68.62l-.54.14-.21,0h-.12a.38.38,0,0,1-.31-.13.53.53,0,0,1-.11-.36A.38.38,0,0,1,125,68a.82.82,0,0,1,.37-.18l1.19-.33.25-.06.16,0a.33.33,0,0,1,.27.11.6.6,0,0,1,.08.36Zm3.63-4v1.11a5,5,0,0,1,.57-.13,2.87,2.87,0,0,1,.48,0,1.83,1.83,0,0,1,1.4.57,2.11,2.11,0,0,1,.53,1.5,2,2,0,0,1-.66,1.6,2.88,2.88,0,0,1-1.9.55,3.63,3.63,0,0,1-1.36-.2.63.63,0,0,1-.46-.58.55.55,0,0,1,.16-.4.53.53,0,0,1,.39-.17,2.82,2.82,0,0,1,.6.14,2.84,2.84,0,0,0,.8.14,1.18,1.18,0,0,0,.84-.28,1,1,0,0,0,.3-.8,1.11,1.11,0,0,0-.28-.8,1,1,0,0,0-.76-.3,1.8,1.8,0,0,0-.73.2,1.76,1.76,0,0,1-.58.2.46.46,0,0,1-.39-.15.88.88,0,0,1-.12-.52V68a.5.5,0,0,1,.07-.33.34.34,0,0,1,.24-.07h3.16a.58.58,0,0,1,.42.12.6.6,0,0,1,.12.43.44.44,0,0,1-.54.53Z"/><path class="cls-13" d="M20.93,86v2.12a2.94,2.94,0,0,1-.06.72,1.05,1.05,0,0,1-.21.4,1.15,1.15,0,0,1-.52.34,2.5,2.5,0,0,1-.81.11,3,3,0,0,1-.64-.07,2.78,2.78,0,0,1-.59-.2.38.38,0,0,1-.21-.19,1.12,1.12,0,0,1,0-.39v-.76a.81.81,0,0,1,.09-.44.35.35,0,0,1,.31-.13q.32,0,.35.49a1.17,1.17,0,0,0,0,.13,1,1,0,0,0,.19.59.63.63,0,0,0,.48.16.67.67,0,0,0,.57-.22,1.45,1.45,0,0,0,.17-.82V86h-.6a.51.51,0,0,1-.35-.1.52.52,0,0,1,0-.62.52.52,0,0,1,.35-.09h1.82a.52.52,0,0,1,.35.09.52.52,0,0,1,0,.62.51.51,0,0,1-.35.1Zm2.84-.94a1.83,1.83,0,0,1,1.44.65,2.74,2.74,0,0,1,0,3.33,1.93,1.93,0,0,1-2.89,0,2.72,2.72,0,0,1,0-3.33A1.83,1.83,0,0,1,23.78,85.09Zm0,.86a.83.83,0,0,0-.72.39,2.32,2.32,0,0,0,0,2.15.86.86,0,0,0,1.44,0,2.32,2.32,0,0,0,0-2.15A.83.83,0,0,0,23.78,85.95ZM27.4,86v.85h1.17V86h-.06a.4.4,0,0,1-.29-.1.42.42,0,0,1-.1-.3.41.41,0,0,1,.11-.31.51.51,0,0,1,.35-.1h.92a.49.49,0,0,1,.34.1.42.42,0,0,1,.1.31.43.43,0,0,1-.1.3.38.38,0,0,1-.29.1h-.06v2.76h.06a.39.39,0,0,1,.29.1.41.41,0,0,1,.1.3.42.42,0,0,1-.1.31.51.51,0,0,1-.35.1h-.92a.51.51,0,0,1-.35-.09.41.41,0,0,1-.1-.32.41.41,0,0,1,.1-.3.4.4,0,0,1,.29-.1h.06V87.7H27.4v1.09h.06a.4.4,0,0,1,.29.1.4.4,0,0,1,.1.3.41.41,0,0,1-.1.31.51.51,0,0,1-.35.1h-.92a.51.51,0,0,1-.35-.09.52.52,0,0,1,0-.62.39.39,0,0,1,.29-.1h.06V86h-.06a.38.38,0,0,1-.29-.1.43.43,0,0,1-.1-.3.42.42,0,0,1,.1-.31.49.49,0,0,1,.34-.1h.92a.51.51,0,0,1,.35.1.4.4,0,0,1,.11.31.42.42,0,0,1-.1.3.39.39,0,0,1-.29.1Zm5.69,2V86h-.2a.48.48,0,0,1-.34-.1.41.41,0,0,1-.1-.31.42.42,0,0,1,.1-.31.48.48,0,0,1,.34-.1h1a.48.48,0,0,1,.33.1.42.42,0,0,1,.1.31.43.43,0,0,1-.1.3A.36.36,0,0,1,34,86h-.06v3.36a.42.42,0,0,1,0,.22s-.08,0-.16,0h-.36a.55.55,0,0,1-.24,0,.3.3,0,0,1-.12-.13l-1.48-2.71v2h.21a.48.48,0,0,1,.33.09.4.4,0,0,1,.1.31.42.42,0,0,1-.1.31.47.47,0,0,1-.33.1h-1a.48.48,0,0,1-.33-.1.42.42,0,0,1-.1-.31.42.42,0,0,1,.1-.3.37.37,0,0,1,.29-.1h.06V86h-.06a.37.37,0,0,1-.28-.11.42.42,0,0,1-.1-.3.41.41,0,0,1,.11-.31.48.48,0,0,1,.33-.1h.58a.5.5,0,0,1,.29.06.73.73,0,0,1,.17.23Zm8.46-2.77a.37.37,0,0,1,.12-.16.38.38,0,0,1,.21,0q.21,0,.27.08a.62.62,0,0,1,.07.32v.75a.44.44,0,0,1-.08.31.38.38,0,0,1-.28.09.4.4,0,0,1-.38-.28l0-.07a.8.8,0,0,0-.3-.35.93.93,0,0,0-1,0,.48.48,0,0,0-.2.39q0,.34.91.54l.24.05a2,2,0,0,1,1,.47,1.2,1.2,0,0,1,.31.87A1.29,1.29,0,0,1,42,89.35a2,2,0,0,1-1.28.37,3.38,3.38,0,0,1-.58,0,2.59,2.59,0,0,1-.49-.14.36.36,0,0,1-.13.14.42.42,0,0,1-.21,0,.44.44,0,0,1-.31-.09.45.45,0,0,1-.09-.31V88.4a.51.51,0,0,1,.09-.34.4.4,0,0,1,.31-.1q.23,0,.39.35l.06.13a1,1,0,0,0,.39.43,1.21,1.21,0,0,0,.61.14.82.82,0,0,0,.51-.14.47.47,0,0,0,.18-.4q0-.4-.82-.6l-.39-.1a2.08,2.08,0,0,1-1-.47,1.08,1.08,0,0,1-.27-.78,1.31,1.31,0,0,1,.46-1,1.73,1.73,0,0,1,1.19-.4,2.18,2.18,0,0,1,.48.05A2.42,2.42,0,0,1,41.55,85.29ZM45,87.71l.68-2.1a.62.62,0,0,1,.18-.3.46.46,0,0,1,.3-.09h.56a.51.51,0,0,1,.35.1.41.41,0,0,1,.11.31.42.42,0,0,1-.1.3.39.39,0,0,1-.29.1h-.06l.1,2.76h.06a.38.38,0,0,1,.29.1.52.52,0,0,1,0,.61.49.49,0,0,1-.34.1H46a.5.5,0,0,1-.34-.09.52.52,0,0,1,0-.62.38.38,0,0,1,.29-.1H46l0-2.26-.52,1.68a.53.53,0,0,1-.16.27.46.46,0,0,1-.29.08.47.47,0,0,1-.29-.08.51.51,0,0,1-.17-.27L44,86.53l0,2.26H44a.39.39,0,0,1,.29.1.52.52,0,0,1,0,.61.5.5,0,0,1-.34.1h-.81a.5.5,0,0,1-.34-.1.52.52,0,0,1,0-.61.39.39,0,0,1,.29-.1h.06l.1-2.76h-.06a.39.39,0,0,1-.29-.1.42.42,0,0,1-.1-.3.41.41,0,0,1,.1-.31.51.51,0,0,1,.35-.1h.56a.45.45,0,0,1,.3.09.66.66,0,0,1,.18.3ZM49.61,86v2.76h.6a.52.52,0,0,1,.35.09.39.39,0,0,1,.1.31.41.41,0,0,1-.11.31.5.5,0,0,1-.35.1H48.09a.51.51,0,0,1-.35-.1.41.41,0,0,1-.1-.31.39.39,0,0,1,.1-.31.52.52,0,0,1,.35-.09h.6V86h-.6a.51.51,0,0,1-.35-.1.41.41,0,0,1-.1-.31.4.4,0,0,1,.1-.31.52.52,0,0,1,.35-.09h2.12a.52.52,0,0,1,.35.09.53.53,0,0,1,0,.62.51.51,0,0,1-.35.1Zm4.79,0h-.75v2.76h.6a.5.5,0,0,1,.34.1.41.41,0,0,1,.1.31.42.42,0,0,1-.1.31.5.5,0,0,1-.34.1H52.13a.49.49,0,0,1-.34-.1.53.53,0,0,1,0-.63.49.49,0,0,1,.34-.09h.6V86H52l0,.75v.09a.39.39,0,0,1-.09.28.34.34,0,0,1-.26.1.37.37,0,0,1-.29-.11.5.5,0,0,1-.09-.34v0l0-1.11c0-.22,0-.35.09-.4a.51.51,0,0,1,.31-.07h3.07a.51.51,0,0,1,.31.07c.05,0,.08.18.09.4l0,1.11v0a.51.51,0,0,1-.09.34.36.36,0,0,1-.29.1.34.34,0,0,1-.28-.1.62.62,0,0,1-.09-.37Zm2.46,0v.85H58V86H58a.4.4,0,0,1-.29-.1.42.42,0,0,1-.1-.3.41.41,0,0,1,.11-.31.51.51,0,0,1,.35-.1h.92a.49.49,0,0,1,.34.1.42.42,0,0,1,.1.31.43.43,0,0,1-.1.3A.38.38,0,0,1,59,86h-.06v2.76H59a.39.39,0,0,1,.29.1.41.41,0,0,1,.1.3.42.42,0,0,1-.1.31.51.51,0,0,1-.35.1H58a.51.51,0,0,1-.35-.09.41.41,0,0,1-.1-.32.41.41,0,0,1,.1-.3.4.4,0,0,1,.29-.1H58V87.7H56.85v1.09h.06a.4.4,0,0,1,.29.1.4.4,0,0,1,.1.3.41.41,0,0,1-.1.31.51.51,0,0,1-.35.1h-.92a.51.51,0,0,1-.35-.09.52.52,0,0,1,0-.62.39.39,0,0,1,.29-.1h.06V86h-.06a.38.38,0,0,1-.29-.1.43.43,0,0,1-.1-.3.42.42,0,0,1,.1-.31.49.49,0,0,1,.34-.1h.92a.51.51,0,0,1,.35.1.4.4,0,0,1,.11.31.42.42,0,0,1-.1.3.39.39,0,0,1-.29.1Zm17.92,2.79h.58a.52.52,0,0,1,.35.09.49.49,0,0,1,0,.6.52.52,0,0,1-.35.09h-2.1a.52.52,0,0,1-.35-.09.49.49,0,0,1,0-.6.52.52,0,0,1,.35-.09h.66V85.69l-.4.11-.15,0h-.09a.28.28,0,0,1-.23-.1.42.42,0,0,1-.08-.27.3.3,0,0,1,.09-.22.59.59,0,0,1,.27-.14l.88-.25.18,0h.12a.24.24,0,0,1,.2.08.47.47,0,0,1,.06.27Zm3.27-4a1.53,1.53,0,0,1,1.3.66,3.59,3.59,0,0,1,0,3.59,1.53,1.53,0,0,1-1.3.66,1.51,1.51,0,0,1-1.29-.66,3.63,3.63,0,0,1,0-3.6A1.51,1.51,0,0,1,78,84.81Zm0,.83a.66.66,0,0,0-.6.43,2.65,2.65,0,0,0-.22,1.19,2.71,2.71,0,0,0,.22,1.2.63.63,0,0,0,1.2,0,2.68,2.68,0,0,0,.22-1.2,2.64,2.64,0,0,0-.22-1.19A.67.67,0,0,0,78,85.64ZM83.15,85l-2.09,4.65a1.1,1.1,0,0,1-.18.3.26.26,0,0,1-.19.09.44.44,0,0,1-.29-.11.34.34,0,0,1-.13-.27,1,1,0,0,1,.1-.33v0l2.09-4.64a1.13,1.13,0,0,1,.18-.31.26.26,0,0,1,.19-.09.44.44,0,0,1,.29.11.33.33,0,0,1,.13.27.49.49,0,0,1,0,.14A1.62,1.62,0,0,1,83.15,85ZM85,88.77h1.25v0a.37.37,0,0,1,.1-.28.41.41,0,0,1,.29-.09.32.32,0,0,1,.24.09.36.36,0,0,1,.09.26v0l0,.57a.35.35,0,0,1-.05.21.22.22,0,0,1-.16,0H84.15a.49.49,0,0,1-.32-.09.32.32,0,0,1-.11-.26.6.6,0,0,1,.07-.28,1.19,1.19,0,0,1,.22-.29l1.45-1.46a1.81,1.81,0,0,0,.35-.47,1.07,1.07,0,0,0,.12-.47.7.7,0,0,0-.16-.5.62.62,0,0,0-.47-.16.89.89,0,0,0-.33.06.51.51,0,0,0-.22.16l-.1.16q-.17.29-.38.29a.31.31,0,0,1-.27-.12.6.6,0,0,1-.09-.36.91.91,0,0,1,.06-.37.68.68,0,0,1,.23-.24,2.07,2.07,0,0,1,.59-.29,2.3,2.3,0,0,1,.67-.09,1.48,1.48,0,0,1,1.07.38,1.34,1.34,0,0,1,.4,1,1.74,1.74,0,0,1-.2.82,2.89,2.89,0,0,1-.64.78Zm3.94,0h1.25v0a.37.37,0,0,1,.1-.28.41.41,0,0,1,.29-.09.32.32,0,0,1,.24.09.36.36,0,0,1,.09.26v0l0,.57a.35.35,0,0,1-.05.21.22.22,0,0,1-.16,0H88.09a.49.49,0,0,1-.32-.09.32.32,0,0,1-.11-.26.6.6,0,0,1,.07-.28,1.19,1.19,0,0,1,.22-.29l1.45-1.46a1.81,1.81,0,0,0,.35-.47,1.07,1.07,0,0,0,.12-.47.7.7,0,0,0-.16-.5.62.62,0,0,0-.47-.16.89.89,0,0,0-.33.06.51.51,0,0,0-.22.16l-.1.16q-.17.29-.38.29a.31.31,0,0,1-.27-.12.6.6,0,0,1-.09-.36.91.91,0,0,1,.06-.37.68.68,0,0,1,.23-.24,2.07,2.07,0,0,1,.59-.29,2.3,2.3,0,0,1,.67-.09,1.48,1.48,0,0,1,1.07.38,1.34,1.34,0,0,1,.4,1,1.74,1.74,0,0,1-.2.82,2.89,2.89,0,0,1-.64.78Z"/><polygon class="cls-14" points="93.11 0.76 162.35 51.59 93 102.5 93.11 0.76"/><rect class="cls-15" x="125.62" y="81.34" width="30.46" height="13.92" rx="2.7" ry="2.7"/><path class="cls-16" d="M135.13,87.74l-1.12.1a1.31,1.31,0,0,0-1.38-1.13,1.74,1.74,0,0,0,0,3.45A1.3,1.3,0,0,0,134,89.05l1.13.1a2.36,2.36,0,0,1-2.47,2,2.68,2.68,0,0,1,0-5.36A2.36,2.36,0,0,1,135.13,87.74Zm4.38,3.3-.42-1h-2.16l-.43,1h-1.18l2.23-5.2h.9l2.24,5.2Zm-.8-1.88-.7-1.66-.7,1.66Zm4.54,0h-.87V91h-1.08v-5.2h2.23a1.7,1.7,0,0,1,.84,3.16l1.11,2h-1.21Zm.15-1a.72.72,0,1,0,0-1.43h-1v1.43Zm5-2.38a2.6,2.6,0,0,1,0,5.2h-2.14v-5.2Zm-1.07,4.29h1.08c.9,0,1.51-.56,1.51-1.68s-.6-1.68-1.51-1.68H147.3Z"/><path class="cls-17" d="M27.3,19.35l-1.86.17A3.21,3.21,0,0,0,22,16.74c-2.2,0-3.72,1.58-3.72,4.17s1.63,4.17,3.73,4.17a3.18,3.18,0,0,0,3.39-2.67l1.88.17a5,5,0,0,1-5.2,4.09,5.36,5.36,0,0,1-5.61-5.76c0-3.64,2.37-5.76,5.59-5.76A4.94,4.94,0,0,1,27.3,19.35ZM35,21.74v4.78H33.33v-.69a3,3,0,0,1-2.08.84c-1.53,0-2.56-.81-2.56-2.25,0-1.65,1.25-2.23,2.82-2.32l1.83-.1v-.23c0-1-.42-1.6-1.36-1.6a1.25,1.25,0,0,0-1.38,1.31l-1.69-.06A2.85,2.85,0,0,1,32,18.69,2.76,2.76,0,0,1,35,21.74ZM31.74,23.4c-.79,0-1.37.3-1.37,1s.48.87,1.16.87a1.6,1.6,0,0,0,1.81-1.7v-.27Zm11.07-2.26-1.68.09a1.16,1.16,0,0,0-1.32-1.09c-.79,0-1.2.33-1.2.85s.66.72,1.68,1c1.59.4,2.65.88,2.65,2.26,0,1.54-1.14,2.46-3,2.46s-3-.93-3.15-2.46l1.68-.1c.09.71.58,1.11,1.5,1.11.76,0,1.3-.3,1.3-.87s-.4-.78-1.66-1.08c-1.56-.37-2.67-.71-2.67-2.25,0-1.38,1.06-2.32,2.92-2.32A2.7,2.7,0,0,1,42.81,21.13ZM46.6,19.7a2.49,2.49,0,0,1,2.16-1,2.91,2.91,0,0,1,3,3.19v4.63H50.06V22.11a1.65,1.65,0,0,0-1.68-1.86,1.77,1.77,0,0,0-1.78,1.87v4.4H44.92V14.87H46.6ZM62,15.3c2,0,3.4,1,3.4,3a2.37,2.37,0,0,1-1.26,2.31,2.61,2.61,0,0,1,1.74,2.69c0,2.13-1.5,3.18-3.52,3.18H57.6V15.3ZM59.37,20h2.69a1.38,1.38,0,0,0,1.54-1.54c0-1.06-.73-1.59-1.8-1.59H59.37Zm0,4.92h2.79c1.06,0,1.9-.48,1.9-1.68a1.63,1.63,0,0,0-1.83-1.71H59.37Zm14.48-3.19v4.78h-1.7v-.69a3,3,0,0,1-2.08.84c-1.53,0-2.56-.81-2.56-2.25,0-1.65,1.25-2.23,2.82-2.32l1.83-.1v-.23c0-1-.42-1.6-1.37-1.6a1.25,1.25,0,0,0-1.38,1.31l-1.69-.06a2.85,2.85,0,0,1,3.06-2.71A2.76,2.76,0,0,1,73.84,21.74ZM70.56,23.4c-.79,0-1.37.3-1.37,1s.48.87,1.16.87a1.6,1.6,0,0,0,1.81-1.7v-.27Zm12.56-1.8-1.65.15a1.78,1.78,0,0,0-1.89-1.62c-1.25,0-2.14.92-2.14,2.55s.92,2.53,2.14,2.53a1.77,1.77,0,0,0,1.91-1.53l1.65.15a3.37,3.37,0,0,1-3.55,2.83,3.7,3.7,0,0,1-3.85-4,3.68,3.68,0,0,1,3.85-4A3.35,3.35,0,0,1,83.12,21.6Zm6.51-2.77h2.05l-3.09,3.31L92,26.52H89.87L87.41,23.4l-.77.78v2.34H85V14.87h1.68v7Z"/><path class="cls-18" d="M139.38,31.72a10.52,10.52,0,1,1,7.44-18L145.58,15a8.78,8.78,0,1,0,2.57,6.52l1.74.06a10.51,10.51,0,0,1-10.52,10.14Z"/><g class="cls-19"><polygon class="cls-20" points="149.78 17.97 149.79 17.96 149.79 17.97 149.78 17.97"/><polygon class="cls-20" points="149.75 17.97 149.79 17.94 149.79 17.96 149.78 17.97 149.75 17.97"/><polygon class="cls-21" points="149.71 17.97 149.79 17.91 149.79 17.94 149.75 17.97 149.71 17.97"/><polygon class="cls-22" points="149.67 17.97 149.79 17.89 149.79 17.91 149.71 17.97 149.67 17.97"/><polygon class="cls-23" points="149.63 17.97 149.79 17.86 149.79 17.89 149.67 17.97 149.63 17.97"/><polygon class="cls-24" points="149.6 17.97 149.79 17.84 149.79 17.86 149.63 17.97 149.6 17.97"/><polygon class="cls-25" points="149.56 17.97 149.79 17.81 149.79 17.84 149.6 17.97 149.56 17.97"/><polygon class="cls-26" points="149.52 17.97 149.79 17.79 149.79 17.81 149.56 17.97 149.52 17.97"/><polygon class="cls-27" points="149.48 17.97 149.79 17.76 149.79 17.79 149.52 17.97 149.48 17.97"/><polygon class="cls-28" points="149.45 17.97 149.79 17.74 149.79 17.76 149.48 17.97 149.45 17.97"/><polygon class="cls-29" points="149.41 17.97 149.79 17.71 149.79 17.74 149.45 17.97 149.41 17.97"/><polygon class="cls-30" points="149.37 17.97 149.79 17.69 149.79 17.71 149.41 17.97 149.37 17.97"/><polygon class="cls-31" points="149.33 17.97 149.79 17.66 149.79 17.69 149.37 17.97 149.33 17.97"/><polygon class="cls-32" points="149.29 17.97 149.79 17.64 149.79 17.66 149.33 17.97 149.29 17.97"/><polygon class="cls-33" points="149.26 17.97 149.79 17.61 149.79 17.64 149.29 17.97 149.26 17.97"/><polygon class="cls-34" points="149.22 17.97 149.79 17.59 149.79 17.61 149.26 17.97 149.22 17.97"/><polygon class="cls-35" points="149.18 17.97 149.79 17.56 149.79 17.59 149.22 17.97 149.18 17.97"/><polygon class="cls-36" points="149.14 17.97 149.79 17.54 149.79 17.56 149.18 17.97 149.14 17.97"/><polygon class="cls-37" points="149.11 17.97 149.79 17.52 149.79 17.54 149.14 17.97 149.11 17.97"/><polygon class="cls-38" points="149.07 17.97 149.79 17.49 149.79 17.52 149.11 17.97 149.07 17.97"/><polygon class="cls-39" points="149.03 17.97 149.79 17.46 149.79 17.49 149.07 17.97 149.03 17.97"/><polygon class="cls-40" points="148.99 17.97 149.79 17.44 149.79 17.46 149.03 17.97 148.99 17.97"/><polygon class="cls-41" points="148.96 17.97 149.79 17.41 149.79 17.44 148.99 17.97 148.96 17.97"/><polygon class="cls-42" points="148.92 17.97 149.79 17.39 149.79 17.41 148.96 17.97 148.92 17.97"/><polygon class="cls-43" points="148.88 17.97 149.79 17.36 149.79 17.39 148.92 17.97 148.88 17.97"/><polygon class="cls-44" points="148.84 17.97 149.79 17.34 149.79 17.36 148.88 17.97 148.84 17.97"/><polygon class="cls-45" points="148.81 17.97 149.79 17.32 149.79 17.34 148.84 17.97 148.81 17.97"/><polygon class="cls-46" points="148.77 17.97 149.79 17.29 149.79 17.32 148.81 17.97 148.77 17.97"/><polygon class="cls-47" points="148.73 17.97 149.79 17.27 149.79 17.29 148.77 17.97 148.73 17.97"/><polygon class="cls-48" points="148.69 17.97 149.79 17.24 149.79 17.27 148.73 17.97 148.69 17.97"/><polygon class="cls-49" points="148.65 17.97 149.79 17.22 149.79 17.24 148.69 17.97 148.65 17.97"/><polygon class="cls-50" points="148.62 17.97 149.79 17.19 149.79 17.22 148.65 17.97 148.62 17.97"/><polygon class="cls-51" points="148.58 17.97 149.79 17.17 149.79 17.19 148.62 17.97 148.58 17.97"/><polygon class="cls-52" points="148.54 17.97 149.79 17.14 149.79 17.17 148.58 17.97 148.54 17.97"/><polygon class="cls-53" points="148.5 17.97 149.79 17.12 149.79 17.14 148.54 17.97 148.5 17.97"/><polygon class="cls-54" points="148.47 17.97 149.79 17.09 149.79 17.12 148.5 17.97 148.47 17.97"/><polygon class="cls-55" points="148.43 17.97 149.79 17.07 149.79 17.09 148.47 17.97 148.43 17.97"/><polygon class="cls-56" points="148.39 17.97 149.79 17.04 149.79 17.07 148.43 17.97 148.39 17.97"/><polygon class="cls-57" points="148.35 17.97 149.79 17.02 149.79 17.04 148.39 17.97 148.35 17.97"/><polygon class="cls-58" points="148.31 17.97 149.79 16.99 149.79 17.02 148.35 17.97 148.31 17.97"/><polygon class="cls-59" points="148.28 17.97 149.79 16.97 149.79 16.99 148.31 17.97 148.28 17.97"/><polygon class="cls-60" points="148.24 17.97 149.79 16.94 149.79 16.97 148.28 17.97 148.24 17.97"/><polygon class="cls-61" points="148.2 17.97 149.79 16.92 149.79 16.94 148.24 17.97 148.2 17.97"/><polygon class="cls-62" points="148.16 17.97 149.79 16.89 149.79 16.92 148.2 17.97 148.16 17.97"/><polygon class="cls-63" points="148.13 17.97 149.79 16.87 149.79 16.89 148.16 17.97 148.13 17.97"/><polygon class="cls-64" points="148.09 17.97 149.79 16.84 149.79 16.87 148.13 17.97 148.09 17.97"/><polygon class="cls-65" points="148.05 17.97 149.79 16.82 149.79 16.84 148.09 17.97 148.05 17.97"/><polygon class="cls-66" points="148.01 17.97 149.79 16.79 149.79 16.82 148.05 17.97 148.01 17.97"/><polygon class="cls-67" points="147.98 17.97 149.79 16.77 149.79 16.79 148.01 17.97 147.98 17.97"/><polygon class="cls-68" points="147.94 17.97 149.79 16.74 149.79 16.77 147.98 17.97 147.94 17.97"/><polygon class="cls-69" points="147.9 17.97 149.79 16.72 149.79 16.74 147.94 17.97 147.9 17.97"/><polygon class="cls-70" points="147.86 17.97 149.79 16.69 149.79 16.72 147.9 17.97 147.86 17.97"/><polygon class="cls-71" points="147.82 17.97 149.79 16.67 149.79 16.69 147.86 17.97 147.82 17.97"/><polygon class="cls-72" points="147.79 17.97 149.79 16.64 149.79 16.67 147.82 17.97 147.79 17.97"/><polygon class="cls-73" points="147.75 17.97 149.79 16.62 149.79 16.64 147.79 17.97 147.75 17.97"/><polygon class="cls-74" points="147.71 17.97 149.79 16.59 149.79 16.62 147.75 17.97 147.71 17.97"/><polygon class="cls-75" points="147.67 17.97 149.79 16.57 149.79 16.59 147.71 17.97 147.67 17.97"/><polygon class="cls-76" points="147.64 17.97 149.79 16.54 149.79 16.57 147.67 17.97 147.64 17.97"/><polygon class="cls-77" points="147.6 17.97 149.79 16.52 149.79 16.54 147.64 17.97 147.6 17.97"/><polygon class="cls-78" points="147.56 17.97 149.79 16.49 149.79 16.52 147.6 17.97 147.56 17.97"/><polygon class="cls-79" points="147.52 17.97 149.79 16.47 149.79 16.49 147.56 17.97 147.52 17.97"/><polygon class="cls-80" points="147.49 17.97 149.79 16.44 149.79 16.47 147.52 17.97 147.49 17.97"/><polygon class="cls-81" points="147.45 17.97 149.79 16.42 149.79 16.44 147.49 17.97 147.45 17.97"/><polygon class="cls-82" points="147.41 17.97 149.79 16.39 149.79 16.42 147.45 17.97 147.41 17.97"/><polygon class="cls-83" points="147.37 17.97 149.79 16.37 149.79 16.39 147.41 17.97 147.37 17.97"/><polygon class="cls-84" points="147.33 17.97 149.79 16.34 149.79 16.37 147.37 17.97 147.33 17.97"/><polygon class="cls-85" points="147.3 17.97 149.79 16.32 149.79 16.34 147.33 17.97 147.3 17.97"/><polygon class="cls-86" points="147.26 17.97 149.79 16.29 149.79 16.32 147.3 17.97 147.26 17.97"/><polygon class="cls-87" points="147.22 17.97 149.79 16.27 149.79 16.29 147.26 17.97 147.22 17.97"/><polygon class="cls-88" points="147.18 17.97 149.79 16.24 149.79 16.27 147.22 17.97 147.18 17.97"/><polygon class="cls-89" points="147.15 17.97 149.79 16.22 149.79 16.24 147.18 17.97 147.15 17.97"/><polygon class="cls-90" points="147.11 17.97 149.79 16.19 149.79 16.22 147.15 17.97 147.11 17.97"/><polygon class="cls-91" points="147.07 17.97 149.79 16.17 149.79 16.19 147.11 17.97 147.07 17.97"/><polygon class="cls-92" points="147.03 17.97 149.79 16.14 149.79 16.17 147.07 17.97 147.03 17.97"/><polygon class="cls-93" points="147 17.97 149.79 16.12 149.79 16.14 147.03 17.97 147 17.97"/><polygon class="cls-94" points="146.96 17.97 149.79 16.09 149.79 16.12 147 17.97 146.96 17.97"/><polygon class="cls-95" points="146.92 17.97 149.79 16.07 149.79 16.09 146.96 17.97 146.92 17.97"/><polygon class="cls-96" points="146.88 17.97 149.79 16.05 149.79 16.07 146.92 17.97 146.88 17.97"/><polygon class="cls-97" points="146.84 17.97 149.79 16.02 149.79 16.05 146.88 17.97 146.84 17.97"/><polygon class="cls-98" points="146.81 17.97 149.79 15.99 149.79 16.02 146.84 17.97 146.81 17.97"/><polygon class="cls-99" points="146.77 17.97 149.79 15.97 149.79 15.99 146.81 17.97 146.77 17.97"/><polygon class="cls-100" points="146.73 17.97 149.79 15.95 149.79 15.97 146.77 17.97 146.73 17.97"/><polygon class="cls-101" points="146.69 17.97 149.79 15.92 149.79 15.95 146.73 17.97 146.69 17.97"/><polygon class="cls-102" points="146.66 17.97 149.79 15.89 149.79 15.92 146.69 17.97 146.66 17.97"/><polygon class="cls-103" points="146.62 17.97 149.79 15.87 149.79 15.89 146.66 17.97 146.62 17.97"/><polygon class="cls-104" points="146.58 17.97 149.79 15.85 149.79 15.87 146.62 17.97 146.58 17.97"/><polygon class="cls-105" points="146.54 17.97 149.79 15.82 149.79 15.85 146.58 17.97 146.54 17.97"/><polygon class="cls-106" points="146.5 17.97 149.79 15.8 149.79 15.82 146.54 17.97 146.5 17.97"/><polygon class="cls-107" points="146.47 17.97 149.79 15.77 149.79 15.8 146.5 17.97 146.47 17.97"/><polygon class="cls-108" points="146.43 17.97 149.79 15.75 149.79 15.77 146.47 17.97 146.43 17.97"/><polygon class="cls-109" points="146.39 17.97 149.79 15.72 149.79 15.75 146.43 17.97 146.39 17.97"/><polygon class="cls-110" points="146.35 17.97 149.79 15.7 149.79 15.72 146.39 17.97 146.35 17.97"/><polygon class="cls-111" points="146.32 17.97 149.79 15.67 149.79 15.7 146.35 17.97 146.32 17.97"/><polygon class="cls-112" points="146.28 17.97 149.79 15.65 149.79 15.67 146.32 17.97 146.28 17.97"/><polygon class="cls-113" points="146.24 17.97 149.79 15.62 149.79 15.65 146.28 17.97 146.24 17.97"/><polygon class="cls-114" points="146.2 17.97 149.79 15.6 149.79 15.62 146.24 17.97 146.2 17.97"/><polygon class="cls-115" points="146.17 17.97 149.79 15.57 149.79 15.6 146.2 17.97 146.17 17.97"/><polygon class="cls-116" points="146.13 17.97 149.79 15.55 149.79 15.57 146.17 17.97 146.13 17.97"/><polygon class="cls-117" points="146.09 17.97 149.79 15.52 149.79 15.55 146.13 17.97 146.09 17.97"/><polygon class="cls-118" points="146.05 17.97 149.79 15.5 149.79 15.52 146.09 17.97 146.05 17.97"/><polygon class="cls-119" points="146.01 17.97 149.79 15.47 149.79 15.5 146.05 17.97 146.01 17.97"/><polygon class="cls-120" points="145.98 17.97 149.79 15.45 149.79 15.47 146.01 17.97 145.98 17.97"/><polygon class="cls-121" points="145.94 17.97 149.79 15.42 149.79 15.45 145.98 17.97 145.94 17.97"/><polygon class="cls-122" points="145.9 17.97 149.79 15.4 149.79 15.42 145.94 17.97 145.9 17.97"/><polygon class="cls-123" points="145.86 17.97 149.79 15.37 149.79 15.4 145.9 17.97 145.86 17.97"/><polygon class="cls-124" points="145.83 17.97 149.79 15.35 149.79 15.37 145.86 17.97 145.83 17.97"/><polygon class="cls-125" points="145.79 17.97 149.79 15.32 149.79 15.35 145.83 17.97 145.79 17.97"/><polygon class="cls-126" points="145.75 17.97 149.79 15.3 149.79 15.32 145.79 17.97 145.75 17.97"/><polygon class="cls-127" points="145.71 17.97 149.79 15.27 149.79 15.3 145.75 17.97 145.71 17.97"/><polygon class="cls-128" points="145.68 17.97 149.79 15.25 149.79 15.27 145.71 17.97 145.68 17.97"/><polygon class="cls-129" points="145.64 17.97 149.79 15.22 149.79 15.25 145.68 17.97 145.64 17.97"/><polygon class="cls-130" points="145.6 17.97 149.79 15.2 149.79 15.22 145.64 17.97 145.6 17.97"/><polygon class="cls-131" points="145.56 17.97 149.79 15.17 149.79 15.2 145.6 17.97 145.56 17.97"/><polygon class="cls-132" points="145.52 17.97 149.79 15.15 149.79 15.17 145.56 17.97 145.52 17.97"/><polygon class="cls-133" points="145.49 17.97 149.79 15.12 149.79 15.15 145.52 17.97 145.49 17.97"/><polygon class="cls-134" points="145.45 17.97 149.79 15.1 149.79 15.12 145.49 17.97 145.45 17.97"/><polygon class="cls-135" points="145.41 17.97 149.79 15.07 149.79 15.1 145.45 17.97 145.41 17.97"/><polygon class="cls-136" points="145.37 17.97 149.79 15.05 149.79 15.07 145.41 17.97 145.37 17.97"/><polygon class="cls-137" points="145.34 17.97 149.79 15.02 149.79 15.05 145.37 17.97 145.34 17.97"/><polygon class="cls-138" points="145.3 17.97 149.79 15 149.79 15.02 145.34 17.97 145.3 17.97"/><polygon class="cls-139" points="145.26 17.97 149.79 14.97 149.79 15 145.3 17.97 145.26 17.97"/><polygon class="cls-140" points="145.22 17.97 149.79 14.95 149.79 14.97 145.26 17.97 145.22 17.97"/><polygon class="cls-141" points="145.19 17.97 149.79 14.92 149.79 14.95 145.22 17.97 145.19 17.97"/><polygon class="cls-142" points="145.15 17.97 149.79 14.9 149.79 14.92 145.19 17.97 145.15 17.97"/><polygon class="cls-143" points="145.11 17.97 149.79 14.87 149.79 14.9 145.15 17.97 145.11 17.97"/><polygon class="cls-143" points="145.07 17.97 149.79 14.85 149.79 14.87 145.11 17.97 145.07 17.97"/><polygon class="cls-144" points="145.03 17.97 149.79 14.82 149.79 14.85 145.07 17.97 145.03 17.97"/><polygon class="cls-145" points="145 17.97 149.79 14.8 149.79 14.82 145.03 17.97 145 17.97"/><polygon class="cls-145" points="144.96 17.97 149.79 14.77 149.79 14.8 145 17.97 144.96 17.97"/><polygon class="cls-146" points="144.92 17.97 149.79 14.75 149.79 14.77 144.96 17.97 144.92 17.97"/><polygon class="cls-147" points="144.88 17.97 149.79 14.72 149.79 14.75 144.92 17.97 144.88 17.97"/><polygon class="cls-148" points="144.85 17.97 149.79 14.7 149.79 14.72 144.88 17.97 144.85 17.97"/><polygon class="cls-149" points="144.81 17.97 149.79 14.68 149.79 14.7 144.85 17.97 144.81 17.97"/><polygon class="cls-149" points="144.77 17.97 149.79 14.65 149.79 14.68 144.81 17.97 144.77 17.97"/><polygon class="cls-150" points="144.73 17.97 149.79 14.63 149.79 14.65 144.77 17.97 144.73 17.97"/><polygon class="cls-150" points="144.69 17.97 149.79 14.6 149.79 14.63 144.73 17.97 144.69 17.97"/><polygon class="cls-151" points="144.66 17.97 149.79 14.57 149.79 14.6 144.69 17.97 144.66 17.97"/><polygon class="cls-151" points="144.62 17.97 149.79 14.55 149.79 14.57 144.66 17.97 144.62 17.97"/><polygon class="cls-152" points="144.58 17.97 149.79 14.53 149.79 14.55 144.62 17.97 144.58 17.97"/><polygon class="cls-152" points="144.54 17.97 149.79 14.5 149.79 14.53 144.58 17.97 144.54 17.97"/><polygon class="cls-153" points="144.51 17.97 149.79 14.47 149.79 14.5 144.54 17.97 144.51 17.97"/><polygon class="cls-153" points="144.47 17.97 149.79 14.45 149.79 14.47 144.51 17.97 144.47 17.97"/><polygon class="cls-154" points="144.43 17.97 149.79 14.43 149.79 14.45 144.47 17.97 144.43 17.97"/><polygon class="cls-154" points="144.39 17.97 149.79 14.4 149.79 14.43 144.43 17.97 144.39 17.97"/><polygon class="cls-154" points="144.36 17.97 149.79 14.38 149.79 14.4 144.39 17.97 144.36 17.97"/><polygon class="cls-154" points="144.32 17.97 149.79 14.35 149.79 14.38 144.36 17.97 144.32 17.97"/><polygon class="cls-154" points="144.29 17.97 149.79 14.33 149.79 14.35 144.32 17.97 144.29 17.97"/><polygon class="cls-153" points="144.26 17.97 149.79 14.31 149.79 14.33 144.29 17.97 144.26 17.97"/><polygon class="cls-152" points="144.22 17.97 149.79 14.29 149.79 14.31 144.26 17.97 144.22 17.97"/><polygon class="cls-152" points="144.19 17.97 149.79 14.27 149.79 14.29 144.22 17.97 144.19 17.97"/><polygon class="cls-151" points="144.16 17.97 149.79 14.24 149.79 14.27 144.19 17.97 144.16 17.97"/><polygon class="cls-151" points="144.13 17.97 149.79 14.22 149.79 14.24 144.16 17.97 144.13 17.97"/><polygon class="cls-150" points="144.13 17.95 149.79 14.2 149.79 14.22 144.13 17.97 144.13 17.97 144.13 17.95"/><polygon class="cls-149" points="144.13 17.93 149.79 14.18 149.79 14.2 144.13 17.95 144.13 17.93"/><polygon class="cls-149" points="144.13 17.9 149.79 14.16 149.79 14.18 144.13 17.93 144.13 17.9"/><polygon class="cls-148" points="144.13 17.88 149.79 14.14 149.79 14.16 144.13 17.9 144.13 17.88"/><polygon class="cls-146" points="144.13 17.86 149.79 14.12 149.79 14.14 144.13 17.88 144.13 17.86"/><polygon class="cls-155" points="144.13 17.84 149.79 14.09 149.79 14.12 144.13 17.86 144.13 17.84"/><polygon class="cls-145" points="144.13 17.82 149.79 14.07 149.79 14.09 144.13 17.84 144.13 17.82"/><polygon class="cls-144" points="144.13 17.8 149.79 14.05 149.79 14.07 144.13 17.82 144.13 17.8"/><polygon class="cls-143" points="144.13 17.77 149.79 14.03 149.79 14.05 144.13 17.8 144.13 17.77"/><polygon class="cls-156" points="144.13 17.75 149.79 14.01 149.79 14.03 144.13 17.77 144.13 17.75"/><polygon class="cls-142" points="144.13 17.73 149.79 13.98 149.79 14.01 144.13 17.75 144.13 17.73"/><polygon class="cls-141" points="144.13 17.71 149.79 13.96 149.79 13.98 144.13 17.73 144.13 17.71"/><polygon class="cls-139" points="144.13 17.69 149.79 13.94 149.79 13.96 144.13 17.71 144.13 17.69"/><polygon class="cls-138" points="144.13 17.66 149.79 13.92 149.79 13.94 144.13 17.69 144.13 17.66"/><polygon class="cls-157" points="144.13 17.64 149.79 13.9 149.79 13.92 144.13 17.66 144.13 17.64"/><polygon class="cls-158" points="144.13 17.62 149.79 13.88 149.79 13.9 144.13 17.64 144.13 17.62"/><polygon class="cls-135" points="144.13 17.6 149.79 13.85 149.79 13.88 144.13 17.62 144.13 17.6"/><polygon class="cls-134" points="144.13 17.58 149.79 13.83 149.79 13.85 144.13 17.6 144.13 17.58"/><polygon class="cls-159" points="144.13 17.56 149.79 13.81 149.79 13.83 144.13 17.58 144.13 17.56"/><polygon class="cls-160" points="144.13 17.53 149.79 13.79 149.79 13.81 144.13 17.56 144.13 17.53"/><polygon class="cls-161" points="144.13 17.51 149.79 13.77 149.79 13.79 144.13 17.53 144.13 17.51"/><polygon class="cls-130" points="144.13 17.49 149.79 13.74 149.79 13.77 144.13 17.51 144.13 17.49"/><polygon class="cls-129" points="144.13 17.47 149.79 13.72 149.79 13.74 144.13 17.49 144.13 17.47"/><polygon class="cls-162" points="144.13 17.45 149.79 13.7 149.79 13.72 144.13 17.47 144.13 17.45"/><polygon class="cls-163" points="144.13 17.43 149.79 13.68 149.79 13.7 144.13 17.45 144.13 17.43"/><polygon class="cls-164" points="144.13 17.4 149.79 13.66 149.79 13.68 144.13 17.43 144.13 17.4"/><polygon class="cls-165" points="144.13 17.38 149.79 13.64 149.79 13.66 144.13 17.4 144.13 17.38"/><polygon class="cls-124" points="144.13 17.36 149.79 13.61 149.79 13.64 144.13 17.38 144.13 17.36"/><polygon class="cls-123" points="144.13 17.34 149.79 13.59 149.79 13.61 144.13 17.36 144.13 17.34"/><polygon class="cls-166" points="144.13 17.32 149.79 13.57 149.79 13.59 144.13 17.34 144.13 17.32"/><polygon class="cls-167" points="144.13 17.3 149.79 13.55 149.79 13.57 144.13 17.32 144.13 17.3"/><polygon class="cls-168" points="144.13 17.27 149.79 13.53 149.79 13.55 144.13 17.3 144.13 17.27"/><polygon class="cls-169" points="144.13 17.25 149.79 13.51 149.79 13.53 144.13 17.27 144.13 17.25"/><polygon class="cls-170" points="144.13 17.23 149.79 13.48 149.79 13.51 144.13 17.25 144.13 17.23"/><polygon class="cls-171" points="144.13 17.21 149.79 13.46 149.79 13.48 144.13 17.23 144.13 17.21"/><polygon class="cls-172" points="144.13 17.19 149.79 13.44 149.79 13.46 144.13 17.21 144.13 17.19"/><polygon class="cls-173" points="144.13 17.16 149.79 13.42 149.79 13.44 144.13 17.19 144.13 17.16"/><polygon class="cls-174" points="144.13 17.14 149.79 13.4 149.79 13.42 144.13 17.16 144.13 17.14"/><polygon class="cls-175" points="144.13 17.12 149.79 13.38 149.79 13.4 144.13 17.14 144.13 17.12"/><polygon class="cls-176" points="144.13 17.1 149.79 13.35 149.79 13.38 144.13 17.12 144.13 17.1"/><polygon class="cls-177" points="144.13 17.08 149.79 13.33 149.79 13.35 144.13 17.1 144.13 17.08"/><polygon class="cls-178" points="144.13 17.05 149.79 13.31 149.79 13.33 144.13 17.08 144.13 17.05"/><polygon class="cls-179" points="144.13 17.03 149.79 13.29 149.79 13.31 144.13 17.05 144.13 17.03"/><polygon class="cls-180" points="144.13 17.01 149.79 13.27 149.79 13.29 144.13 17.03 144.13 17.01"/><polygon class="cls-181" points="144.13 16.99 149.79 13.24 149.79 13.27 144.13 17.01 144.13 16.99"/><polygon class="cls-182" points="144.13 16.97 149.79 13.22 149.79 13.24 144.13 16.99 144.13 16.97"/><polygon class="cls-183" points="144.13 16.95 149.79 13.2 149.79 13.22 144.13 16.97 144.13 16.95"/><polygon class="cls-184" points="144.13 16.93 149.79 13.18 149.79 13.2 144.13 16.95 144.13 16.93"/><polygon class="cls-185" points="144.13 16.9 149.79 13.16 149.79 13.18 144.13 16.93 144.13 16.9"/><polygon class="cls-186" points="144.13 16.88 149.79 13.13 149.79 13.16 144.13 16.9 144.13 16.88"/><polygon class="cls-187" points="144.13 16.86 149.79 13.11 149.79 13.13 144.13 16.88 144.13 16.86"/><polygon class="cls-188" points="144.13 16.84 149.79 13.09 149.79 13.11 144.13 16.86 144.13 16.84"/><polygon class="cls-189" points="144.13 16.82 149.79 13.07 149.79 13.09 144.13 16.84 144.13 16.82"/><polygon class="cls-190" points="144.13 16.79 149.79 13.05 149.79 13.07 144.13 16.82 144.13 16.79"/><polygon class="cls-191" points="144.13 16.77 149.79 13.03 149.79 13.05 144.13 16.79 144.13 16.77"/><polygon class="cls-192" points="144.13 16.75 149.79 13.01 149.79 13.02 149.79 13.03 144.13 16.77 144.13 16.75"/><polygon class="cls-193" points="144.13 16.73 149.78 12.99 149.79 13.01 144.13 16.75 144.13 16.73"/><polygon class="cls-194" points="144.13 16.71 149.77 12.98 149.78 12.99 144.13 16.73 144.13 16.71"/><polygon class="cls-195" points="144.13 16.68 149.76 12.96 149.77 12.98 144.13 16.71 144.13 16.68"/><polygon class="cls-196" points="144.13 16.66 149.75 12.95 149.76 12.96 144.13 16.68 144.13 16.66"/><polygon class="cls-197" points="144.13 16.64 149.74 12.93 149.75 12.95 144.13 16.66 144.13 16.64"/><polygon class="cls-198" points="144.13 16.62 149.73 12.92 149.74 12.93 144.13 16.64 144.13 16.62"/><polygon class="cls-199" points="144.13 16.6 149.72 12.9 149.73 12.92 144.13 16.62 144.13 16.6"/><polygon class="cls-200" points="144.13 16.58 149.71 12.89 149.72 12.9 144.13 16.6 144.13 16.58"/><polygon class="cls-201" points="144.13 16.55 149.7 12.87 149.71 12.89 144.13 16.58 144.13 16.55"/><polygon class="cls-202" points="144.13 16.53 149.69 12.86 149.7 12.87 144.13 16.55 144.13 16.53"/><polygon class="cls-203" points="144.13 16.51 149.68 12.84 149.69 12.86 144.13 16.53 144.13 16.51"/><polygon class="cls-204" points="144.13 16.49 149.67 12.83 149.68 12.84 144.13 16.51 144.13 16.49"/><polygon class="cls-205" points="144.13 16.47 149.66 12.81 149.67 12.83 144.13 16.49 144.13 16.47"/><polygon class="cls-206" points="144.13 16.45 149.65 12.8 149.66 12.81 144.13 16.47 144.13 16.45"/><polygon class="cls-207" points="144.13 16.42 149.64 12.78 149.65 12.8 144.13 16.45 144.13 16.42"/><polygon class="cls-208" points="144.13 16.4 149.63 12.77 149.64 12.78 144.13 16.42 144.13 16.4"/><polygon class="cls-209" points="144.13 16.38 149.62 12.75 149.63 12.77 144.13 16.4 144.13 16.38"/><polygon class="cls-210" points="144.13 16.36 149.61 12.74 149.62 12.75 144.13 16.38 144.13 16.36"/><polygon class="cls-211" points="144.13 16.34 149.6 12.72 149.61 12.74 144.13 16.36 144.13 16.34"/><polygon class="cls-212" points="144.13 16.32 149.59 12.71 149.6 12.72 144.13 16.34 144.13 16.32"/><polygon class="cls-213" points="144.13 16.29 149.58 12.69 149.59 12.71 144.13 16.32 144.13 16.29"/><polygon class="cls-214" points="144.13 16.27 149.57 12.68 149.58 12.69 144.13 16.29 144.13 16.27"/><polygon class="cls-215" points="144.13 16.25 149.56 12.66 149.57 12.68 144.13 16.27 144.13 16.25"/><polygon class="cls-216" points="144.13 16.23 149.55 12.64 149.56 12.66 144.13 16.25 144.13 16.23"/><polygon class="cls-217" points="144.13 16.21 149.54 12.63 149.55 12.64 144.13 16.23 144.13 16.21"/><polygon class="cls-218" points="144.13 16.18 149.53 12.62 149.54 12.63 144.13 16.21 144.13 16.18"/><polygon class="cls-219" points="144.13 16.16 149.52 12.6 149.53 12.62 144.13 16.18 144.13 16.16"/><polygon class="cls-220" points="144.13 16.14 149.51 12.59 149.52 12.6 144.13 16.16 144.13 16.14"/><polygon class="cls-221" points="144.13 16.12 149.5 12.57 149.51 12.59 144.13 16.14 144.13 16.12"/><polygon class="cls-222" points="144.13 16.1 149.49 12.55 149.5 12.57 144.13 16.12 144.13 16.1"/><polygon class="cls-223" points="144.13 16.08 149.48 12.54 149.49 12.55 144.13 16.1 144.13 16.08"/><polygon class="cls-224" points="144.13 16.05 149.47 12.52 149.48 12.54 144.13 16.08 144.13 16.05"/><polygon class="cls-225" points="144.13 16.03 149.46 12.51 149.47 12.52 144.13 16.05 144.13 16.03"/><polygon class="cls-226" points="144.13 16.01 149.45 12.49 149.46 12.51 144.13 16.03 144.13 16.01"/><polygon class="cls-227" points="144.13 15.99 149.44 12.48 149.45 12.49 144.13 16.01 144.13 15.99"/><polygon class="cls-228" points="144.13 15.97 149.43 12.46 149.44 12.48 144.13 15.99 144.13 15.97"/><polygon class="cls-229" points="144.13 15.95 149.42 12.45 149.43 12.46 144.13 15.97 144.13 15.95"/><polygon class="cls-230" points="144.13 15.92 149.41 12.43 149.42 12.45 144.13 15.95 144.13 15.92"/><polygon class="cls-231" points="144.13 15.9 149.4 12.42 149.41 12.43 144.13 15.92 144.13 15.9"/><polygon class="cls-232" points="144.13 15.88 149.39 12.4 149.4 12.42 144.13 15.9 144.13 15.88"/><polygon class="cls-233" points="144.13 15.86 149.38 12.39 149.39 12.4 144.13 15.88 144.13 15.86"/><polygon class="cls-234" points="144.13 15.84 149.37 12.37 149.38 12.39 144.13 15.86 144.13 15.84"/><polygon class="cls-235" points="144.13 15.81 149.36 12.36 149.37 12.37 144.13 15.84 144.13 15.81"/><polygon class="cls-236" points="144.13 15.79 149.35 12.34 149.36 12.36 144.13 15.81 144.13 15.79"/><polygon class="cls-237" points="144.13 15.77 149.34 12.33 149.35 12.34 144.13 15.79 144.13 15.77"/><polygon class="cls-238" points="144.13 15.75 149.33 12.31 149.34 12.33 144.13 15.77 144.13 15.75"/><polygon class="cls-239" points="144.13 15.73 149.31 12.3 149.32 12.3 149.33 12.31 144.13 15.75 144.13 15.73"/><polygon class="cls-240" points="144.13 15.71 149.28 12.3 149.31 12.3 144.13 15.73 144.13 15.71"/><polygon class="cls-241" points="144.13 15.68 149.25 12.3 149.28 12.3 144.13 15.71 144.13 15.68"/><polygon class="cls-242" points="144.13 15.66 149.22 12.3 149.25 12.3 144.13 15.68 144.13 15.66"/><polygon class="cls-243" points="144.13 15.64 149.18 12.3 149.22 12.3 144.13 15.66 144.13 15.64"/><polygon class="cls-244" points="144.13 15.62 149.15 12.3 149.18 12.3 144.13 15.64 144.13 15.62"/><polygon class="cls-245" points="144.13 15.6 149.12 12.3 149.15 12.3 144.13 15.62 144.13 15.6"/><polygon class="cls-246" points="144.13 15.57 149.08 12.3 149.12 12.3 144.13 15.6 144.13 15.57"/><polygon class="cls-247" points="144.13 15.55 149.05 12.3 149.08 12.3 144.13 15.57 144.13 15.55"/><polygon class="cls-248" points="144.13 15.53 149.02 12.3 149.05 12.3 144.13 15.55 144.13 15.53"/><polygon class="cls-249" points="144.13 15.51 148.99 12.3 149.02 12.3 144.13 15.53 144.13 15.51"/><polygon class="cls-250" points="144.13 15.49 148.95 12.3 148.99 12.3 144.13 15.51 144.13 15.49"/><polygon class="cls-251" points="144.13 15.47 148.92 12.3 148.95 12.3 144.13 15.49 144.13 15.47"/><polygon class="cls-252" points="144.13 15.45 148.89 12.3 148.92 12.3 144.13 15.47 144.13 15.45"/><polygon class="cls-253" points="144.13 15.42 148.85 12.3 148.89 12.3 144.13 15.45 144.13 15.42"/><polygon class="cls-254" points="144.13 15.4 148.82 12.3 148.85 12.3 144.13 15.42 144.13 15.4"/><polygon class="cls-255" points="144.13 15.38 148.79 12.3 148.82 12.3 144.13 15.4 144.13 15.38"/><polygon class="cls-256" points="144.13 15.36 148.75 12.3 148.79 12.3 144.13 15.38 144.13 15.36"/><polygon class="cls-257" points="144.13 15.34 148.72 12.3 148.75 12.3 144.13 15.36 144.13 15.34"/><polygon class="cls-258" points="144.13 15.31 148.69 12.3 148.72 12.3 144.13 15.34 144.13 15.31"/><polygon class="cls-259" points="144.13 15.29 148.66 12.3 148.69 12.3 144.13 15.31 144.13 15.29"/><polygon class="cls-260" points="144.13 15.27 148.62 12.3 148.66 12.3 144.13 15.29 144.13 15.27"/><polygon class="cls-261" points="144.13 15.25 148.59 12.3 148.62 12.3 144.13 15.27 144.13 15.25"/><polygon class="cls-262" points="144.13 15.23 148.56 12.3 148.59 12.3 144.13 15.25 144.13 15.23"/><polygon class="cls-263" points="144.13 15.21 148.52 12.3 148.56 12.3 144.13 15.23 144.13 15.21"/><polygon class="cls-264" points="144.13 15.18 148.49 12.3 148.52 12.3 144.13 15.21 144.13 15.18"/><polygon class="cls-265" points="144.13 15.16 148.46 12.3 148.49 12.3 144.13 15.18 144.13 15.16"/><polygon class="cls-266" points="144.13 15.14 148.43 12.3 148.46 12.3 144.13 15.16 144.13 15.14"/><polygon class="cls-267" points="144.13 15.12 148.39 12.3 148.43 12.3 144.13 15.14 144.13 15.12"/><polygon class="cls-268" points="144.13 15.1 148.36 12.3 148.39 12.3 144.13 15.12 144.13 15.1"/><polygon class="cls-269" points="144.13 15.07 148.33 12.3 148.36 12.3 144.13 15.1 144.13 15.07"/><polygon class="cls-270" points="144.13 15.05 148.29 12.3 148.33 12.3 144.13 15.07 144.13 15.05"/><polygon class="cls-271" points="144.13 15.03 148.26 12.3 148.29 12.3 144.13 15.05 144.13 15.03"/><polygon class="cls-272" points="144.13 15.01 148.23 12.3 148.26 12.3 144.13 15.03 144.13 15.01"/><polygon class="cls-273" points="144.13 14.99 148.19 12.3 148.23 12.3 144.13 15.01 144.13 14.99"/><polygon class="cls-274" points="144.13 14.97 148.16 12.3 148.19 12.3 144.13 14.99 144.13 14.97"/><polygon class="cls-275" points="144.13 14.94 148.13 12.3 148.16 12.3 144.13 14.97 144.13 14.94"/><polygon class="cls-276" points="144.13 14.92 148.1 12.3 148.13 12.3 144.13 14.94 144.13 14.92"/><polygon class="cls-277" points="144.13 14.9 148.06 12.3 148.1 12.3 144.13 14.92 144.13 14.9"/><polygon class="cls-278" points="144.13 14.88 148.03 12.3 148.06 12.3 144.13 14.9 144.13 14.88"/><polygon class="cls-279" points="144.13 14.86 148 12.3 148.03 12.3 144.13 14.88 144.13 14.86"/><polygon class="cls-280" points="144.13 14.84 147.96 12.3 148 12.3 144.13 14.86 144.13 14.84"/><polygon class="cls-281" points="144.13 14.81 147.93 12.3 147.96 12.3 144.13 14.84 144.13 14.81"/><polygon class="cls-282" points="144.13 14.79 147.9 12.3 147.93 12.3 144.13 14.81 144.13 14.79"/><polygon class="cls-283" points="144.13 14.77 147.87 12.3 147.9 12.3 144.13 14.79 144.13 14.77"/><polygon class="cls-284" points="144.13 14.75 147.83 12.3 147.87 12.3 144.13 14.77 144.13 14.75"/><polygon class="cls-285" points="144.13 14.73 147.8 12.3 147.83 12.3 144.13 14.75 144.13 14.73"/><polygon class="cls-286" points="144.13 14.71 147.77 12.3 147.8 12.3 144.13 14.73 144.13 14.71"/><polygon class="cls-287" points="144.13 14.68 147.73 12.3 147.77 12.3 144.13 14.71 144.13 14.68"/><polygon class="cls-288" points="144.13 14.66 147.7 12.3 147.73 12.3 144.13 14.68 144.13 14.66"/><polygon class="cls-289" points="144.13 14.64 147.67 12.3 147.7 12.3 144.13 14.66 144.13 14.64"/><polygon class="cls-290" points="144.13 14.62 147.63 12.3 147.67 12.3 144.13 14.64 144.13 14.62"/><polygon class="cls-291" points="144.13 14.6 147.6 12.3 147.63 12.3 144.13 14.62 144.13 14.6"/><polygon class="cls-292" points="144.13 14.57 147.57 12.3 147.6 12.3 144.13 14.6 144.13 14.57"/><polygon class="cls-293" points="144.13 14.55 147.54 12.3 147.57 12.3 144.13 14.57 144.13 14.55"/><polygon class="cls-294" points="144.13 14.53 147.5 12.3 147.54 12.3 144.13 14.55 144.13 14.53"/><polygon class="cls-295" points="144.13 14.51 147.47 12.3 147.5 12.3 144.13 14.53 144.13 14.51"/><polygon class="cls-296" points="144.13 14.49 147.44 12.3 147.47 12.3 144.13 14.51 144.13 14.49"/><polygon class="cls-297" points="144.13 14.47 147.4 12.3 147.44 12.3 144.13 14.49 144.13 14.47"/><polygon class="cls-298" points="144.13 14.44 147.37 12.3 147.4 12.3 144.13 14.47 144.13 14.44"/><polygon class="cls-299" points="144.13 14.42 147.34 12.3 147.37 12.3 144.13 14.44 144.13 14.42"/><polygon class="cls-300" points="144.13 14.4 147.31 12.3 147.34 12.3 144.13 14.42 144.13 14.4"/><polygon class="cls-301" points="144.13 14.38 147.27 12.3 147.31 12.3 144.13 14.4 144.13 14.38"/><polygon class="cls-302" points="144.13 14.36 147.24 12.3 147.27 12.3 144.13 14.38 144.13 14.36"/><polygon class="cls-303" points="144.13 14.34 147.21 12.3 147.24 12.3 144.13 14.36 144.13 14.34"/><polygon class="cls-304" points="144.13 14.31 147.17 12.3 147.21 12.3 144.13 14.34 144.13 14.31"/><polygon class="cls-305" points="144.13 14.29 147.14 12.3 147.17 12.3 144.13 14.31 144.13 14.29"/><polygon class="cls-306" points="144.13 14.27 147.11 12.3 147.14 12.3 144.13 14.29 144.13 14.27"/><polygon class="cls-307" points="144.13 14.25 147.07 12.3 147.11 12.3 144.13 14.27 144.13 14.25"/><polygon class="cls-308" points="144.13 14.23 147.04 12.3 147.07 12.3 144.13 14.25 144.13 14.23"/><polygon class="cls-309" points="144.13 14.2 147.01 12.3 147.04 12.3 144.13 14.23 144.13 14.2"/><polygon class="cls-310" points="144.13 14.18 146.98 12.3 147.01 12.3 144.13 14.2 144.13 14.18"/><polygon class="cls-311" points="144.13 14.16 146.94 12.3 146.98 12.3 144.13 14.18 144.13 14.16"/><polygon class="cls-312" points="144.13 14.14 146.91 12.3 146.94 12.3 144.13 14.16 144.13 14.14"/><polygon class="cls-313" points="144.13 14.12 146.88 12.3 146.91 12.3 144.13 14.14 144.13 14.12"/><polygon class="cls-314" points="144.13 14.1 146.84 12.3 146.88 12.3 144.13 14.12 144.13 14.1"/><polygon class="cls-315" points="144.13 14.07 146.81 12.3 146.84 12.3 144.13 14.1 144.13 14.07"/><polygon class="cls-316" points="144.13 14.05 146.78 12.3 146.81 12.3 144.13 14.07 144.13 14.05"/><polygon class="cls-317" points="144.13 14.03 146.75 12.3 146.78 12.3 144.13 14.05 144.13 14.03"/><polygon class="cls-318" points="144.13 14.01 146.71 12.3 146.75 12.3 144.13 14.03 144.13 14.01"/><polygon class="cls-319" points="144.13 13.99 146.68 12.3 146.71 12.3 144.13 14.01 144.13 13.99"/><polygon class="cls-320" points="144.13 13.96 146.65 12.3 146.68 12.3 144.13 13.99 144.13 13.96"/><polygon class="cls-321" points="144.13 13.94 146.61 12.3 146.65 12.3 144.13 13.96 144.13 13.94"/><polygon class="cls-322" points="144.13 13.92 146.58 12.3 146.61 12.3 144.13 13.94 144.13 13.92"/><polygon class="cls-323" points="144.13 13.9 146.55 12.3 146.58 12.3 144.13 13.92 144.13 13.9"/><polygon class="cls-324" points="144.13 13.88 146.51 12.3 146.55 12.3 144.13 13.9 144.13 13.88"/><polygon class="cls-325" points="144.13 13.86 146.48 12.3 146.51 12.3 144.13 13.88 144.13 13.86"/><polygon class="cls-326" points="144.13 13.84 146.45 12.3 146.48 12.3 144.13 13.86 144.13 13.84"/><polygon class="cls-327" points="144.13 13.81 146.42 12.3 146.45 12.3 144.13 13.84 144.13 13.81"/><polygon class="cls-328" points="144.13 13.79 146.38 12.3 146.42 12.3 144.13 13.81 144.13 13.79"/><polygon class="cls-329" points="144.13 13.77 146.35 12.3 146.38 12.3 144.13 13.79 144.13 13.77"/><polygon class="cls-330" points="144.13 13.75 146.32 12.3 146.35 12.3 144.13 13.77 144.13 13.75"/><polygon class="cls-331" points="144.13 13.73 146.28 12.3 146.32 12.3 144.13 13.75 144.13 13.73"/><polygon class="cls-332" points="144.13 13.7 146.25 12.3 146.28 12.3 144.13 13.73 144.13 13.7"/><polygon class="cls-333" points="144.13 13.68 146.22 12.3 146.25 12.3 144.13 13.7 144.13 13.68"/><polygon class="cls-334" points="144.13 13.66 146.19 12.3 146.22 12.3 144.13 13.68 144.13 13.66"/><polygon class="cls-335" points="144.13 13.64 146.15 12.3 146.19 12.3 144.13 13.66 144.13 13.64"/><polygon class="cls-336" points="144.13 13.62 146.12 12.3 146.15 12.3 144.13 13.64 144.13 13.62"/><polygon class="cls-337" points="144.13 13.6 146.09 12.3 146.12 12.3 144.13 13.62 144.13 13.6"/><polygon class="cls-338" points="144.13 13.57 146.05 12.3 146.09 12.3 144.13 13.6 144.13 13.57"/><polygon class="cls-339" points="144.13 13.55 146.02 12.3 146.05 12.3 144.13 13.57 144.13 13.55"/><polygon class="cls-340" points="144.13 13.53 145.99 12.3 146.02 12.3 144.13 13.55 144.13 13.53"/><polygon class="cls-341" points="144.13 13.51 145.96 12.3 145.99 12.3 144.13 13.53 144.13 13.51"/><polygon class="cls-342" points="144.13 13.49 145.92 12.3 145.96 12.3 144.13 13.51 144.13 13.49"/><polygon class="cls-343" points="144.13 13.46 145.89 12.3 145.92 12.3 144.13 13.49 144.13 13.46"/><polygon class="cls-344" points="144.13 13.44 145.86 12.3 145.89 12.3 144.13 13.46 144.13 13.44"/><polygon class="cls-345" points="144.13 13.42 145.82 12.3 145.86 12.3 144.13 13.44 144.13 13.42"/><polygon class="cls-346" points="144.13 13.4 145.79 12.3 145.82 12.3 144.13 13.42 144.13 13.4"/><polygon class="cls-347" points="144.13 13.38 145.76 12.3 145.79 12.3 144.13 13.4 144.13 13.38"/><polygon class="cls-348" points="144.13 13.36 145.72 12.3 145.76 12.3 144.13 13.38 144.13 13.36"/><polygon class="cls-349" points="144.13 13.33 145.69 12.3 145.72 12.3 144.13 13.36 144.13 13.33"/><polygon class="cls-350" points="144.13 13.31 145.66 12.3 145.69 12.3 144.13 13.33 144.13 13.31"/><polygon class="cls-351" points="144.13 13.29 145.63 12.3 145.66 12.3 144.13 13.31 144.13 13.29"/><polygon class="cls-352" points="144.13 13.27 145.59 12.3 145.63 12.3 144.13 13.29 144.13 13.27"/><polygon class="cls-353" points="144.13 13.25 145.56 12.3 145.59 12.3 144.13 13.27 144.13 13.25"/><polygon class="cls-353" points="145.56 12.3 144.13 13.25 144.13 12.3 145.56 12.3"/></g><path class="cls-354" d="M140.29,25.55V26.8h-1.38V25.52a2.73,2.73,0,0,1-2.64-2.68l1.79-.09a1.46,1.46,0,0,0,1.63,1.3c.79,0,1.35-.29,1.35-1s-.62-.89-1.76-1.18c-1.54-.39-2.82-.83-2.82-2.49a2.55,2.55,0,0,1,2.44-2.58V15.58h1.38v1.28a2.6,2.6,0,0,1,2.38,2.56l-1.8.09a1.19,1.19,0,0,0-1.32-1.19c-.81,0-1.27.42-1.27,1s.49.83,1.67,1.11c1.75.45,2.9,1,2.9,2.51A2.54,2.54,0,0,1,140.29,25.55Z"/></g></g></svg>